<svg height="145" viewBox="0 0 335 145" width="335" xmlns="http://www.w3.org/2000/svg" xmlns:xlink="http://www.w3.org/1999/xlink"><clipPath id="a"><path d="m335 0v145h-335v-145z"/></clipPath><clipPath id="b"><path d="m159 0c6.075132 0 11 4.92486775 11 11v92c0 6.075132-4.924868 11-11 11h-148c-6.07513225 0-11-4.924868-11-11v-92c0-6.07513225 4.92486775-11 11-11z"/></clipPath><clipPath id="c"><path d="m170 0v81c0 6.0751322-4.924868 11-11 11h-148c-6.07513225 0-11-4.9248678-11-11v-81z"/></clipPath><clipPath id="d"><path d="m1.596 0 5.25 6.776v-6.776h1.694v9.8h-1.442l-5.404-6.972v6.972h-1.694v-9.8z"/></clipPath><clipPath id="e"><path d="m3.43 0c1.106 0 1.932.294 2.45.826.546.532.798 1.316.798 2.282v4.382h-1.652v-.924c-.504.602-1.274 1.078-2.408 1.078-1.386 0-2.618-.798-2.618-2.282v-.028c0-1.596 1.246-2.38 3.052-2.38.826 0 1.414.126 1.988.308v-.182c0-1.05-.644-1.61-1.834-1.61-.826 0-1.442.182-2.114.462l-.448-1.33c.812-.364 1.61-.602 2.786-.602zm-.042 4.032c-1.092 0-1.736.462-1.736 1.232v.028c0 .714.63 1.12 1.442 1.12 1.12 0 1.974-.644 1.974-1.582v-.504c-.434-.168-1.008-.294-1.68-.294z"/></clipPath><clipPath id="f"><path d="m8.652 0c1.61 0 2.59 1.022 2.59 2.828v4.718h-1.694v-4.2c0-1.176-.546-1.806-1.498-1.806-.924 0-1.582.644-1.582 1.834v4.172h-1.694v-4.214c0-1.148-.56-1.792-1.498-1.792s-1.582.7-1.582 1.834v4.172h-1.694v-7.392h1.694v1.12c.476-.658 1.12-1.274 2.254-1.274 1.064 0 1.82.518 2.212 1.302.588-.784 1.372-1.302 2.492-1.302z"/></clipPath><clipPath id="g"><path d="m3.612 0c2.352 0 3.542 1.848 3.542 3.976 0 .154-.014.308-.028.476h-5.432c.182 1.204 1.036 1.876 2.128 1.876.826 0 1.414-.308 2.002-.882l.994.882c-.7.84-1.666 1.386-3.024 1.386-2.142 0-3.794-1.554-3.794-3.836v-.028c0-2.114 1.498-3.85 3.612-3.85zm-.014 1.386c-1.036 0-1.764.798-1.918 1.946h3.794c-.112-1.092-.756-1.946-1.876-1.946z"/></clipPath><clipPath id="h"><path d="m1.722 0v8.232h5.152v1.568h-6.874v-9.8z"/></clipPath><clipPath id="i"><path d="m1.764 2.744v7.392h-1.694v-7.392zm.056-2.744v1.61h-1.82v-1.61z"/></clipPath><clipPath id="j"><path d="m3.85 0c1.386 0 2.254.518 2.954 1.274l-1.064 1.134c-.518-.546-1.064-.924-1.904-.924-1.232 0-2.142 1.064-2.142 2.352v.028c0 1.316.91 2.366 2.212 2.366.798 0 1.386-.364 1.918-.91l1.022 1.008c-.728.812-1.582 1.386-3.024 1.386-2.198 0-3.822-1.722-3.822-3.822v-.028c0-2.1 1.624-3.864 3.85-3.864z"/></clipPath><clipPath id="k"><path d="m3.612 0c2.352 0 3.542 1.848 3.542 3.976 0 .154-.014.308-.028.476h-5.432c.182 1.204 1.036 1.876 2.128 1.876.826 0 1.414-.308 2.002-.882l.994.882c-.7.84-1.666 1.386-3.024 1.386-2.142 0-3.794-1.554-3.794-3.836v-.028c0-2.114 1.498-3.85 3.612-3.85zm-.014 1.386c-1.036 0-1.764.798-1.918 1.946h3.794c-.112-1.092-.756-1.946-1.876-1.946z"/></clipPath><clipPath id="l"><path d="m4.004 0c1.666 0 2.632 1.12 2.632 2.828v4.718h-1.694v-4.2c0-1.148-.574-1.806-1.582-1.806-.98 0-1.666.686-1.666 1.834v4.172h-1.694v-7.392h1.694v1.134c.476-.686 1.162-1.288 2.31-1.288z"/></clipPath><clipPath id="m"><path d="m3.85 0c1.386 0 2.254.518 2.954 1.274l-1.064 1.134c-.518-.546-1.064-.924-1.904-.924-1.232 0-2.142 1.064-2.142 2.352v.028c0 1.316.91 2.366 2.212 2.366.798 0 1.386-.364 1.918-.91l1.022 1.008c-.728.812-1.582 1.386-3.024 1.386-2.198 0-3.822-1.722-3.822-3.822v-.028c0-2.1 1.624-3.864 3.85-3.864z"/></clipPath><clipPath id="n"><path d="m3.612 0c2.352 0 3.542 1.848 3.542 3.976 0 .154-.014.308-.028.476h-5.432c.182 1.204 1.036 1.876 2.128 1.876.826 0 1.414-.308 2.002-.882l.994.882c-.7.84-1.666 1.386-3.024 1.386-2.142 0-3.794-1.554-3.794-3.836v-.028c0-2.114 1.498-3.85 3.612-3.85zm-.014 1.386c-1.036 0-1.764.798-1.918 1.946h3.794c-.112-1.092-.756-1.946-1.876-1.946z"/></clipPath><clipPath id="o"><path d="m4.004 0c1.666 0 2.632 1.12 2.632 2.828v4.718h-1.694v-4.2c0-1.148-.574-1.806-1.582-1.806-.98 0-1.666.686-1.666 1.834v4.172h-1.694v-7.392h1.694v1.134c.476-.686 1.162-1.288 2.31-1.288z"/></clipPath><clipPath id="p"><path d="m1.694 0v4.2c0 1.148.574 1.792 1.582 1.792.98 0 1.666-.672 1.666-1.82v-4.172h1.708v7.392h-1.708v-1.148c-.476.7-1.162 1.302-2.31 1.302-1.666 0-2.632-1.12-2.632-2.842v-4.704z"/></clipPath><clipPath id="q"><path d="m8.652 0c1.61 0 2.59 1.022 2.59 2.828v4.718h-1.694v-4.2c0-1.176-.546-1.806-1.498-1.806-.924 0-1.582.644-1.582 1.834v4.172h-1.694v-4.214c0-1.148-.56-1.792-1.498-1.792s-1.582.7-1.582 1.834v4.172h-1.694v-7.392h1.694v1.12c.476-.658 1.12-1.274 2.254-1.274 1.064 0 1.82.518 2.212 1.302.588-.784 1.372-1.302 2.492-1.302z"/></clipPath><clipPath id="r"><path d="m1.694 0v4.06c.546-.77 1.316-1.386 2.52-1.386 1.736 0 3.43 1.372 3.43 3.836v.028c0 2.45-1.68 3.836-3.43 3.836-1.232 0-2.002-.616-2.52-1.302v1.148h-1.694v-10.22zm2.114 4.144c-1.148 0-2.156.952-2.156 2.366v.028c0 1.414 1.008 2.366 2.156 2.366 1.162 0 2.114-.91 2.114-2.366v-.028c0-1.428-.966-2.366-2.114-2.366z"/></clipPath><clipPath id="s"><path d="m3.612 0c2.352 0 3.542 1.848 3.542 3.976 0 .154-.014.308-.028.476h-5.432c.182 1.204 1.036 1.876 2.128 1.876.826 0 1.414-.308 2.002-.882l.994.882c-.7.84-1.666 1.386-3.024 1.386-2.142 0-3.794-1.554-3.794-3.836v-.028c0-2.114 1.498-3.85 3.612-3.85zm-.014 1.386c-1.036 0-1.764.798-1.918 1.946h3.794c-.112-1.092-.756-1.946-1.876-1.946z"/></clipPath><clipPath id="t"><path d="m4.11013588.00075424.20186412.00216154v1.792h-.098c-1.484 0-2.52.966-2.52 2.926v2.814h-1.694v-7.392h1.694v1.666c.462-1.106 1.316-1.862 2.618-1.806z"/></clipPath><clipPath id="u"><path d="m5.054 0c1.806 0 2.898.63 3.836 1.526l-1.106 1.274c-.784-.728-1.624-1.218-2.744-1.218-1.862 0-3.234 1.54-3.234 3.458v.028c0 1.918 1.358 3.472 3.234 3.472 1.204 0 1.974-.476 2.814-1.26l1.106 1.12c-1.022 1.064-2.142 1.736-3.976 1.736-2.856 0-4.984-2.226-4.984-5.04v-.028c0-2.786 2.086-5.068 5.054-5.068z"/></clipPath><clipPath id="v"><path d="m3.43 0c1.106 0 1.932.294 2.45.826.546.532.798 1.316.798 2.282v4.382h-1.652v-.924c-.504.602-1.274 1.078-2.408 1.078-1.386 0-2.618-.798-2.618-2.282v-.028c0-1.596 1.246-2.38 3.052-2.38.826 0 1.414.126 1.988.308v-.182c0-1.05-.644-1.61-1.834-1.61-.826 0-1.442.182-2.114.462l-.448-1.33c.812-.364 1.61-.602 2.786-.602zm-.042 4.032c-1.092 0-1.736.462-1.736 1.232v.028c0 .714.63 1.12 1.442 1.12 1.12 0 1.974-.644 1.974-1.582v-.504c-.434-.168-1.008-.294-1.68-.294z"/></clipPath><clipPath id="w"><path d="m4.11013588.00075424.20186412.00216154v1.792h-.098c-1.484 0-2.52.966-2.52 2.926v2.814h-1.694v-7.392h1.694v1.666c.462-1.106 1.316-1.862 2.618-1.806z"/></clipPath><clipPath id="x"><path d="m7.644 0v10.22h-1.694v-1.232c-.546.77-1.316 1.386-2.52 1.386-1.736 0-3.43-1.386-3.43-3.836v-.028c0-2.45 1.666-3.836 3.43-3.836 1.218 0 1.988.602 2.52 1.302v-3.976zm-3.808 4.144c-1.162 0-2.128.896-2.128 2.366v.028c0 1.428.98 2.366 2.128 2.366 1.134 0 2.142-.952 2.142-2.366v-.028c0-1.428-1.008-2.366-2.142-2.366z"/></clipPath><clipPath id="y"><path d="m4.004 0c1.666 0 2.632 1.12 2.632 2.828v4.718h-1.694v-4.2c0-1.148-.574-1.806-1.582-1.806-.98 0-1.666.686-1.666 1.834v4.172h-1.694v-7.392h1.694v1.134c.476-.686 1.162-1.288 2.31-1.288z"/></clipPath><clipPath id="z"><path d="m1.694 0v4.2c0 1.148.574 1.792 1.582 1.792.98 0 1.666-.672 1.666-1.82v-4.172h1.708v7.392h-1.708v-1.148c-.476.7-1.162 1.302-2.31 1.302-1.666 0-2.632-1.12-2.632-2.842v-4.704z"/></clipPath><clipPath id="A"><path d="m8.652 0c1.61 0 2.59 1.022 2.59 2.828v4.718h-1.694v-4.2c0-1.176-.546-1.806-1.498-1.806-.924 0-1.582.644-1.582 1.834v4.172h-1.694v-4.214c0-1.148-.56-1.792-1.498-1.792s-1.582.7-1.582 1.834v4.172h-1.694v-7.392h1.694v1.12c.476-.658 1.12-1.274 2.254-1.274 1.064 0 1.82.518 2.212 1.302.588-.784 1.372-1.302 2.492-1.302z"/></clipPath><clipPath id="B"><path d="m1.694 0v4.06c.546-.77 1.316-1.386 2.52-1.386 1.736 0 3.43 1.372 3.43 3.836v.028c0 2.45-1.68 3.836-3.43 3.836-1.232 0-2.002-.616-2.52-1.302v1.148h-1.694v-10.22zm2.114 4.144c-1.148 0-2.156.952-2.156 2.366v.028c0 1.414 1.008 2.366 2.156 2.366 1.162 0 2.114-.91 2.114-2.366v-.028c0-1.428-.966-2.366-2.114-2.366z"/></clipPath><clipPath id="C"><path d="m3.612 0c2.352 0 3.542 1.848 3.542 3.976 0 .154-.014.308-.028.476h-5.432c.182 1.204 1.036 1.876 2.128 1.876.826 0 1.414-.308 2.002-.882l.994.882c-.7.84-1.666 1.386-3.024 1.386-2.142 0-3.794-1.554-3.794-3.836v-.028c0-2.114 1.498-3.85 3.612-3.85zm-.014 1.386c-1.036 0-1.764.798-1.918 1.946h3.794c-.112-1.092-.756-1.946-1.876-1.946z"/></clipPath><clipPath id="D"><path d="m4.11013588.00075424.20186412.00216154v1.792h-.098c-1.484 0-2.52.966-2.52 2.926v2.814h-1.694v-7.392h1.694v1.666c.462-1.106 1.316-1.862 2.618-1.806z"/></clipPath><clipPath id="E"><path d="m3.654 0c3.08 0 5.208 2.114 5.208 4.872v.028c0 2.758-2.128 4.9-5.208 4.9h-3.654v-9.8zm0 1.568h-1.932v6.664h1.932c2.058 0 3.402-1.386 3.402-3.304v-.028c0-1.918-1.344-3.332-3.402-3.332z"/></clipPath><clipPath id="F"><path d="m3.43 0c1.106 0 1.932.294 2.45.826.546.532.798 1.316.798 2.282v4.382h-1.652v-.924c-.504.602-1.274 1.078-2.408 1.078-1.386 0-2.618-.798-2.618-2.282v-.028c0-1.596 1.246-2.38 3.052-2.38.826 0 1.414.126 1.988.308v-.182c0-1.05-.644-1.61-1.834-1.61-.826 0-1.442.182-2.114.462l-.448-1.33c.812-.364 1.61-.602 2.786-.602zm-.042 4.032c-1.092 0-1.736.462-1.736 1.232v.028c0 .714.63 1.12 1.442 1.12 1.12 0 1.974-.644 1.974-1.582v-.504c-.434-.168-1.008-.294-1.68-.294z"/></clipPath><clipPath id="G"><path d="m2.632 0v2.03h1.988v1.456h-1.988v3.626c0 .658.336.924.91.924.378 0 .714-.084 1.05-.252v1.386c-.42.238-.882.378-1.526.378-1.246 0-2.128-.546-2.128-2.17v-3.892h-.938v-1.456h.938v-2.03z"/></clipPath><clipPath id="H"><path d="m3.948 0c2.268 0 3.934 1.722 3.934 3.836v.028c0 2.1-1.68 3.85-3.962 3.85-2.254 0-3.92-1.722-3.92-3.822v-.028c0-2.114 1.68-3.864 3.948-3.864zm-.028 1.484c-1.358 0-2.226 1.064-2.226 2.352v.028c0 1.288.938 2.366 2.254 2.366 1.372 0 2.24-1.064 2.24-2.338v-.028c0-1.302-.938-2.38-2.268-2.38z"/></clipPath><clipPath id="I"><path d="m3.206 0c.588 0 .994.084 1.372.196v1.428c-.336-.112-.63-.182-.994-.182-.644 0-.98.35-.98 1.12v.406h1.96v1.4h-1.932v5.936h-1.694v-5.936h-.938v-1.414h.938v-.546c0-.812.21-1.428.602-1.82s.938-.588 1.666-.588z"/></clipPath><clipPath id="J"><path d="m1.694 0v4.06c.546-.77 1.316-1.386 2.52-1.386 1.736 0 3.43 1.372 3.43 3.836v.028c0 2.45-1.68 3.836-3.43 3.836-1.232 0-2.002-.616-2.52-1.302v1.148h-1.694v-10.22zm2.114 4.144c-1.148 0-2.156.952-2.156 2.366v.028c0 1.414 1.008 2.366 2.156 2.366 1.162 0 2.114-.91 2.114-2.366v-.028c0-1.428-.966-2.366-2.114-2.366z"/></clipPath><clipPath id="K"><path d="m1.764 2.744v7.392h-1.694v-7.392zm.056-2.744v1.61h-1.82v-1.61z"/></clipPath><clipPath id="L"><path d="m2.632 0v2.03h1.988v1.456h-1.988v3.626c0 .658.336.924.91.924.378 0 .714-.084 1.05-.252v1.386c-.42.238-.882.378-1.526.378-1.246 0-2.128-.546-2.128-2.17v-3.892h-.938v-1.456h.938v-2.03z"/></clipPath><clipPath id="M"><path d="m1.694 0v3.962c.476-.686 1.162-1.288 2.31-1.288 1.666 0 2.632 1.12 2.632 2.828v4.718h-1.694v-4.2c0-1.148-.574-1.806-1.582-1.806-.98 0-1.666.686-1.666 1.834v4.172h-1.694v-10.22z"/></clipPath><clipPath id="N"><path d="m3.672 0c2.196 0 3.648 1.92 3.648 4.32v.024c0 2.4-1.464 4.344-3.672 4.344s-3.648-1.92-3.648-4.32v-.024c0-2.4 1.464-4.344 3.672-4.344zm-.024 1.332c-1.296 0-2.124 1.32-2.124 2.988v.024c0 1.656.84 3.012 2.148 3.012s2.124-1.344 2.124-2.988v-.024c0-1.656-.852-3.012-2.148-3.012z"/></clipPath><clipPath id="O"><path d="m3.288 0v8.46h-1.464v-6.96l-1.512.42-.312-1.2 2.268-.72z"/></clipPath><clipPath id="P"><path d="m6.684 0-5.424 11.112h-1.26l5.424-11.112z"/></clipPath><clipPath id="Q"><path d="m3.672 0c2.196 0 3.648 1.92 3.648 4.32v.024c0 2.4-1.464 4.344-3.672 4.344s-3.648-1.92-3.648-4.32v-.024c0-2.4 1.464-4.344 3.672-4.344zm-.024 1.332c-1.296 0-2.124 1.32-2.124 2.988v.024c0 1.656.84 3.012 2.148 3.012s2.124-1.344 2.124-2.988v-.024c0-1.656-.852-3.012-2.148-3.012z"/></clipPath><clipPath id="R"><path d="m6.684 0-5.424 11.112h-1.26l5.424-11.112z"/></clipPath><clipPath id="S"><path d="m3.216 0c1.644 0 2.772 1.008 2.772 2.508v.024c0 1.32-.696 2.04-2.184 3.252l-1.728 1.44h3.996v1.296h-6.072v-1.164l2.892-2.46c1.152-.984 1.572-1.512 1.572-2.268 0-.828-.588-1.308-1.356-1.308s-1.296.42-1.932 1.26l-1.056-.828c.804-1.116 1.596-1.752 3.096-1.752z"/></clipPath><clipPath id="T"><path d="m3.672 0c2.196 0 3.648 1.92 3.648 4.32v.024c0 2.4-1.464 4.344-3.672 4.344s-3.648-1.92-3.648-4.32v-.024c0-2.4 1.464-4.344 3.672-4.344zm-.024 1.332c-1.296 0-2.124 1.32-2.124 2.988v.024c0 1.656.84 3.012 2.148 3.012s2.124-1.344 2.124-2.988v-.024c0-1.656-.852-3.012-2.148-3.012z"/></clipPath><clipPath id="U"><path d="m3.672 0c2.196 0 3.648 1.92 3.648 4.32v.024c0 2.4-1.464 4.344-3.672 4.344s-3.648-1.92-3.648-4.32v-.024c0-2.4 1.464-4.344 3.672-4.344zm-.024 1.332c-1.296 0-2.124 1.32-2.124 2.988v.024c0 1.656.84 3.012 2.148 3.012s2.124-1.344 2.124-2.988v-.024c0-1.656-.852-3.012-2.148-3.012z"/></clipPath><clipPath id="V"><path d="m5.52 0v5.544c0 .996-.3 1.74-.792 2.232s-1.2.744-2.04.744c-1.296 0-2.136-.6-2.688-1.356l.972-1.008c.492.636.984.996 1.692.996.792 0 1.332-.528 1.332-1.656v-5.496z"/></clipPath><clipPath id="W"><path d="m2.94 0c.948 0 1.656.252 2.1.708.468.456.684 1.128.684 1.956v3.756h-1.416v-.792c-.432.516-1.092.924-2.064.924-1.188 0-2.244-.684-2.244-1.956v-.024c0-1.368 1.068-2.04 2.616-2.04.708 0 1.212.108 1.704.264v-.156c0-.9-.552-1.38-1.572-1.38-.708 0-1.236.156-1.812.396l-.384-1.14c.696-.312 1.38-.516 2.388-.516zm-.036 3.456c-.936 0-1.488.396-1.488 1.056v.024c0 .612.54.96 1.236.96.96 0 1.692-.552 1.692-1.356v-.432c-.372-.144-.864-.252-1.44-.252z"/></clipPath><clipPath id="X"><path d="m1.56 0 1.788 4.704 1.644-4.704h1.512l-2.52 6.516c-.504 1.296-1.068 1.776-2.088 1.776-.6 0-1.056-.144-1.5-.384l.492-1.08c.264.144.552.24.852.24.408 0 .66-.18.9-.72l-2.64-6.348z"/></clipPath><clipPath id="Y"><path d="m4.332 0c1.548 0 2.484.54 3.288 1.308l-.948 1.092c-.672-.624-1.392-1.044-2.352-1.044-1.596 0-2.772 1.32-2.772 2.964v.024c0 1.644 1.164 2.976 2.772 2.976 1.032 0 1.692-.408 2.412-1.08l.948.96c-.876.912-1.836 1.488-3.408 1.488-2.448 0-4.272-1.908-4.272-4.32v-.024c0-2.388 1.788-4.344 4.332-4.344z"/></clipPath><clipPath id="Z"><path d="m1.512 2.352v6.336h-1.452v-6.336zm.048-2.352v1.38h-1.56v-1.38z"/></clipPath><clipPath id="aa"><path d="m2.256 0v1.74h1.704v1.248h-1.704v3.108c0 .564.288.792.78.792.324 0 .612-.072.9-.216v1.188c-.36.204-.756.324-1.308.324-1.068 0-1.824-.468-1.824-1.86v-3.336h-.804v-1.248h.804v-1.74z"/></clipPath><clipPath id="ab"><path d="m5.508 0v.996l-3.66 4.152h3.66v1.188h-5.508v-.996l3.66-4.152h-3.528v-1.188z"/></clipPath><clipPath id="ac"><path d="m3.096 0c2.016 0 3.036 1.584 3.036 3.408 0 .132-.012.264-.024.408h-4.656c.156 1.032.888 1.608 1.824 1.608.708 0 1.212-.264 1.716-.756l.852.756c-.6.72-1.428 1.188-2.592 1.188-1.836 0-3.252-1.332-3.252-3.288v-.024c0-1.812 1.284-3.3 3.096-3.3zm-.012 1.188c-.888 0-1.512.684-1.644 1.668h3.252c-.096-.936-.648-1.668-1.608-1.668z"/></clipPath><clipPath id="ad"><path d="m3.432 0c1.428 0 2.256.96 2.256 2.424v4.044h-1.452v-3.6c0-.984-.492-1.548-1.356-1.548-.84 0-1.428.588-1.428 1.572v3.576h-1.452v-6.336h1.452v.972c.408-.588.996-1.104 1.98-1.104z"/></clipPath><clipPath id="ae"><path d="m5.064 0 3.696 8.46h-1.56l-.852-2.028h-3.972l-.864 2.028h-1.512l3.696-8.46zm-.708 1.764-1.44 3.36h2.892z"/></clipPath><clipPath id="af"><path d="m1.452 0v3.6c0 .984.492 1.536 1.356 1.536.84 0 1.428-.576 1.428-1.56v-3.576h1.464v6.336h-1.464v-.984c-.408.6-.996 1.116-1.98 1.116-1.428 0-2.256-.96-2.256-2.436v-4.032z"/></clipPath><clipPath id="ag"><path d="m2.568 0c.792 0 1.656.276 2.328.72l-.576 1.032c-.612-.372-1.26-.6-1.788-.6-.564 0-.888.264-.888.624v.024c0 .468.684.66 1.428.9.924.288 1.968.708 1.968 1.848v.024c0 1.332-1.032 1.992-2.352 1.992-.9 0-1.896-.324-2.688-.948l.648-.984c.696.516 1.428.78 2.076.78.624 0 .984-.264.984-.684v-.024c0-.492-.672-.66-1.416-.888-.936-.264-1.98-.648-1.98-1.86v-.024c0-1.2.996-1.932 2.256-1.932z"/></clipPath><clipPath id="ah"><path d="m2.256 0v1.74h1.704v1.248h-1.704v3.108c0 .564.288.792.78.792.324 0 .612-.072.9-.216v1.188c-.36.204-.756.324-1.308.324-1.068 0-1.824-.468-1.824-1.86v-3.336h-.804v-1.248h.804v-1.74z"/></clipPath><clipPath id="ai"><path d="m3.50303521.00117296.19296479.00132628v1.536h-.084c-1.272 0-2.16.828-2.16 2.508v2.412h-1.452v-6.336h1.452v1.428c.396-.948 1.128-1.596 2.244-1.548z"/></clipPath><clipPath id="aj"><path d="m2.94 0c.948 0 1.656.252 2.1.708.468.456.684 1.128.684 1.956v3.756h-1.416v-.792c-.432.516-1.092.924-2.064.924-1.188 0-2.244-.684-2.244-1.956v-.024c0-1.368 1.068-2.04 2.616-2.04.708 0 1.212.108 1.704.264v-.156c0-.9-.552-1.38-1.572-1.38-.708 0-1.236.156-1.812.396l-.384-1.14c.696-.312 1.38-.516 2.388-.516zm-.036 3.456c-.936 0-1.488.396-1.488 1.056v.024c0 .612.54.96 1.236.96.96 0 1.692-.552 1.692-1.356v-.432c-.372-.144-.864-.252-1.44-.252z"/></clipPath><clipPath id="ak"><path d="m1.452 0v8.76h-1.452v-8.76z"/></clipPath><clipPath id="al"><path d="m1.512 2.352v6.336h-1.452v-6.336zm.048-2.352v1.38h-1.56v-1.38z"/></clipPath><clipPath id="am"><path d="m2.94 0c.948 0 1.656.252 2.1.708.468.456.684 1.128.684 1.956v3.756h-1.416v-.792c-.432.516-1.092.924-2.064.924-1.188 0-2.244-.684-2.244-1.956v-.024c0-1.368 1.068-2.04 2.616-2.04.708 0 1.212.108 1.704.264v-.156c0-.9-.552-1.38-1.572-1.38-.708 0-1.236.156-1.812.396l-.384-1.14c.696-.312 1.38-.516 2.388-.516zm-.036 3.456c-.936 0-1.488.396-1.488 1.056v.024c0 .612.54.96 1.236.96.96 0 1.692-.552 1.692-1.356v-.432c-.372-.144-.864-.252-1.44-.252z"/></clipPath><clipPath id="an"><path d="m3.432 0c1.428 0 2.256.96 2.256 2.424v4.044h-1.452v-3.6c0-.984-.492-1.548-1.356-1.548-.84 0-1.428.588-1.428 1.572v3.576h-1.452v-6.336h1.452v.972c.408-.588.996-1.104 1.98-1.104z"/></clipPath><clipPath id="ao"><path d="m4.332 0c1.548 0 2.484.54 3.288 1.308l-.948 1.092c-.672-.624-1.392-1.044-2.352-1.044-1.596 0-2.772 1.32-2.772 2.964v.024c0 1.644 1.164 2.976 2.772 2.976 1.032 0 1.692-.408 2.412-1.08l.948.96c-.876.912-1.836 1.488-3.408 1.488-2.448 0-4.272-1.908-4.272-4.32v-.024c0-2.388 1.788-4.344 4.332-4.344z"/></clipPath><clipPath id="ap"><path d="m2.94 0c.948 0 1.656.252 2.1.708.468.456.684 1.128.684 1.956v3.756h-1.416v-.792c-.432.516-1.092.924-2.064.924-1.188 0-2.244-.684-2.244-1.956v-.024c0-1.368 1.068-2.04 2.616-2.04.708 0 1.212.108 1.704.264v-.156c0-.9-.552-1.38-1.572-1.38-.708 0-1.236.156-1.812.396l-.384-1.14c.696-.312 1.38-.516 2.388-.516zm-.036 3.456c-.936 0-1.488.396-1.488 1.056v.024c0 .612.54.96 1.236.96.96 0 1.692-.552 1.692-1.356v-.432c-.372-.144-.864-.252-1.44-.252z"/></clipPath><clipPath id="aq"><path d="m3.612 0c1.488 0 2.94 1.176 2.94 3.288v.024c0 2.1-1.44 3.288-2.94 3.288-1.056 0-1.716-.528-2.16-1.116v2.904h-1.452v-8.256h1.452v1.056c.468-.66 1.128-1.188 2.16-1.188zm-.348 1.26c-.984 0-1.848.816-1.848 2.028v.024c0 1.212.864 2.028 1.848 2.028.996 0 1.812-.78 1.812-2.028v-.024c0-1.224-.828-2.028-1.812-2.028z"/></clipPath><clipPath id="ar"><path d="m1.512 2.352v6.336h-1.452v-6.336zm.048-2.352v1.38h-1.56v-1.38z"/></clipPath><clipPath id="as"><path d="m2.256 0v1.74h1.704v1.248h-1.704v3.108c0 .564.288.792.78.792.324 0 .612-.072.9-.216v1.188c-.36.204-.756.324-1.308.324-1.068 0-1.824-.468-1.824-1.86v-3.336h-.804v-1.248h.804v-1.74z"/></clipPath><clipPath id="at"><path d="m2.94 0c.948 0 1.656.252 2.1.708.468.456.684 1.128.684 1.956v3.756h-1.416v-.792c-.432.516-1.092.924-2.064.924-1.188 0-2.244-.684-2.244-1.956v-.024c0-1.368 1.068-2.04 2.616-2.04.708 0 1.212.108 1.704.264v-.156c0-.9-.552-1.38-1.572-1.38-.708 0-1.236.156-1.812.396l-.384-1.14c.696-.312 1.38-.516 2.388-.516zm-.036 3.456c-.936 0-1.488.396-1.488 1.056v.024c0 .612.54.96 1.236.96.96 0 1.692-.552 1.692-1.356v-.432c-.372-.144-.864-.252-1.44-.252z"/></clipPath><clipPath id="au"><path d="m6.816 0v1.368h-2.664v7.032h-1.488v-7.032h-2.664v-1.368z"/></clipPath><clipPath id="av"><path d="m3.096 0c2.016 0 3.036 1.584 3.036 3.408 0 .132-.012.264-.024.408h-4.656c.156 1.032.888 1.608 1.824 1.608.708 0 1.212-.264 1.716-.756l.852.756c-.6.72-1.428 1.188-2.592 1.188-1.836 0-3.252-1.332-3.252-3.288v-.024c0-1.812 1.284-3.3 3.096-3.3zm-.012 1.188c-.888 0-1.512.684-1.644 1.668h3.252c-.096-.936-.648-1.668-1.608-1.668z"/></clipPath><clipPath id="aw"><path d="m3.50303521.00117296.19296479.00132628v1.536h-.084c-1.272 0-2.16.828-2.16 2.508v2.412h-1.452v-6.336h1.452v1.428c.396-.948 1.128-1.596 2.244-1.548z"/></clipPath><clipPath id="ax"><path d="m3.50303521.00117296.19296479.00132628v1.536h-.084c-1.272 0-2.16.828-2.16 2.508v2.412h-1.452v-6.336h1.452v1.428c.396-.948 1.128-1.596 2.244-1.548z"/></clipPath><clipPath id="ay"><path d="m2.256 0v1.74h1.704v1.248h-1.704v3.108c0 .564.288.792.78.792.324 0 .612-.072.9-.216v1.188c-.36.204-.756.324-1.308.324-1.068 0-1.824-.468-1.824-1.86v-3.336h-.804v-1.248h.804v-1.74z"/></clipPath><clipPath id="az"><path d="m3.384 0c1.944 0 3.372 1.476 3.372 3.288v.024c0 1.8-1.44 3.3-3.396 3.3-1.932 0-3.36-1.476-3.36-3.276v-.024c0-1.812 1.44-3.312 3.384-3.312zm-.024 1.272c-1.164 0-1.908.912-1.908 2.016v.024c0 1.104.804 2.028 1.932 2.028 1.176 0 1.92-.912 1.92-2.004v-.024c0-1.116-.804-2.04-1.944-2.04z"/></clipPath><clipPath id="aA"><path d="m3.50303521.00117296.19296479.00132628v1.536h-.084c-1.272 0-2.16.828-2.16 2.508v2.412h-1.452v-6.336h1.452v1.428c.396-.948 1.128-1.596 2.244-1.548z"/></clipPath><clipPath id="aB"><path d="m1.56 0 1.788 4.704 1.644-4.704h1.512l-2.52 6.516c-.504 1.296-1.068 1.776-2.088 1.776-.6 0-1.056-.144-1.5-.384l.492-1.08c.264.144.552.24.852.24.408 0 .66-.18.9-.72l-2.64-6.348z"/></clipPath><clipPath id="aC"><path d="m3.288 0v8.46h-1.464v-6.96l-1.512.42-.312-1.2 2.268-.72z"/></clipPath><clipPath id="aD"><path d="m3.216 0c1.644 0 2.772 1.008 2.772 2.508v.024c0 1.32-.696 2.04-2.184 3.252l-1.728 1.44h3.996v1.296h-6.072v-1.164l2.892-2.46c1.152-.984 1.572-1.512 1.572-2.268 0-.828-.588-1.308-1.356-1.308s-1.296.42-1.932 1.26l-1.056-.828c.804-1.116 1.596-1.752 3.096-1.752z"/></clipPath><clipPath id="aE"><path d="m6.024 0v1.104l-2.34 2.4c1.272.156 2.472.804 2.472 2.352v.024c0 1.548-1.188 2.664-2.94 2.664-1.464 0-2.508-.612-3.216-1.476l1.032-.96c.6.708 1.272 1.104 2.208 1.104.828 0 1.452-.504 1.452-1.272v-.024c0-.828-.756-1.296-1.932-1.296h-.684l-.24-.924 2.268-2.412h-3.636v-1.284z"/></clipPath><clipPath id="aF"><path d="m5.928 0v5.364h1.2v1.212h-1.2v1.884h-1.416v-1.884h-4.236l-.276-1.056 4.668-5.52zm-1.416 2.04-2.76 3.324h2.76z"/></clipPath><clipPath id="aG"><path d="m5.832 0v1.308h-3.756l-.132 1.968c.396-.144.768-.24 1.332-.24 1.632 0 2.928.864 2.928 2.64v.024c0 1.716-1.26 2.844-3.12 2.844-1.284 0-2.292-.516-3.084-1.284l.912-1.068c.672.624 1.38 1.008 2.16 1.008 1.008 0 1.668-.576 1.668-1.452v-.024c0-.852-.72-1.392-1.74-1.392-.6 0-1.116.168-1.548.372l-.888-.588.24-4.116z"/></clipPath><clipPath id="aH"><path d="m3.6 0c1.092 0 1.836.348 2.568.936l-.792 1.14c-.588-.456-1.08-.732-1.824-.732-1.464 0-1.992 1.524-2.016 2.676.492-.516 1.116-.852 2.016-.852 1.62 0 2.928.96 2.928 2.64v.024c0 1.668-1.356 2.856-3.12 2.856-1.032 0-1.776-.324-2.34-.888-.636-.636-1.02-1.512-1.02-3.204v-.024c0-2.568 1.224-4.572 3.6-4.572zm-.312 4.404c-1.044 0-1.704.672-1.704 1.476v.024c0 .852.696 1.5 1.74 1.5s1.68-.648 1.68-1.512v-.024c0-.84-.672-1.464-1.716-1.464z"/></clipPath><clipPath id="aI"><path d="m5.904 0v1.116l-3.78 7.284h-1.668l3.768-7.104h-4.224v-1.296z"/></clipPath><clipPath id="aJ"><path d="m3.204 0c1.68 0 2.916.972 2.916 2.268v.024c0 .936-.516 1.5-1.224 1.872.924.42 1.512 1.02 1.512 2.016v.024c0 1.5-1.368 2.436-3.204 2.436s-3.204-.96-3.204-2.412v-.024c0-1.008.564-1.644 1.512-2.04-.708-.372-1.224-.936-1.224-1.872v-.024c0-1.284 1.236-2.268 2.916-2.268zm0 4.848c-.996 0-1.752.504-1.752 1.272v.024c0 .684.648 1.26 1.752 1.26s1.764-.564 1.764-1.26v-.024c0-.768-.768-1.272-1.764-1.272zm0-3.612c-.9 0-1.5.528-1.5 1.164v.024c0 .732.636 1.248 1.5 1.248s1.5-.516 1.5-1.236v-.024c0-.648-.6-1.176-1.5-1.176z"/></clipPath><clipPath id="aK"><path d="m3.132 0c1.056 0 1.74.3 2.34.888.612.624 1.008 1.548 1.008 3.204v.024c0 2.7-1.332 4.572-3.6 4.572-1.164 0-1.98-.42-2.688-1.008l.804-1.128c.636.528 1.2.792 1.92.792 1.488 0 2.028-1.536 2.04-2.652-.468.564-1.116.9-1.98.9-1.788 0-2.976-1.044-2.976-2.664v-.024c0-1.644 1.272-2.904 3.132-2.904zm.012 1.272c-1.044 0-1.668.696-1.668 1.56v.024c0 .876.672 1.5 1.716 1.5 1.068 0 1.704-.696 1.704-1.512v-.024c0-.876-.684-1.548-1.752-1.548z"/></clipPath><clipPath id="aL"><path d="m3.672 0c2.196 0 3.648 1.92 3.648 4.32v.024c0 2.4-1.464 4.344-3.672 4.344s-3.648-1.92-3.648-4.32v-.024c0-2.4 1.464-4.344 3.672-4.344zm-.024 1.332c-1.296 0-2.124 1.32-2.124 2.988v.024c0 1.656.84 3.012 2.148 3.012s2.124-1.344 2.124-2.988v-.024c0-1.656-.852-3.012-2.148-3.012z"/></clipPath><clipPath id="aM"><path d="m5.064 0 3.696 8.46h-1.56l-.852-2.028h-3.972l-.864 2.028h-1.512l3.696-8.46zm-.708 1.764-1.44 3.36h2.892z"/></clipPath><clipPath id="aN"><path d="m3.288 0v8.46h-1.464v-6.96l-1.512.42-.312-1.2 2.268-.72z"/></clipPath><clipPath id="aO"><path d="m3.216 0c1.644 0 2.772 1.008 2.772 2.508v.024c0 1.32-.696 2.04-2.184 3.252l-1.728 1.44h3.996v1.296h-6.072v-1.164l2.892-2.46c1.152-.984 1.572-1.512 1.572-2.268 0-.828-.588-1.308-1.356-1.308s-1.296.42-1.932 1.26l-1.056-.828c.804-1.116 1.596-1.752 3.096-1.752z"/></clipPath><clipPath id="aP"><path d="m6.024 0v1.104l-2.34 2.4c1.272.156 2.472.804 2.472 2.352v.024c0 1.548-1.188 2.664-2.94 2.664-1.464 0-2.508-.612-3.216-1.476l1.032-.96c.6.708 1.272 1.104 2.208 1.104.828 0 1.452-.504 1.452-1.272v-.024c0-.828-.756-1.296-1.932-1.296h-.684l-.24-.924 2.268-2.412h-3.636v-1.284z"/></clipPath><clipPath id="aQ"><path d="m5.928 0v5.364h1.2v1.212h-1.2v1.884h-1.416v-1.884h-4.236l-.276-1.056 4.668-5.52zm-1.416 2.04-2.76 3.324h2.76z"/></clipPath><clipPath id="aR"><path d="m5.832 0v1.308h-3.756l-.132 1.968c.396-.144.768-.24 1.332-.24 1.632 0 2.928.864 2.928 2.64v.024c0 1.716-1.26 2.844-3.12 2.844-1.284 0-2.292-.516-3.084-1.284l.912-1.068c.672.624 1.38 1.008 2.16 1.008 1.008 0 1.668-.576 1.668-1.452v-.024c0-.852-.72-1.392-1.74-1.392-.6 0-1.116.168-1.548.372l-.888-.588.24-4.116z"/></clipPath><clipPath id="aS"><path d="m3.6 0c1.092 0 1.836.348 2.568.936l-.792 1.14c-.588-.456-1.08-.732-1.824-.732-1.464 0-1.992 1.524-2.016 2.676.492-.516 1.116-.852 2.016-.852 1.62 0 2.928.96 2.928 2.64v.024c0 1.668-1.356 2.856-3.12 2.856-1.032 0-1.776-.324-2.34-.888-.636-.636-1.02-1.512-1.02-3.204v-.024c0-2.568 1.224-4.572 3.6-4.572zm-.312 4.404c-1.044 0-1.704.672-1.704 1.476v.024c0 .852.696 1.5 1.74 1.5s1.68-.648 1.68-1.512v-.024c0-.84-.672-1.464-1.716-1.464z"/></clipPath><clipPath id="aT"><path d="m5.904 0v1.116l-3.78 7.284h-1.668l3.768-7.104h-4.224v-1.296z"/></clipPath><clipPath id="aU"><path d="m3.204 0c1.68 0 2.916.972 2.916 2.268v.024c0 .936-.516 1.5-1.224 1.872.924.42 1.512 1.02 1.512 2.016v.024c0 1.5-1.368 2.436-3.204 2.436s-3.204-.96-3.204-2.412v-.024c0-1.008.564-1.644 1.512-2.04-.708-.372-1.224-.936-1.224-1.872v-.024c0-1.284 1.236-2.268 2.916-2.268zm0 4.848c-.996 0-1.752.504-1.752 1.272v.024c0 .684.648 1.26 1.752 1.26s1.764-.564 1.764-1.26v-.024c0-.768-.768-1.272-1.764-1.272zm0-3.612c-.9 0-1.5.528-1.5 1.164v.024c0 .732.636 1.248 1.5 1.248s1.5-.516 1.5-1.236v-.024c0-.648-.6-1.176-1.5-1.176z"/></clipPath><clipPath id="aV"><path d="m3.132 0c1.056 0 1.74.3 2.34.888.612.624 1.008 1.548 1.008 3.204v.024c0 2.7-1.332 4.572-3.6 4.572-1.164 0-1.98-.42-2.688-1.008l.804-1.128c.636.528 1.2.792 1.92.792 1.488 0 2.028-1.536 2.04-2.652-.468.564-1.116.9-1.98.9-1.788 0-2.976-1.044-2.976-2.664v-.024c0-1.644 1.272-2.904 3.132-2.904zm.012 1.272c-1.044 0-1.668.696-1.668 1.56v.024c0 .876.672 1.5 1.716 1.5 1.068 0 1.704-.696 1.704-1.512v-.024c0-.876-.684-1.548-1.752-1.548z"/></clipPath><clipPath id="aW"><path d="m9.5 0 9.5 19h-19z"/></clipPath><clipPath id="aX"><path d="m48 0v50h-48v-50z"/></clipPath><clipPath id="aY"><path d="m17 0c4.9705627 0 9 4.02943725 9 9 0 3.7058289-2.2397731 6.8885309-5.4394648 8.2682514 8.2058003 1.4458895 14.4394648 8.6108439 14.4394648 17.2317486v.5h-35v-.5c0-8.3824597 5.89360038-15.3883953 13.7631316-17.1001372-3.3713426-1.2994471-5.7631316-4.5703388-5.7631316-8.3998628 0-4.97056275 4.0294373-9 9-9z"/></clipPath><g clip-path="url(#a)"><g transform="translate(83)"><g clip-path="url(#b)"><path d="m0 0h170v114h-170z" fill="#ffd988"/></g><g clip-path="url(#c)" transform="translate(0 22)"><path d="m0 0h170v92h-170z" fill="#fee8ad"/></g></g><g transform="translate(23.226 29.2)"><g clip-path="url(#d)"><path d="m0 0h8.54v9.8h-8.54z" fill="#242934"/></g><g clip-path="url(#e)" transform="translate(10.374 2.31)"><path d="m0 0h6.678v7.644h-6.678z" fill="#242934"/></g><g clip-path="url(#f)" transform="translate(19.082 2.254)"><path d="m0 0h11.242v7.546h-11.242z" fill="#242934"/></g><g clip-path="url(#g)" transform="translate(31.976 2.254)"><path d="m0 0h7.154v7.714h-7.154z" fill="#242934"/></g></g><g clip-path="url(#h)" transform="translate(10.43 80.2)"><path d="m0 0h6.874v9.8h-6.874z" fill="#242934"/></g><g clip-path="url(#i)" transform="translate(18.928 79.864)"><path d="m0 0h1.82v10.136h-1.82z" fill="#242934"/></g><g clip-path="url(#j)" transform="translate(22.498 82.454)"><path d="m0 0h6.846v7.714h-6.846z" fill="#242934"/></g><g clip-path="url(#k)" transform="translate(30.282 82.454)"><path d="m0 0h7.154v7.714h-7.154z" fill="#242934"/></g><g clip-path="url(#l)" transform="translate(39.144 82.454)"><path d="m0 0h6.636v7.546h-6.636z" fill="#242934"/></g><g clip-path="url(#m)" transform="translate(47.418 82.454)"><path d="m0 0h6.846v7.714h-6.846z" fill="#242934"/></g><g clip-path="url(#n)" transform="translate(55.202 82.454)"><path d="m0 0h7.154v7.714h-7.154z" fill="#242934"/></g><g clip-path="url(#o)" transform="translate(9.772 96.454)"><path d="m0 0h6.636v7.546h-6.636z" fill="#242934"/></g><g clip-path="url(#p)" transform="translate(18.368 96.608)"><path d="m0 0h6.65v7.546h-6.65z" fill="#242934"/></g><g clip-path="url(#q)" transform="translate(27.132 96.454)"><path d="m0 0h11.242v7.546h-11.242z" fill="#242934"/></g><g clip-path="url(#r)" transform="translate(40.432 93.78)"><path d="m0 0h7.644v10.374h-7.644z" fill="#242934"/></g><g clip-path="url(#s)" transform="translate(49.42 96.454)"><path d="m0 0h7.154v7.714h-7.154z" fill="#242934"/></g><g clip-path="url(#t)" transform="translate(58.282 96.465084)"><path d="m0 0h4.312v7.53491578h-4.312z" fill="#242934"/></g><g clip-path="url(#u)" transform="translate(180.826 134.032)"><path d="m0 0h8.96v10.136h-8.96z" fill="#242934"/></g><g clip-path="url(#v)" transform="translate(190.906 136.51)"><path d="m0 0h6.678v7.644h-6.678z" fill="#242934"/></g><g clip-path="url(#w)" transform="translate(199.614 136.465084)"><path d="m0 0h4.312v7.53491578h-4.312z" fill="#242934"/></g><g clip-path="url(#x)" transform="translate(204.808 133.78)"><path d="m0 0h7.644v10.374h-7.644z" fill="#242934"/></g><g clip-path="url(#y)" transform="translate(218.78 136.454)"><path d="m0 0h6.636v7.546h-6.636z" fill="#242934"/></g><g clip-path="url(#z)" transform="translate(227.376 136.608)"><path d="m0 0h6.65v7.546h-6.65z" fill="#242934"/></g><g clip-path="url(#A)" transform="translate(236.14 136.454)"><path d="m0 0h11.242v7.546h-11.242z" fill="#242934"/></g><g clip-path="url(#B)" transform="translate(249.44 133.78)"><path d="m0 0h7.644v10.374h-7.644z" fill="#242934"/></g><g clip-path="url(#C)" transform="translate(258.428 136.454)"><path d="m0 0h7.154v7.714h-7.154z" fill="#242934"/></g><g clip-path="url(#D)" transform="translate(267.29 136.465084)"><path d="m0 0h4.312v7.53491578h-4.312z" fill="#242934"/></g><g clip-path="url(#E)" transform="translate(12.502 50.2)"><path d="m0 0h8.862v9.8h-8.862z" fill="#242934"/></g><g clip-path="url(#F)" transform="translate(22.764 52.51)"><path d="m0 0h6.678v7.644h-6.678z" fill="#242934"/></g><g clip-path="url(#G)" transform="translate(30.814 50.578)"><path d="m0 0h4.62v9.548h-4.62z" fill="#242934"/></g><g clip-path="url(#g)" transform="translate(36.54 52.454)"><path d="m0 0h7.154v7.714h-7.154z" fill="#242934"/></g><g clip-path="url(#H)" transform="translate(49.196 52.454)"><path d="m0 0h7.882v7.714h-7.882z" fill="#242934"/></g><g clip-path="url(#I)" transform="translate(58.24 49.696)"><path d="m0 0h4.578v10.304h-4.578z" fill="#242934"/></g><g clip-path="url(#J)" transform="translate(30.45 63.78)"><path d="m0 0h7.644v10.374h-7.644z" fill="#242934"/></g><g clip-path="url(#K)" transform="translate(39.872 63.864)"><path d="m0 0h1.82v10.136h-1.82z" fill="#242934"/></g><g clip-path="url(#t)" transform="translate(43.848 66.465084)"><path d="m0 0h4.312v7.53491578h-4.312z" fill="#242934"/></g><g clip-path="url(#L)" transform="translate(49.042 64.578)"><path d="m0 0h4.62v9.548h-4.62z" fill="#242934"/></g><g clip-path="url(#M)" transform="translate(55.384 63.78)"><path d="m0 0h6.636v10.22h-6.636z" fill="#242934"/></g><g clip-path="url(#N)" transform="translate(93.684 60.456)"><path d="m0 0h7.32v8.688h-7.32z" fill="#242934"/></g><g clip-path="url(#O)" transform="translate(101.94 60.54)"><path d="m0 0h3.288v8.46h-3.288z" fill="#242934"/></g><g clip-path="url(#P)" transform="translate(106.08 59.424)"><path d="m0 0h6.684v11.112h-6.684z" fill="#242934"/></g><g clip-path="url(#Q)" transform="translate(112.896 60.456)"><path d="m0 0h7.32v8.688h-7.32z" fill="#242934"/></g><g clip-path="url(#O)" transform="translate(121.152 60.54)"><path d="m0 0h3.288v8.46h-3.288z" fill="#242934"/></g><g clip-path="url(#R)" transform="translate(125.292 59.424)"><path d="m0 0h6.684v11.112h-6.684z" fill="#242934"/></g><g clip-path="url(#S)" transform="translate(132.192 60.48)"><path d="m0 0h6.072v8.52h-6.072z" fill="#242934"/></g><g clip-path="url(#T)" transform="translate(139.644 60.456)"><path d="m0 0h7.32v8.688h-7.32z" fill="#242934"/></g><g clip-path="url(#U)" transform="translate(148.332 60.456)"><path d="m0 0h7.32v8.688h-7.32z" fill="#242934"/></g><g clip-path="url(#T)" transform="translate(157.02 60.456)"><path d="m0 0h7.32v8.688h-7.32z" fill="#242934"/></g><g clip-path="url(#V)" transform="translate(93.252 30.6)"><path d="m0 0h5.52v8.52h-5.52z" fill="#242934"/></g><g clip-path="url(#W)" transform="translate(100.212 32.58)"><path d="m0 0h5.724v6.552h-5.724z" fill="#242934"/></g><g clip-path="url(#X)" transform="translate(106.836 32.664)"><path d="m0 0h6.504v8.292h-6.504z" fill="#242934"/></g><g clip-path="url(#Y)" transform="translate(117.984 30.456)"><path d="m0 0h7.68v8.688h-7.68z" fill="#242934"/></g><g clip-path="url(#Z)" transform="translate(127.068 30.312)"><path d="m0 0h1.56v8.688h-1.56z" fill="#242934"/></g><g clip-path="url(#aa)" transform="translate(129.972 30.924)"><path d="m0 0h3.96v8.184h-3.96z" fill="#242934"/></g><g clip-path="url(#Z)" transform="translate(135.432 30.312)"><path d="m0 0h1.56v8.688h-1.56z" fill="#242934"/></g><g clip-path="url(#ab)" transform="translate(138.552 32.664)"><path d="m0 0h5.508v6.336h-5.508z" fill="#242934"/></g><g clip-path="url(#ac)" transform="translate(145.032 32.532)"><path d="m0 0h6.132v6.612h-6.132z" fill="#242934"/></g><g clip-path="url(#ad)" transform="translate(152.628 32.532)"><path d="m0 0h5.688v6.468h-5.688z" fill="#242934"/></g><g clip-path="url(#ae)" transform="translate(90.36 8.54)"><path d="m0 0h8.76v8.46h-8.76z" fill="#242934"/></g><g clip-path="url(#af)" transform="translate(99.95 10.664)"><path d="m0 0h5.7v6.468h-5.7z" fill="#242934"/></g><g clip-path="url(#ag)" transform="translate(106.696 10.556)"><path d="m0 0h5.04v6.564h-5.04z" fill="#242934"/></g><g clip-path="url(#ah)" transform="translate(112.35 8.924)"><path d="m0 0h3.96v8.184h-3.96z" fill="#242934"/></g><g clip-path="url(#ai)" transform="translate(117.536 10.541501)"><path d="m0 0h3.696v6.45849924h-3.696z" fill="#242934"/></g><g clip-path="url(#aj)" transform="translate(121.522 10.58)"><path d="m0 0h5.724v6.552h-5.724z" fill="#242934"/></g><g clip-path="url(#ak)" transform="translate(128.82 8.24)"><path d="m0 0h1.452v8.76h-1.452z" fill="#242934"/></g><g clip-path="url(#al)" transform="translate(131.942 8.312)"><path d="m0 0h1.56v8.688h-1.56z" fill="#242934"/></g><g clip-path="url(#am)" transform="translate(134.68 10.58)"><path d="m0 0h5.724v6.552h-5.724z" fill="#242934"/></g><g clip-path="url(#an)" transform="translate(141.894 10.532)"><path d="m0 0h5.688v6.468h-5.688z" fill="#242934"/></g><g clip-path="url(#ao)" transform="translate(152.23 8.456)"><path d="m0 0h7.68v8.688h-7.68z" fill="#242934"/></g><g clip-path="url(#ap)" transform="translate(160.62 10.58)"><path d="m0 0h5.724v6.552h-5.724z" fill="#242934"/></g><g clip-path="url(#aq)" transform="translate(167.834 10.532)"><path d="m0 0h6.552v8.388h-6.552z" fill="#242934"/></g><g clip-path="url(#ar)" transform="translate(175.66 8.312)"><path d="m0 0h1.56v8.688h-1.56z" fill="#242934"/></g><g clip-path="url(#as)" transform="translate(178.314 8.924)"><path d="m0 0h3.96v8.184h-3.96z" fill="#242934"/></g><g clip-path="url(#at)" transform="translate(183.08 10.58)"><path d="m0 0h5.724v6.552h-5.724z" fill="#242934"/></g><g clip-path="url(#ak)" transform="translate(190.378 8.24)"><path d="m0 0h1.452v8.76h-1.452z" fill="#242934"/></g><g clip-path="url(#au)" transform="translate(196.394 8.6)"><path d="m0 0h6.816v8.4h-6.816z" fill="#242934"/></g><g clip-path="url(#av)" transform="translate(202.636 10.532)"><path d="m0 0h6.132v6.612h-6.132z" fill="#242934"/></g><g clip-path="url(#aw)" transform="translate(209.982 10.541501)"><path d="m0 0h3.696v6.45849924h-3.696z" fill="#242934"/></g><g clip-path="url(#ax)" transform="translate(214.688 10.541501)"><path d="m0 0h3.696v6.45849924h-3.696z" fill="#242934"/></g><g clip-path="url(#al)" transform="translate(219.418 8.312)"><path d="m0 0h1.56v8.688h-1.56z" fill="#242934"/></g><g clip-path="url(#ay)" transform="translate(222.072 8.924)"><path d="m0 0h3.96v8.184h-3.96z" fill="#242934"/></g><g clip-path="url(#az)" transform="translate(226.73 10.532)"><path d="m0 0h6.756v6.612h-6.756z" fill="#242934"/></g><g clip-path="url(#aA)" transform="translate(234.712 10.541501)"><path d="m0 0h3.696v6.45849924h-3.696z" fill="#242934"/></g><g clip-path="url(#aB)" transform="translate(238.818 10.664)"><path d="m0 0h6.504v8.292h-6.504z" fill="#242934"/></g><g clip-path="url(#aC)" transform="translate(93.312 83.54)"><path d="m0 0h3.288v8.46h-3.288z" fill="#242934"/></g><g clip-path="url(#aD)" transform="translate(98.34 83.48)"><path d="m0 0h6.072v8.52h-6.072z" fill="#242934"/></g><g clip-path="url(#aE)" transform="translate(105.624 83.6)"><path d="m0 0h6.156v8.544h-6.156z" fill="#242934"/></g><g clip-path="url(#aF)" transform="translate(112.956 83.54)"><path d="m0 0h7.128v8.46h-7.128z" fill="#242934"/></g><g clip-path="url(#aG)" transform="translate(121.272 83.6)"><path d="m0 0h6.204v8.544h-6.204z" fill="#242934"/></g><g clip-path="url(#aH)" transform="translate(128.868 83.456)"><path d="m0 0h6.48v8.688h-6.48z" fill="#242934"/></g><g clip-path="url(#aI)" transform="translate(136.656 83.6)"><path d="m0 0h5.904v8.4h-5.904z" fill="#242934"/></g><g clip-path="url(#aJ)" transform="translate(143.604 83.48)"><path d="m0 0h6.408v8.64h-6.408z" fill="#242934"/></g><g clip-path="url(#aK)" transform="translate(151.236 83.456)"><path d="m0 0h6.48v8.688h-6.48z" fill="#242934"/></g><g clip-path="url(#aL)" transform="translate(159.084 83.456)"><path d="m0 0h7.32v8.688h-7.32z" fill="#242934"/></g><g clip-path="url(#aM)" transform="matrix(0 -1 1 0 183.54 107.64)"><path d="m0 0h8.76v8.46h-8.76z" fill="#242934"/></g><g clip-path="url(#aN)" transform="matrix(0 -1 1 0 183.54 98.458)"><path d="m0 0h3.288v8.46h-3.288z" fill="#242934"/></g><g clip-path="url(#aO)" transform="matrix(0 -1 1 0 183.48 93.68)"><path d="m0 0h6.072v8.52h-6.072z" fill="#242934"/></g><g clip-path="url(#aP)" transform="matrix(0 -1 1 0 183.6 86.646)"><path d="m0 0h6.156v8.544h-6.156z" fill="#242934"/></g><g clip-path="url(#aQ)" transform="matrix(0 -1 1 0 183.54 79.564)"><path d="m0 0h7.128v8.46h-7.128z" fill="#242934"/></g><g clip-path="url(#aR)" transform="matrix(0 -1 1 0 183.6 71.498)"><path d="m0 0h6.204v8.544h-6.204z" fill="#242934"/></g><g clip-path="url(#aS)" transform="matrix(0 -1 1 0 183.456 64.152)"><path d="m0 0h6.48v8.688h-6.48z" fill="#242934"/></g><g clip-path="url(#aT)" transform="matrix(0 -1 1 0 183.6 56.614)"><path d="m0 0h5.904v8.4h-5.904z" fill="#242934"/></g><g clip-path="url(#aU)" transform="matrix(0 -1 1 0 183.48 49.916)"><path d="m0 0h6.408v8.64h-6.408z" fill="#242934"/></g><g clip-path="url(#aV)" transform="matrix(0 -1 1 0 183.456 42.534)"><path d="m0 0h6.48v8.688h-6.48z" fill="#242934"/></g><g clip-path="url(#aW)" transform="matrix(0 1 -1 0 90 26)"><path d="m0 0h19v19h-19z" fill="#b81236"/></g><g clip-path="url(#aW)" transform="matrix(0 1 -1 0 90 55)"><path d="m0 0h19v19h-19z" fill="#b81236"/></g><g clip-path="url(#aW)" transform="matrix(0 1 -1 0 90 78)"><path d="m0 0h19v19h-19z" fill="#b81236"/></g><g clip-path="url(#aW)" transform="translate(180 111)"><path d="m0 0h19v19h-19z" fill="#b81236"/></g><g transform="translate(195 45)"><g clip-path="url(#aX)"><path d="m0 0h48v50h-48z" fill="#efefef"/></g><g clip-path="url(#aY)" transform="translate(7.388646 8.563319)"><path d="m0 0h35v35h-35z" fill="#8c909b"/></g></g></g></svg>