<svg height="114" viewBox="0 0 335 114" width="335" xmlns="http://www.w3.org/2000/svg" xmlns:xlink="http://www.w3.org/1999/xlink"><clipPath id="a"><path d="m335 0v114h-335v-114z"/></clipPath><clipPath id="b"><path d="m159 0c6.075132 0 11 4.92486775 11 11v92c0 6.075132-4.924868 11-11 11h-148c-6.07513225 0-11-4.924868-11-11v-92c0-6.07513225 4.92486775-11 11-11z"/></clipPath><clipPath id="c"><path d="m170 0v81c0 6.0751322-4.924868 11-11 11h-148c-6.07513225 0-11-4.9248678-11-11v-81z"/></clipPath><clipPath id="d"><path d="m1.596 0 5.25 6.776v-6.776h1.694v9.8h-1.442l-5.404-6.972v6.972h-1.694v-9.8z"/></clipPath><clipPath id="e"><path d="m3.43 0c1.106 0 1.932.294 2.45.826.546.532.798 1.316.798 2.282v4.382h-1.652v-.924c-.504.602-1.274 1.078-2.408 1.078-1.386 0-2.618-.798-2.618-2.282v-.028c0-1.596 1.246-2.38 3.052-2.38.826 0 1.414.126 1.988.308v-.182c0-1.05-.644-1.61-1.834-1.61-.826 0-1.442.182-2.114.462l-.448-1.33c.812-.364 1.61-.602 2.786-.602zm-.042 4.032c-1.092 0-1.736.462-1.736 1.232v.028c0 .714.63 1.12 1.442 1.12 1.12 0 1.974-.644 1.974-1.582v-.504c-.434-.168-1.008-.294-1.68-.294z"/></clipPath><clipPath id="f"><path d="m8.652 0c1.61 0 2.59 1.022 2.59 2.828v4.718h-1.694v-4.2c0-1.176-.546-1.806-1.498-1.806-.924 0-1.582.644-1.582 1.834v4.172h-1.694v-4.214c0-1.148-.56-1.792-1.498-1.792s-1.582.7-1.582 1.834v4.172h-1.694v-7.392h1.694v1.12c.476-.658 1.12-1.274 2.254-1.274 1.064 0 1.82.518 2.212 1.302.588-.784 1.372-1.302 2.492-1.302z"/></clipPath><clipPath id="g"><path d="m3.612 0c2.352 0 3.542 1.848 3.542 3.976 0 .154-.014.308-.028.476h-5.432c.182 1.204 1.036 1.876 2.128 1.876.826 0 1.414-.308 2.002-.882l.994.882c-.7.84-1.666 1.386-3.024 1.386-2.142 0-3.794-1.554-3.794-3.836v-.028c0-2.114 1.498-3.85 3.612-3.85zm-.014 1.386c-1.036 0-1.764.798-1.918 1.946h3.794c-.112-1.092-.756-1.946-1.876-1.946z"/></clipPath><clipPath id="h"><path d="m1.722 0v8.232h5.152v1.568h-6.874v-9.8z"/></clipPath><clipPath id="i"><path d="m1.764 2.744v7.392h-1.694v-7.392zm.056-2.744v1.61h-1.82v-1.61z"/></clipPath><clipPath id="j"><path d="m3.85 0c1.386 0 2.254.518 2.954 1.274l-1.064 1.134c-.518-.546-1.064-.924-1.904-.924-1.232 0-2.142 1.064-2.142 2.352v.028c0 1.316.91 2.366 2.212 2.366.798 0 1.386-.364 1.918-.91l1.022 1.008c-.728.812-1.582 1.386-3.024 1.386-2.198 0-3.822-1.722-3.822-3.822v-.028c0-2.1 1.624-3.864 3.85-3.864z"/></clipPath><clipPath id="k"><path d="m3.612 0c2.352 0 3.542 1.848 3.542 3.976 0 .154-.014.308-.028.476h-5.432c.182 1.204 1.036 1.876 2.128 1.876.826 0 1.414-.308 2.002-.882l.994.882c-.7.84-1.666 1.386-3.024 1.386-2.142 0-3.794-1.554-3.794-3.836v-.028c0-2.114 1.498-3.85 3.612-3.85zm-.014 1.386c-1.036 0-1.764.798-1.918 1.946h3.794c-.112-1.092-.756-1.946-1.876-1.946z"/></clipPath><clipPath id="l"><path d="m4.004 0c1.666 0 2.632 1.12 2.632 2.828v4.718h-1.694v-4.2c0-1.148-.574-1.806-1.582-1.806-.98 0-1.666.686-1.666 1.834v4.172h-1.694v-7.392h1.694v1.134c.476-.686 1.162-1.288 2.31-1.288z"/></clipPath><clipPath id="m"><path d="m3.85 0c1.386 0 2.254.518 2.954 1.274l-1.064 1.134c-.518-.546-1.064-.924-1.904-.924-1.232 0-2.142 1.064-2.142 2.352v.028c0 1.316.91 2.366 2.212 2.366.798 0 1.386-.364 1.918-.91l1.022 1.008c-.728.812-1.582 1.386-3.024 1.386-2.198 0-3.822-1.722-3.822-3.822v-.028c0-2.1 1.624-3.864 3.85-3.864z"/></clipPath><clipPath id="n"><path d="m3.612 0c2.352 0 3.542 1.848 3.542 3.976 0 .154-.014.308-.028.476h-5.432c.182 1.204 1.036 1.876 2.128 1.876.826 0 1.414-.308 2.002-.882l.994.882c-.7.84-1.666 1.386-3.024 1.386-2.142 0-3.794-1.554-3.794-3.836v-.028c0-2.114 1.498-3.85 3.612-3.85zm-.014 1.386c-1.036 0-1.764.798-1.918 1.946h3.794c-.112-1.092-.756-1.946-1.876-1.946z"/></clipPath><clipPath id="o"><path d="m4.004 0c1.666 0 2.632 1.12 2.632 2.828v4.718h-1.694v-4.2c0-1.148-.574-1.806-1.582-1.806-.98 0-1.666.686-1.666 1.834v4.172h-1.694v-7.392h1.694v1.134c.476-.686 1.162-1.288 2.31-1.288z"/></clipPath><clipPath id="p"><path d="m1.694 0v4.2c0 1.148.574 1.792 1.582 1.792.98 0 1.666-.672 1.666-1.82v-4.172h1.708v7.392h-1.708v-1.148c-.476.7-1.162 1.302-2.31 1.302-1.666 0-2.632-1.12-2.632-2.842v-4.704z"/></clipPath><clipPath id="q"><path d="m8.652 0c1.61 0 2.59 1.022 2.59 2.828v4.718h-1.694v-4.2c0-1.176-.546-1.806-1.498-1.806-.924 0-1.582.644-1.582 1.834v4.172h-1.694v-4.214c0-1.148-.56-1.792-1.498-1.792s-1.582.7-1.582 1.834v4.172h-1.694v-7.392h1.694v1.12c.476-.658 1.12-1.274 2.254-1.274 1.064 0 1.82.518 2.212 1.302.588-.784 1.372-1.302 2.492-1.302z"/></clipPath><clipPath id="r"><path d="m1.694 0v4.06c.546-.77 1.316-1.386 2.52-1.386 1.736 0 3.43 1.372 3.43 3.836v.028c0 2.45-1.68 3.836-3.43 3.836-1.232 0-2.002-.616-2.52-1.302v1.148h-1.694v-10.22zm2.114 4.144c-1.148 0-2.156.952-2.156 2.366v.028c0 1.414 1.008 2.366 2.156 2.366 1.162 0 2.114-.91 2.114-2.366v-.028c0-1.428-.966-2.366-2.114-2.366z"/></clipPath><clipPath id="s"><path d="m3.612 0c2.352 0 3.542 1.848 3.542 3.976 0 .154-.014.308-.028.476h-5.432c.182 1.204 1.036 1.876 2.128 1.876.826 0 1.414-.308 2.002-.882l.994.882c-.7.84-1.666 1.386-3.024 1.386-2.142 0-3.794-1.554-3.794-3.836v-.028c0-2.114 1.498-3.85 3.612-3.85zm-.014 1.386c-1.036 0-1.764.798-1.918 1.946h3.794c-.112-1.092-.756-1.946-1.876-1.946z"/></clipPath><clipPath id="t"><path d="m4.11013588.00075424.20186412.00216154v1.792h-.098c-1.484 0-2.52.966-2.52 2.926v2.814h-1.694v-7.392h1.694v1.666c.462-1.106 1.316-1.862 2.618-1.806z"/></clipPath><clipPath id="u"><path d="m3.654 0c3.08 0 5.208 2.114 5.208 4.872v.028c0 2.758-2.128 4.9-5.208 4.9h-3.654v-9.8zm0 1.568h-1.932v6.664h1.932c2.058 0 3.402-1.386 3.402-3.304v-.028c0-1.918-1.344-3.332-3.402-3.332z"/></clipPath><clipPath id="v"><path d="m3.43 0c1.106 0 1.932.294 2.45.826.546.532.798 1.316.798 2.282v4.382h-1.652v-.924c-.504.602-1.274 1.078-2.408 1.078-1.386 0-2.618-.798-2.618-2.282v-.028c0-1.596 1.246-2.38 3.052-2.38.826 0 1.414.126 1.988.308v-.182c0-1.05-.644-1.61-1.834-1.61-.826 0-1.442.182-2.114.462l-.448-1.33c.812-.364 1.61-.602 2.786-.602zm-.042 4.032c-1.092 0-1.736.462-1.736 1.232v.028c0 .714.63 1.12 1.442 1.12 1.12 0 1.974-.644 1.974-1.582v-.504c-.434-.168-1.008-.294-1.68-.294z"/></clipPath><clipPath id="w"><path d="m2.632 0v2.03h1.988v1.456h-1.988v3.626c0 .658.336.924.91.924.378 0 .714-.084 1.05-.252v1.386c-.42.238-.882.378-1.526.378-1.246 0-2.128-.546-2.128-2.17v-3.892h-.938v-1.456h.938v-2.03z"/></clipPath><clipPath id="x"><path d="m3.612 0c2.352 0 3.542 1.848 3.542 3.976 0 .154-.014.308-.028.476h-5.432c.182 1.204 1.036 1.876 2.128 1.876.826 0 1.414-.308 2.002-.882l.994.882c-.7.84-1.666 1.386-3.024 1.386-2.142 0-3.794-1.554-3.794-3.836v-.028c0-2.114 1.498-3.85 3.612-3.85zm-.014 1.386c-1.036 0-1.764.798-1.918 1.946h3.794c-.112-1.092-.756-1.946-1.876-1.946z"/></clipPath><clipPath id="y"><path d="m3.948 0c2.268 0 3.934 1.722 3.934 3.836v.028c0 2.1-1.68 3.85-3.962 3.85-2.254 0-3.92-1.722-3.92-3.822v-.028c0-2.114 1.68-3.864 3.948-3.864zm-.028 1.484c-1.358 0-2.226 1.064-2.226 2.352v.028c0 1.288.938 2.366 2.254 2.366 1.372 0 2.24-1.064 2.24-2.338v-.028c0-1.302-.938-2.38-2.268-2.38z"/></clipPath><clipPath id="z"><path d="m3.206 0c.588 0 .994.084 1.372.196v1.428c-.336-.112-.63-.182-.994-.182-.644 0-.98.35-.98 1.12v.406h1.96v1.4h-1.932v5.936h-1.694v-5.936h-.938v-1.414h.938v-.546c0-.812.21-1.428.602-1.82s.938-.588 1.666-.588z"/></clipPath><clipPath id="A"><path d="m1.694 0v4.06c.546-.77 1.316-1.386 2.52-1.386 1.736 0 3.43 1.372 3.43 3.836v.028c0 2.45-1.68 3.836-3.43 3.836-1.232 0-2.002-.616-2.52-1.302v1.148h-1.694v-10.22zm2.114 4.144c-1.148 0-2.156.952-2.156 2.366v.028c0 1.414 1.008 2.366 2.156 2.366 1.162 0 2.114-.91 2.114-2.366v-.028c0-1.428-.966-2.366-2.114-2.366z"/></clipPath><clipPath id="B"><path d="m1.764 2.744v7.392h-1.694v-7.392zm.056-2.744v1.61h-1.82v-1.61z"/></clipPath><clipPath id="C"><path d="m4.11013588.00075424.20186412.00216154v1.792h-.098c-1.484 0-2.52.966-2.52 2.926v2.814h-1.694v-7.392h1.694v1.666c.462-1.106 1.316-1.862 2.618-1.806z"/></clipPath><clipPath id="D"><path d="m2.632 0v2.03h1.988v1.456h-1.988v3.626c0 .658.336.924.91.924.378 0 .714-.084 1.05-.252v1.386c-.42.238-.882.378-1.526.378-1.246 0-2.128-.546-2.128-2.17v-3.892h-.938v-1.456h.938v-2.03z"/></clipPath><clipPath id="E"><path d="m1.694 0v3.962c.476-.686 1.162-1.288 2.31-1.288 1.666 0 2.632 1.12 2.632 2.828v4.718h-1.694v-4.2c0-1.148-.574-1.806-1.582-1.806-.98 0-1.666.686-1.666 1.834v4.172h-1.694v-10.22z"/></clipPath><clipPath id="F"><path d="m3.672 0c2.196 0 3.648 1.92 3.648 4.32v.024c0 2.4-1.464 4.344-3.672 4.344s-3.648-1.92-3.648-4.32v-.024c0-2.4 1.464-4.344 3.672-4.344zm-.024 1.332c-1.296 0-2.124 1.32-2.124 2.988v.024c0 1.656.84 3.012 2.148 3.012s2.124-1.344 2.124-2.988v-.024c0-1.656-.852-3.012-2.148-3.012z"/></clipPath><clipPath id="G"><path d="m3.288 0v8.46h-1.464v-6.96l-1.512.42-.312-1.2 2.268-.72z"/></clipPath><clipPath id="H"><path d="m6.684 0-5.424 11.112h-1.26l5.424-11.112z"/></clipPath><clipPath id="I"><path d="m3.672 0c2.196 0 3.648 1.92 3.648 4.32v.024c0 2.4-1.464 4.344-3.672 4.344s-3.648-1.92-3.648-4.32v-.024c0-2.4 1.464-4.344 3.672-4.344zm-.024 1.332c-1.296 0-2.124 1.32-2.124 2.988v.024c0 1.656.84 3.012 2.148 3.012s2.124-1.344 2.124-2.988v-.024c0-1.656-.852-3.012-2.148-3.012z"/></clipPath><clipPath id="J"><path d="m3.288 0v8.46h-1.464v-6.96l-1.512.42-.312-1.2 2.268-.72z"/></clipPath><clipPath id="K"><path d="m6.684 0-5.424 11.112h-1.26l5.424-11.112z"/></clipPath><clipPath id="L"><path d="m3.216 0c1.644 0 2.772 1.008 2.772 2.508v.024c0 1.32-.696 2.04-2.184 3.252l-1.728 1.44h3.996v1.296h-6.072v-1.164l2.892-2.46c1.152-.984 1.572-1.512 1.572-2.268 0-.828-.588-1.308-1.356-1.308s-1.296.42-1.932 1.26l-1.056-.828c.804-1.116 1.596-1.752 3.096-1.752z"/></clipPath><clipPath id="M"><path d="m3.672 0c2.196 0 3.648 1.92 3.648 4.32v.024c0 2.4-1.464 4.344-3.672 4.344s-3.648-1.92-3.648-4.32v-.024c0-2.4 1.464-4.344 3.672-4.344zm-.024 1.332c-1.296 0-2.124 1.32-2.124 2.988v.024c0 1.656.84 3.012 2.148 3.012s2.124-1.344 2.124-2.988v-.024c0-1.656-.852-3.012-2.148-3.012z"/></clipPath><clipPath id="N"><path d="m3.672 0c2.196 0 3.648 1.92 3.648 4.32v.024c0 2.4-1.464 4.344-3.672 4.344s-3.648-1.92-3.648-4.32v-.024c0-2.4 1.464-4.344 3.672-4.344zm-.024 1.332c-1.296 0-2.124 1.32-2.124 2.988v.024c0 1.656.84 3.012 2.148 3.012s2.124-1.344 2.124-2.988v-.024c0-1.656-.852-3.012-2.148-3.012z"/></clipPath><clipPath id="O"><path d="m3.288 0v8.46h-1.464v-6.96l-1.512.42-.312-1.2 2.268-.72z"/></clipPath><clipPath id="P"><path d="m3.216 0c1.644 0 2.772 1.008 2.772 2.508v.024c0 1.32-.696 2.04-2.184 3.252l-1.728 1.44h3.996v1.296h-6.072v-1.164l2.892-2.46c1.152-.984 1.572-1.512 1.572-2.268 0-.828-.588-1.308-1.356-1.308s-1.296.42-1.932 1.26l-1.056-.828c.804-1.116 1.596-1.752 3.096-1.752z"/></clipPath><clipPath id="Q"><path d="m6.024 0v1.104l-2.34 2.4c1.272.156 2.472.804 2.472 2.352v.024c0 1.548-1.188 2.664-2.94 2.664-1.464 0-2.508-.612-3.216-1.476l1.032-.96c.6.708 1.272 1.104 2.208 1.104.828 0 1.452-.504 1.452-1.272v-.024c0-.828-.756-1.296-1.932-1.296h-.684l-.24-.924 2.268-2.412h-3.636v-1.284z"/></clipPath><clipPath id="R"><path d="m5.928 0v5.364h1.2v1.212h-1.2v1.884h-1.416v-1.884h-4.236l-.276-1.056 4.668-5.52zm-1.416 2.04-2.76 3.324h2.76z"/></clipPath><clipPath id="S"><path d="m5.832 0v1.308h-3.756l-.132 1.968c.396-.144.768-.24 1.332-.24 1.632 0 2.928.864 2.928 2.64v.024c0 1.716-1.26 2.844-3.12 2.844-1.284 0-2.292-.516-3.084-1.284l.912-1.068c.672.624 1.38 1.008 2.16 1.008 1.008 0 1.668-.576 1.668-1.452v-.024c0-.852-.72-1.392-1.74-1.392-.6 0-1.116.168-1.548.372l-.888-.588.24-4.116z"/></clipPath><clipPath id="T"><path d="m3.6 0c1.092 0 1.836.348 2.568.936l-.792 1.14c-.588-.456-1.08-.732-1.824-.732-1.464 0-1.992 1.524-2.016 2.676.492-.516 1.116-.852 2.016-.852 1.62 0 2.928.96 2.928 2.64v.024c0 1.668-1.356 2.856-3.12 2.856-1.032 0-1.776-.324-2.34-.888-.636-.636-1.02-1.512-1.02-3.204v-.024c0-2.568 1.224-4.572 3.6-4.572zm-.312 4.404c-1.044 0-1.704.672-1.704 1.476v.024c0 .852.696 1.5 1.74 1.5s1.68-.648 1.68-1.512v-.024c0-.84-.672-1.464-1.716-1.464z"/></clipPath><clipPath id="U"><path d="m5.904 0v1.116l-3.78 7.284h-1.668l3.768-7.104h-4.224v-1.296z"/></clipPath><clipPath id="V"><path d="m5.52 0v5.544c0 .996-.3 1.74-.792 2.232s-1.2.744-2.04.744c-1.296 0-2.136-.6-2.688-1.356l.972-1.008c.492.636.984.996 1.692.996.792 0 1.332-.528 1.332-1.656v-5.496z"/></clipPath><clipPath id="W"><path d="m2.94 0c.948 0 1.656.252 2.1.708.468.456.684 1.128.684 1.956v3.756h-1.416v-.792c-.432.516-1.092.924-2.064.924-1.188 0-2.244-.684-2.244-1.956v-.024c0-1.368 1.068-2.04 2.616-2.04.708 0 1.212.108 1.704.264v-.156c0-.9-.552-1.38-1.572-1.38-.708 0-1.236.156-1.812.396l-.384-1.14c.696-.312 1.38-.516 2.388-.516zm-.036 3.456c-.936 0-1.488.396-1.488 1.056v.024c0 .612.54.96 1.236.96.96 0 1.692-.552 1.692-1.356v-.432c-.372-.144-.864-.252-1.44-.252z"/></clipPath><clipPath id="X"><path d="m1.56 0 1.788 4.704 1.644-4.704h1.512l-2.52 6.516c-.504 1.296-1.068 1.776-2.088 1.776-.6 0-1.056-.144-1.5-.384l.492-1.08c.264.144.552.24.852.24.408 0 .66-.18.9-.72l-2.64-6.348z"/></clipPath><clipPath id="Y"><path d="m4.332 0c1.548 0 2.484.54 3.288 1.308l-.948 1.092c-.672-.624-1.392-1.044-2.352-1.044-1.596 0-2.772 1.32-2.772 2.964v.024c0 1.644 1.164 2.976 2.772 2.976 1.032 0 1.692-.408 2.412-1.08l.948.96c-.876.912-1.836 1.488-3.408 1.488-2.448 0-4.272-1.908-4.272-4.32v-.024c0-2.388 1.788-4.344 4.332-4.344z"/></clipPath><clipPath id="Z"><path d="m1.512 2.352v6.336h-1.452v-6.336zm.048-2.352v1.38h-1.56v-1.38z"/></clipPath><clipPath id="aa"><path d="m2.256 0v1.74h1.704v1.248h-1.704v3.108c0 .564.288.792.78.792.324 0 .612-.072.9-.216v1.188c-.36.204-.756.324-1.308.324-1.068 0-1.824-.468-1.824-1.86v-3.336h-.804v-1.248h.804v-1.74z"/></clipPath><clipPath id="ab"><path d="m5.508 0v.996l-3.66 4.152h3.66v1.188h-5.508v-.996l3.66-4.152h-3.528v-1.188z"/></clipPath><clipPath id="ac"><path d="m3.096 0c2.016 0 3.036 1.584 3.036 3.408 0 .132-.012.264-.024.408h-4.656c.156 1.032.888 1.608 1.824 1.608.708 0 1.212-.264 1.716-.756l.852.756c-.6.72-1.428 1.188-2.592 1.188-1.836 0-3.252-1.332-3.252-3.288v-.024c0-1.812 1.284-3.3 3.096-3.3zm-.012 1.188c-.888 0-1.512.684-1.644 1.668h3.252c-.096-.936-.648-1.668-1.608-1.668z"/></clipPath><clipPath id="ad"><path d="m3.432 0c1.428 0 2.256.96 2.256 2.424v4.044h-1.452v-3.6c0-.984-.492-1.548-1.356-1.548-.84 0-1.428.588-1.428 1.572v3.576h-1.452v-6.336h1.452v.972c.408-.588.996-1.104 1.98-1.104z"/></clipPath><clipPath id="ae"><path d="m8 0 8 16h-16z"/></clipPath><clipPath id="af"><path d="m44 0v50h-44v-50z"/></clipPath><clipPath id="ag"><path d="m16.5 0c4.6944204 0 8.5 3.80557963 8.5 8.5 0 3.5946495-2.2313616 6.6681365-5.3845373 7.9109136 7.0953009 1.6382724 12.3845373 7.9959957 12.3845373 15.5890864v1h-32v-1c0-7.8298198 5.62418161-14.3460416 13.0530599-15.7291804-2.9770301-1.3211511-5.0530599-4.303544-5.0530599-7.7708196 0-4.69442037 3.8055796-8.5 8.5-8.5z"/></clipPath><clipPath id="ah"><path d="m6.912 0 2.064 6.252 2.004-6.228h1.548l-2.916 8.46h-1.284l-2.064-6.036-2.064 6.036h-1.272l-2.928-8.46h1.596l2.004 6.228 2.064-6.252z"/></clipPath><clipPath id="ai"><path d="m3.096 0c2.016 0 3.036 1.584 3.036 3.408 0 .132-.012.264-.024.408h-4.656c.156 1.032.888 1.608 1.824 1.608.708 0 1.212-.264 1.716-.756l.852.756c-.6.72-1.428 1.188-2.592 1.188-1.836 0-3.252-1.332-3.252-3.288v-.024c0-1.812 1.284-3.3 3.096-3.3zm-.012 1.188c-.888 0-1.512.684-1.644 1.668h3.252c-.096-.936-.648-1.668-1.608-1.668z"/></clipPath><clipPath id="aj"><path d="m2.568 0c.792 0 1.656.276 2.328.72l-.576 1.032c-.612-.372-1.26-.6-1.788-.6-.564 0-.888.264-.888.624v.024c0 .468.684.66 1.428.9.924.288 1.968.708 1.968 1.848v.024c0 1.332-1.032 1.992-2.352 1.992-.9 0-1.896-.324-2.688-.948l.648-.984c.696.516 1.428.78 2.076.78.624 0 .984-.264.984-.684v-.024c0-.492-.672-.66-1.416-.888-.936-.264-1.98-.648-1.98-1.86v-.024c0-1.2.996-1.932 2.256-1.932z"/></clipPath><clipPath id="ak"><path d="m2.256 0v1.74h1.704v1.248h-1.704v3.108c0 .564.288.792.78.792.324 0 .612-.072.9-.216v1.188c-.36.204-.756.324-1.308.324-1.068 0-1.824-.468-1.824-1.86v-3.336h-.804v-1.248h.804v-1.74z"/></clipPath><clipPath id="al"><path d="m3.096 0c2.016 0 3.036 1.584 3.036 3.408 0 .132-.012.264-.024.408h-4.656c.156 1.032.888 1.608 1.824 1.608.708 0 1.212-.264 1.716-.756l.852.756c-.6.72-1.428 1.188-2.592 1.188-1.836 0-3.252-1.332-3.252-3.288v-.024c0-1.812 1.284-3.3 3.096-3.3zm-.012 1.188c-.888 0-1.512.684-1.644 1.668h3.252c-.096-.936-.648-1.668-1.608-1.668z"/></clipPath><clipPath id="am"><path d="m3.50303521.00117296.19296479.00132628v1.536h-.084c-1.272 0-2.16.828-2.16 2.508v2.412h-1.452v-6.336h1.452v1.428c.396-.948 1.128-1.596 2.244-1.548z"/></clipPath><clipPath id="an"><path d="m3.432 0c1.428 0 2.256.96 2.256 2.424v4.044h-1.452v-3.6c0-.984-.492-1.548-1.356-1.548-.84 0-1.428.588-1.428 1.572v3.576h-1.452v-6.336h1.452v.972c.408-.588.996-1.104 1.98-1.104z"/></clipPath><clipPath id="ao"><path d="m5.064 0 3.696 8.46h-1.56l-.852-2.028h-3.972l-.864 2.028h-1.512l3.696-8.46zm-.708 1.764-1.44 3.36h2.892z"/></clipPath><clipPath id="ap"><path d="m1.452 0v3.6c0 .984.492 1.536 1.356 1.536.84 0 1.428-.576 1.428-1.56v-3.576h1.464v6.336h-1.464v-.984c-.408.6-.996 1.116-1.98 1.116-1.428 0-2.256-.96-2.256-2.436v-4.032z"/></clipPath><clipPath id="aq"><path d="m2.568 0c.792 0 1.656.276 2.328.72l-.576 1.032c-.612-.372-1.26-.6-1.788-.6-.564 0-.888.264-.888.624v.024c0 .468.684.66 1.428.9.924.288 1.968.708 1.968 1.848v.024c0 1.332-1.032 1.992-2.352 1.992-.9 0-1.896-.324-2.688-.948l.648-.984c.696.516 1.428.78 2.076.78.624 0 .984-.264.984-.684v-.024c0-.492-.672-.66-1.416-.888-.936-.264-1.98-.648-1.98-1.86v-.024c0-1.2.996-1.932 2.256-1.932z"/></clipPath><clipPath id="ar"><path d="m2.256 0v1.74h1.704v1.248h-1.704v3.108c0 .564.288.792.78.792.324 0 .612-.072.9-.216v1.188c-.36.204-.756.324-1.308.324-1.068 0-1.824-.468-1.824-1.86v-3.336h-.804v-1.248h.804v-1.74z"/></clipPath><clipPath id="as"><path d="m2.94 0c.948 0 1.656.252 2.1.708.468.456.684 1.128.684 1.956v3.756h-1.416v-.792c-.432.516-1.092.924-2.064.924-1.188 0-2.244-.684-2.244-1.956v-.024c0-1.368 1.068-2.04 2.616-2.04.708 0 1.212.108 1.704.264v-.156c0-.9-.552-1.38-1.572-1.38-.708 0-1.236.156-1.812.396l-.384-1.14c.696-.312 1.38-.516 2.388-.516zm-.036 3.456c-.936 0-1.488.396-1.488 1.056v.024c0 .612.54.96 1.236.96.96 0 1.692-.552 1.692-1.356v-.432c-.372-.144-.864-.252-1.44-.252z"/></clipPath><clipPath id="at"><path d="m1.452 0v8.76h-1.452v-8.76z"/></clipPath><clipPath id="au"><path d="m1.512 2.352v6.336h-1.452v-6.336zm.048-2.352v1.38h-1.56v-1.38z"/></clipPath><clipPath id="av"><path d="m2.94 0c.948 0 1.656.252 2.1.708.468.456.684 1.128.684 1.956v3.756h-1.416v-.792c-.432.516-1.092.924-2.064.924-1.188 0-2.244-.684-2.244-1.956v-.024c0-1.368 1.068-2.04 2.616-2.04.708 0 1.212.108 1.704.264v-.156c0-.9-.552-1.38-1.572-1.38-.708 0-1.236.156-1.812.396l-.384-1.14c.696-.312 1.38-.516 2.388-.516zm-.036 3.456c-.936 0-1.488.396-1.488 1.056v.024c0 .612.54.96 1.236.96.96 0 1.692-.552 1.692-1.356v-.432c-.372-.144-.864-.252-1.44-.252z"/></clipPath><g clip-path="url(#a)"><g transform="translate(82)"><g clip-path="url(#b)"><path d="m0 0h170v114h-170z" fill="#a7bad5"/></g><g clip-path="url(#c)" transform="translate(0 22)"><path d="m0 0h170v92h-170z" fill="#f3ecd7"/></g></g><g transform="translate(23.26 28.2)"><g clip-path="url(#d)"><path d="m0 0h8.54v9.8h-8.54z" fill="#242934"/></g><g clip-path="url(#e)" transform="translate(10.374 2.31)"><path d="m0 0h6.678v7.644h-6.678z" fill="#242934"/></g><g clip-path="url(#f)" transform="translate(19.082 2.254)"><path d="m0 0h11.242v7.546h-11.242z" fill="#242934"/></g><g clip-path="url(#g)" transform="translate(31.976 2.254)"><path d="m0 0h7.154v7.714h-7.154z" fill="#242934"/></g></g><g clip-path="url(#h)" transform="translate(271.26 22.2)"><path d="m0 0h6.874v9.8h-6.874z" fill="#242934"/></g><g clip-path="url(#i)" transform="translate(279.758 21.864)"><path d="m0 0h1.82v10.136h-1.82z" fill="#242934"/></g><g clip-path="url(#j)" transform="translate(283.328 24.454)"><path d="m0 0h6.846v7.714h-6.846z" fill="#242934"/></g><g clip-path="url(#k)" transform="translate(291.112 24.454)"><path d="m0 0h7.154v7.714h-7.154z" fill="#242934"/></g><g clip-path="url(#l)" transform="translate(299.974 24.454)"><path d="m0 0h6.636v7.546h-6.636z" fill="#242934"/></g><g clip-path="url(#m)" transform="translate(308.248 24.454)"><path d="m0 0h6.846v7.714h-6.846z" fill="#242934"/></g><g clip-path="url(#n)" transform="translate(316.032 24.454)"><path d="m0 0h7.154v7.714h-7.154z" fill="#242934"/></g><g clip-path="url(#o)" transform="translate(271.064 38.454)"><path d="m0 0h6.636v7.546h-6.636z" fill="#242934"/></g><g clip-path="url(#p)" transform="translate(279.66 38.608)"><path d="m0 0h6.65v7.546h-6.65z" fill="#242934"/></g><g clip-path="url(#q)" transform="translate(288.424 38.454)"><path d="m0 0h11.242v7.546h-11.242z" fill="#242934"/></g><g clip-path="url(#r)" transform="translate(301.724 35.78)"><path d="m0 0h7.644v10.374h-7.644z" fill="#242934"/></g><g clip-path="url(#s)" transform="translate(310.712 38.454)"><path d="m0 0h7.154v7.714h-7.154z" fill="#242934"/></g><g clip-path="url(#t)" transform="translate(319.574 38.465084)"><path d="m0 0h4.312v7.53491578h-4.312z" fill="#242934"/></g><g clip-path="url(#u)" transform="translate(13.502 62.2)"><path d="m0 0h8.862v9.8h-8.862z" fill="#242934"/></g><g clip-path="url(#v)" transform="translate(23.764 64.51)"><path d="m0 0h6.678v7.644h-6.678z" fill="#242934"/></g><g clip-path="url(#w)" transform="translate(31.814 62.578)"><path d="m0 0h4.62v9.548h-4.62z" fill="#242934"/></g><g clip-path="url(#x)" transform="translate(37.54 64.454)"><path d="m0 0h7.154v7.714h-7.154z" fill="#242934"/></g><g clip-path="url(#y)" transform="translate(50.196 64.454)"><path d="m0 0h7.882v7.714h-7.882z" fill="#242934"/></g><g clip-path="url(#z)" transform="translate(59.24 61.696)"><path d="m0 0h4.578v10.304h-4.578z" fill="#242934"/></g><g clip-path="url(#A)" transform="translate(31.45 75.78)"><path d="m0 0h7.644v10.374h-7.644z" fill="#242934"/></g><g clip-path="url(#B)" transform="translate(40.872 75.864)"><path d="m0 0h1.82v10.136h-1.82z" fill="#242934"/></g><g clip-path="url(#C)" transform="translate(44.848 78.465084)"><path d="m0 0h4.312v7.53491578h-4.312z" fill="#242934"/></g><g clip-path="url(#D)" transform="translate(50.042 76.578)"><path d="m0 0h4.62v9.548h-4.62z" fill="#242934"/></g><g clip-path="url(#E)" transform="translate(56.384 75.78)"><path d="m0 0h6.636v10.22h-6.636z" fill="#242934"/></g><g clip-path="url(#F)" transform="translate(124.684 67.456)"><path d="m0 0h7.32v8.688h-7.32z" fill="#242934"/></g><g clip-path="url(#G)" transform="translate(132.94 67.54)"><path d="m0 0h3.288v8.46h-3.288z" fill="#242934"/></g><g clip-path="url(#H)" transform="translate(137.08 66.424)"><path d="m0 0h6.684v11.112h-6.684z" fill="#242934"/></g><g clip-path="url(#I)" transform="translate(143.896 67.456)"><path d="m0 0h7.32v8.688h-7.32z" fill="#242934"/></g><g clip-path="url(#J)" transform="translate(152.152 67.54)"><path d="m0 0h3.288v8.46h-3.288z" fill="#242934"/></g><g clip-path="url(#K)" transform="translate(156.292 66.424)"><path d="m0 0h6.684v11.112h-6.684z" fill="#242934"/></g><g clip-path="url(#L)" transform="translate(163.192 67.48)"><path d="m0 0h6.072v8.52h-6.072z" fill="#242934"/></g><g clip-path="url(#M)" transform="translate(170.644 67.456)"><path d="m0 0h7.32v8.688h-7.32z" fill="#242934"/></g><g clip-path="url(#N)" transform="translate(179.332 67.456)"><path d="m0 0h7.32v8.688h-7.32z" fill="#242934"/></g><g clip-path="url(#M)" transform="translate(188.02 67.456)"><path d="m0 0h7.32v8.688h-7.32z" fill="#242934"/></g><g clip-path="url(#O)" transform="translate(191.312 29.54)"><path d="m0 0h3.288v8.46h-3.288z" fill="#242934"/></g><g clip-path="url(#P)" transform="translate(196.34 29.48)"><path d="m0 0h6.072v8.52h-6.072z" fill="#242934"/></g><g clip-path="url(#Q)" transform="translate(203.624 29.6)"><path d="m0 0h6.156v8.544h-6.156z" fill="#242934"/></g><g clip-path="url(#R)" transform="translate(210.956 29.54)"><path d="m0 0h7.128v8.46h-7.128z" fill="#242934"/></g><g clip-path="url(#S)" transform="translate(219.272 29.6)"><path d="m0 0h6.204v8.544h-6.204z" fill="#242934"/></g><g clip-path="url(#T)" transform="translate(226.868 29.456)"><path d="m0 0h6.48v8.688h-6.48z" fill="#242934"/></g><g clip-path="url(#U)" transform="translate(234.656 29.6)"><path d="m0 0h5.904v8.4h-5.904z" fill="#242934"/></g><g clip-path="url(#V)" transform="translate(92.252 29.6)"><path d="m0 0h5.52v8.52h-5.52z" fill="#242934"/></g><g clip-path="url(#W)" transform="translate(99.212 31.58)"><path d="m0 0h5.724v6.552h-5.724z" fill="#242934"/></g><g clip-path="url(#X)" transform="translate(105.836 31.664)"><path d="m0 0h6.504v8.292h-6.504z" fill="#242934"/></g><g clip-path="url(#Y)" transform="translate(116.984 29.456)"><path d="m0 0h7.68v8.688h-7.68z" fill="#242934"/></g><g clip-path="url(#Z)" transform="translate(126.068 29.312)"><path d="m0 0h1.56v8.688h-1.56z" fill="#242934"/></g><g clip-path="url(#aa)" transform="translate(128.972 29.924)"><path d="m0 0h3.96v8.184h-3.96z" fill="#242934"/></g><g clip-path="url(#Z)" transform="translate(134.432 29.312)"><path d="m0 0h1.56v8.688h-1.56z" fill="#242934"/></g><g clip-path="url(#ab)" transform="translate(137.552 31.664)"><path d="m0 0h5.508v6.336h-5.508z" fill="#242934"/></g><g clip-path="url(#ac)" transform="translate(144.032 31.532)"><path d="m0 0h6.132v6.612h-6.132z" fill="#242934"/></g><g clip-path="url(#ad)" transform="translate(151.628 31.532)"><path d="m0 0h5.688v6.468h-5.688z" fill="#242934"/></g><g clip-path="url(#ae)" transform="matrix(0 1 -1 0 88 26)"><path d="m0 0h16v16h-16z" fill="#b81236"/></g><g clip-path="url(#ae)" transform="matrix(0 1 -1 0 88 64)"><path d="m0 0h16v16h-16z" fill="#b81236"/></g><g clip-path="url(#ae)" transform="matrix(0 -1 1 0 246 42)"><path d="m0 0h16v16h-16z" fill="#b81236"/></g><g clip-path="url(#af)" transform="translate(198 45)"><path d="m0 0h44v50h-44z" fill="#f6f6f6"/></g><g clip-path="url(#ag)" transform="translate(204 54)"><path d="m0 0h32v33h-32z" fill="#8c909b"/></g><g clip-path="url(#ah)" transform="translate(114.432 6.576)"><path d="m0 0h12.528v8.484h-12.528z" fill="#242934"/></g><g clip-path="url(#ai)" transform="translate(127.176 8.532)"><path d="m0 0h6.132v6.612h-6.132z" fill="#242934"/></g><g clip-path="url(#aj)" transform="translate(134.256 8.556)"><path d="m0 0h5.04v6.564h-5.04z" fill="#242934"/></g><g clip-path="url(#ak)" transform="translate(140.16 6.924)"><path d="m0 0h3.96v8.184h-3.96z" fill="#242934"/></g><g clip-path="url(#al)" transform="translate(145.068 8.532)"><path d="m0 0h6.132v6.612h-6.132z" fill="#242934"/></g><g clip-path="url(#am)" transform="translate(152.664 8.541501)"><path d="m0 0h3.696v6.45849924h-3.696z" fill="#242934"/></g><g clip-path="url(#an)" transform="translate(157.62 8.532)"><path d="m0 0h5.688v6.468h-5.688z" fill="#242934"/></g><g clip-path="url(#ao)" transform="translate(168.108 6.54)"><path d="m0 0h8.76v8.46h-8.76z" fill="#242934"/></g><g clip-path="url(#ap)" transform="translate(177.948 8.664)"><path d="m0 0h5.7v6.468h-5.7z" fill="#242934"/></g><g clip-path="url(#aq)" transform="translate(184.944 8.556)"><path d="m0 0h5.04v6.564h-5.04z" fill="#242934"/></g><g clip-path="url(#ar)" transform="translate(190.848 6.924)"><path d="m0 0h3.96v8.184h-3.96z" fill="#242934"/></g><g clip-path="url(#am)" transform="translate(196.284 8.541501)"><path d="m0 0h3.696v6.45849924h-3.696z" fill="#242934"/></g><g clip-path="url(#as)" transform="translate(200.52 8.58)"><path d="m0 0h5.724v6.552h-5.724z" fill="#242934"/></g><g clip-path="url(#at)" transform="translate(208.068 6.24)"><path d="m0 0h1.452v8.76h-1.452z" fill="#242934"/></g><g clip-path="url(#au)" transform="translate(211.44 6.312)"><path d="m0 0h1.56v8.688h-1.56z" fill="#242934"/></g><g clip-path="url(#av)" transform="translate(214.428 8.58)"><path d="m0 0h5.724v6.552h-5.724z" fill="#242934"/></g></g></svg>