<svg height="114" viewBox="0 0 335 114" width="335" xmlns="http://www.w3.org/2000/svg" xmlns:xlink="http://www.w3.org/1999/xlink"><clipPath id="a"><path d="m335 0v114h-335v-114z"/></clipPath><clipPath id="b"><path d="m159 0c6.075132 0 11 4.92486775 11 11v92c0 6.075132-4.924868 11-11 11h-148c-6.07513225 0-11-4.924868-11-11v-92c0-6.07513225 4.92486775-11 11-11z"/></clipPath><clipPath id="c"><path d="m1.834 0 2.982 4.634 2.982-4.634h1.834v9.8h-1.722v-7.028l-3.094 4.62h-.056l-3.066-4.592v7h-1.694v-9.8z"/></clipPath><clipPath id="d"><path d="m3.612 0c2.352 0 3.542 1.848 3.542 3.976 0 .154-.014.308-.028.476h-5.432c.182 1.204 1.036 1.876 2.128 1.876.826 0 1.414-.308 2.002-.882l.994.882c-.7.84-1.666 1.386-3.024 1.386-2.142 0-3.794-1.554-3.794-3.836v-.028c0-2.114 1.498-3.85 3.612-3.85zm-.014 1.386c-1.036 0-1.764.798-1.918 1.946h3.794c-.112-1.092-.756-1.946-1.876-1.946z"/></clipPath><clipPath id="e"><path d="m7.644 0v10.22h-1.694v-1.232c-.546.77-1.316 1.386-2.52 1.386-1.736 0-3.43-1.386-3.43-3.836v-.028c0-2.45 1.666-3.836 3.43-3.836 1.218 0 1.988.602 2.52 1.302v-3.976zm-3.808 4.144c-1.162 0-2.128.896-2.128 2.366v.028c0 1.428.98 2.366 2.128 2.366 1.134 0 2.142-.952 2.142-2.366v-.028c0-1.428-1.008-2.366-2.142-2.366z"/></clipPath><clipPath id="f"><path d="m1.764 2.744v7.392h-1.694v-7.392zm.056-2.744v1.61h-1.82v-1.61z"/></clipPath><clipPath id="g"><path d="m3.85 0c1.386 0 2.254.518 2.954 1.274l-1.064 1.134c-.518-.546-1.064-.924-1.904-.924-1.232 0-2.142 1.064-2.142 2.352v.028c0 1.316.91 2.366 2.212 2.366.798 0 1.386-.364 1.918-.91l1.022 1.008c-.728.812-1.582 1.386-3.024 1.386-2.198 0-3.822-1.722-3.822-3.822v-.028c0-2.1 1.624-3.864 3.85-3.864z"/></clipPath><clipPath id="h"><path d="m3.43 0c1.106 0 1.932.294 2.45.826.546.532.798 1.316.798 2.282v4.382h-1.652v-.924c-.504.602-1.274 1.078-2.408 1.078-1.386 0-2.618-.798-2.618-2.282v-.028c0-1.596 1.246-2.38 3.052-2.38.826 0 1.414.126 1.988.308v-.182c0-1.05-.644-1.61-1.834-1.61-.826 0-1.442.182-2.114.462l-.448-1.33c.812-.364 1.61-.602 2.786-.602zm-.042 4.032c-1.092 0-1.736.462-1.736 1.232v.028c0 .714.63 1.12 1.442 1.12 1.12 0 1.974-.644 1.974-1.582v-.504c-.434-.168-1.008-.294-1.68-.294z"/></clipPath><clipPath id="i"><path d="m4.11013588.00075424.20186412.00216154v1.792h-.098c-1.484 0-2.52.966-2.52 2.926v2.814h-1.694v-7.392h1.694v1.666c.462-1.106 1.316-1.862 2.618-1.806z"/></clipPath><clipPath id="j"><path d="m3.612 0c2.352 0 3.542 1.848 3.542 3.976 0 .154-.014.308-.028.476h-5.432c.182 1.204 1.036 1.876 2.128 1.876.826 0 1.414-.308 2.002-.882l.994.882c-.7.84-1.666 1.386-3.024 1.386-2.142 0-3.794-1.554-3.794-3.836v-.028c0-2.114 1.498-3.85 3.612-3.85zm-.014 1.386c-1.036 0-1.764.798-1.918 1.946h3.794c-.112-1.092-.756-1.946-1.876-1.946z"/></clipPath><clipPath id="k"><path d="m4.004 0c1.666 0 2.632 1.12 2.632 2.828v4.718h-1.694v-4.2c0-1.148-.574-1.806-1.582-1.806-.98 0-1.666.686-1.666 1.834v4.172h-1.694v-7.392h1.694v1.134c.476-.686 1.162-1.288 2.31-1.288z"/></clipPath><clipPath id="l"><path d="m1.694 0v4.2c0 1.148.574 1.792 1.582 1.792.98 0 1.666-.672 1.666-1.82v-4.172h1.708v7.392h-1.708v-1.148c-.476.7-1.162 1.302-2.31 1.302-1.666 0-2.632-1.12-2.632-2.842v-4.704z"/></clipPath><clipPath id="m"><path d="m8.652 0c1.61 0 2.59 1.022 2.59 2.828v4.718h-1.694v-4.2c0-1.176-.546-1.806-1.498-1.806-.924 0-1.582.644-1.582 1.834v4.172h-1.694v-4.214c0-1.148-.56-1.792-1.498-1.792s-1.582.7-1.582 1.834v4.172h-1.694v-7.392h1.694v1.12c.476-.658 1.12-1.274 2.254-1.274 1.064 0 1.82.518 2.212 1.302.588-.784 1.372-1.302 2.492-1.302z"/></clipPath><clipPath id="n"><path d="m1.694 0v4.06c.546-.77 1.316-1.386 2.52-1.386 1.736 0 3.43 1.372 3.43 3.836v.028c0 2.45-1.68 3.836-3.43 3.836-1.232 0-2.002-.616-2.52-1.302v1.148h-1.694v-10.22zm2.114 4.144c-1.148 0-2.156.952-2.156 2.366v.028c0 1.414 1.008 2.366 2.156 2.366 1.162 0 2.114-.91 2.114-2.366v-.028c0-1.428-.966-2.366-2.114-2.366z"/></clipPath><clipPath id="o"><path d="m3.612 0c2.352 0 3.542 1.848 3.542 3.976 0 .154-.014.308-.028.476h-5.432c.182 1.204 1.036 1.876 2.128 1.876.826 0 1.414-.308 2.002-.882l.994.882c-.7.84-1.666 1.386-3.024 1.386-2.142 0-3.794-1.554-3.794-3.836v-.028c0-2.114 1.498-3.85 3.612-3.85zm-.014 1.386c-1.036 0-1.764.798-1.918 1.946h3.794c-.112-1.092-.756-1.946-1.876-1.946z"/></clipPath><clipPath id="p"><path d="m4.11013588.00075424.20186412.00216154v1.792h-.098c-1.484 0-2.52.966-2.52 2.926v2.814h-1.694v-7.392h1.694v1.666c.462-1.106 1.316-1.862 2.618-1.806z"/></clipPath><clipPath id="q"><path d="m1.722 0v9.8h-1.722v-9.8z"/></clipPath><clipPath id="r"><path d="m4.368 0c1.232 0 2.198.364 2.828.98.518.532.812 1.26.812 2.114v.028c0 1.61-.966 2.576-2.324 2.968l2.646 3.71h-2.044l-2.408-3.416h-2.156v3.416h-1.722v-9.8zm-.14 1.568h-2.506v3.29h2.52c1.232 0 2.016-.644 2.016-1.638v-.028c0-1.05-.756-1.624-2.03-1.624z"/></clipPath><clipPath id="s"><path d="m1.596 0 5.25 6.776v-6.776h1.694v9.8h-1.442l-5.404-6.972v6.972h-1.694v-9.8z"/></clipPath><clipPath id="t"><path d="m3.288 0v8.46h-1.464v-6.96l-1.512.42-.312-1.2 2.268-.72z"/></clipPath><clipPath id="u"><path d="m3.216 0c1.644 0 2.772 1.008 2.772 2.508v.024c0 1.32-.696 2.04-2.184 3.252l-1.728 1.44h3.996v1.296h-6.072v-1.164l2.892-2.46c1.152-.984 1.572-1.512 1.572-2.268 0-.828-.588-1.308-1.356-1.308s-1.296.42-1.932 1.26l-1.056-.828c.804-1.116 1.596-1.752 3.096-1.752z"/></clipPath><clipPath id="v"><path d="m6.024 0v1.104l-2.34 2.4c1.272.156 2.472.804 2.472 2.352v.024c0 1.548-1.188 2.664-2.94 2.664-1.464 0-2.508-.612-3.216-1.476l1.032-.96c.6.708 1.272 1.104 2.208 1.104.828 0 1.452-.504 1.452-1.272v-.024c0-.828-.756-1.296-1.932-1.296h-.684l-.24-.924 2.268-2.412h-3.636v-1.284z"/></clipPath><clipPath id="w"><path d="m5.928 0v5.364h1.2v1.212h-1.2v1.884h-1.416v-1.884h-4.236l-.276-1.056 4.668-5.52zm-1.416 2.04-2.76 3.324h2.76z"/></clipPath><clipPath id="x"><path d="m5.52 0v5.544c0 .996-.3 1.74-.792 2.232s-1.2.744-2.04.744c-1.296 0-2.136-.6-2.688-1.356l.972-1.008c.492.636.984.996 1.692.996.792 0 1.332-.528 1.332-1.656v-5.496z"/></clipPath><clipPath id="y"><path d="m2.94 0c.948 0 1.656.252 2.1.708.468.456.684 1.128.684 1.956v3.756h-1.416v-.792c-.432.516-1.092.924-2.064.924-1.188 0-2.244-.684-2.244-1.956v-.024c0-1.368 1.068-2.04 2.616-2.04.708 0 1.212.108 1.704.264v-.156c0-.9-.552-1.38-1.572-1.38-.708 0-1.236.156-1.812.396l-.384-1.14c.696-.312 1.38-.516 2.388-.516zm-.036 3.456c-.936 0-1.488.396-1.488 1.056v.024c0 .612.54.96 1.236.96.96 0 1.692-.552 1.692-1.356v-.432c-.372-.144-.864-.252-1.44-.252z"/></clipPath><clipPath id="z"><path d="m1.56 0 1.788 4.704 1.644-4.704h1.512l-2.52 6.516c-.504 1.296-1.068 1.776-2.088 1.776-.6 0-1.056-.144-1.5-.384l.492-1.08c.264.144.552.24.852.24.408 0 .66-.18.9-.72l-2.64-6.348z"/></clipPath><clipPath id="A"><path d="m5.52 0v5.544c0 .996-.3 1.74-.792 2.232s-1.2.744-2.04.744c-1.296 0-2.136-.6-2.688-1.356l.972-1.008c.492.636.984.996 1.692.996.792 0 1.332-.528 1.332-1.656v-5.496z"/></clipPath><clipPath id="B"><path d="m2.94 0c.948 0 1.656.252 2.1.708.468.456.684 1.128.684 1.956v3.756h-1.416v-.792c-.432.516-1.092.924-2.064.924-1.188 0-2.244-.684-2.244-1.956v-.024c0-1.368 1.068-2.04 2.616-2.04.708 0 1.212.108 1.704.264v-.156c0-.9-.552-1.38-1.572-1.38-.708 0-1.236.156-1.812.396l-.384-1.14c.696-.312 1.38-.516 2.388-.516zm-.036 3.456c-.936 0-1.488.396-1.488 1.056v.024c0 .612.54.96 1.236.96.96 0 1.692-.552 1.692-1.356v-.432c-.372-.144-.864-.252-1.44-.252z"/></clipPath><clipPath id="C"><path d="m3.432 0c1.428 0 2.256.96 2.256 2.424v4.044h-1.452v-3.6c0-.984-.492-1.548-1.356-1.548-.84 0-1.428.588-1.428 1.572v3.576h-1.452v-6.336h1.452v.972c.408-.588.996-1.104 1.98-1.104z"/></clipPath><clipPath id="D"><path d="m3.096 0c2.016 0 3.036 1.584 3.036 3.408 0 .132-.012.264-.024.408h-4.656c.156 1.032.888 1.608 1.824 1.608.708 0 1.212-.264 1.716-.756l.852.756c-.6.72-1.428 1.188-2.592 1.188-1.836 0-3.252-1.332-3.252-3.288v-.024c0-1.812 1.284-3.3 3.096-3.3zm-.012 1.188c-.888 0-1.512.684-1.644 1.668h3.252c-.096-.936-.648-1.668-1.608-1.668z"/></clipPath><clipPath id="E"><path d="m4.332 0c1.548 0 2.484.54 3.288 1.308l-.948 1.092c-.672-.624-1.392-1.044-2.352-1.044-1.596 0-2.772 1.32-2.772 2.964v.024c0 1.644 1.164 2.976 2.772 2.976 1.032 0 1.692-.408 2.412-1.08l.948.96c-.876.912-1.836 1.488-3.408 1.488-2.448 0-4.272-1.908-4.272-4.32v-.024c0-2.388 1.788-4.344 4.332-4.344z"/></clipPath><clipPath id="F"><path d="m1.512 2.352v6.336h-1.452v-6.336zm.048-2.352v1.38h-1.56v-1.38z"/></clipPath><clipPath id="G"><path d="m2.256 0v1.74h1.704v1.248h-1.704v3.108c0 .564.288.792.78.792.324 0 .612-.072.9-.216v1.188c-.36.204-.756.324-1.308.324-1.068 0-1.824-.468-1.824-1.86v-3.336h-.804v-1.248h.804v-1.74z"/></clipPath><clipPath id="H"><path d="m5.508 0v.996l-3.66 4.152h3.66v1.188h-5.508v-.996l3.66-4.152h-3.528v-1.188z"/></clipPath><clipPath id="I"><path d="m3.096 0c2.016 0 3.036 1.584 3.036 3.408 0 .132-.012.264-.024.408h-4.656c.156 1.032.888 1.608 1.824 1.608.708 0 1.212-.264 1.716-.756l.852.756c-.6.72-1.428 1.188-2.592 1.188-1.836 0-3.252-1.332-3.252-3.288v-.024c0-1.812 1.284-3.3 3.096-3.3zm-.012 1.188c-.888 0-1.512.684-1.644 1.668h3.252c-.096-.936-.648-1.668-1.608-1.668z"/></clipPath><clipPath id="J"><path d="m3.432 0c1.428 0 2.256.96 2.256 2.424v4.044h-1.452v-3.6c0-.984-.492-1.548-1.356-1.548-.84 0-1.428.588-1.428 1.572v3.576h-1.452v-6.336h1.452v.972c.408-.588.996-1.104 1.98-1.104z"/></clipPath><clipPath id="K"><path d="m4.332 0c1.548 0 2.484.54 3.288 1.308l-.948 1.092c-.672-.624-1.392-1.044-2.352-1.044-1.596 0-2.772 1.32-2.772 2.964v.024c0 1.644 1.164 2.976 2.772 2.976 1.032 0 1.692-.408 2.412-1.08l.948.96c-.876.912-1.836 1.488-3.408 1.488-2.448 0-4.272-1.908-4.272-4.32v-.024c0-2.388 1.788-4.344 4.332-4.344z"/></clipPath><clipPath id="L"><path d="m1.512 2.352v6.336h-1.452v-6.336zm.048-2.352v1.38h-1.56v-1.38z"/></clipPath><clipPath id="M"><path d="m2.256 0v1.74h1.704v1.248h-1.704v3.108c0 .564.288.792.78.792.324 0 .612-.072.9-.216v1.188c-.36.204-.756.324-1.308.324-1.068 0-1.824-.468-1.824-1.86v-3.336h-.804v-1.248h.804v-1.74z"/></clipPath><clipPath id="N"><path d="m3.096 0c2.016 0 3.036 1.584 3.036 3.408 0 .132-.012.264-.024.408h-4.656c.156 1.032.888 1.608 1.824 1.608.708 0 1.212-.264 1.716-.756l.852.756c-.6.72-1.428 1.188-2.592 1.188-1.836 0-3.252-1.332-3.252-3.288v-.024c0-1.812 1.284-3.3 3.096-3.3zm-.012 1.188c-.888 0-1.512.684-1.644 1.668h3.252c-.096-.936-.648-1.668-1.608-1.668z"/></clipPath><clipPath id="O"><path d="m3.432 0c1.428 0 2.256.96 2.256 2.424v4.044h-1.452v-3.6c0-.984-.492-1.548-1.356-1.548-.84 0-1.428.588-1.428 1.572v3.576h-1.452v-6.336h1.452v.972c.408-.588.996-1.104 1.98-1.104z"/></clipPath><clipPath id="P"><path d="m1.572 0 2.556 3.972 2.556-3.972h1.572v8.4h-1.476v-6.024l-2.652 3.96h-.048l-2.628-3.936v6h-1.452v-8.4z"/></clipPath><clipPath id="Q"><path d="m1.572 0 2.556 3.972 2.556-3.972h1.572v8.4h-1.476v-6.024l-2.652 3.96h-.048l-2.628-3.936v6h-1.452v-8.4z"/></clipPath><clipPath id="R"><path d="m6.684 0-5.424 11.112h-1.26l5.424-11.112z"/></clipPath><clipPath id="S"><path d="m1.752 0 2.34 3.708 2.376-3.708h1.692l-3.336 5.052v3.348h-1.488v-3.312l-3.336-5.088z"/></clipPath><clipPath id="T"><path d="m1.752 0 2.34 3.708 2.376-3.708h1.692l-3.336 5.052v3.348h-1.488v-3.312l-3.336-5.088z"/></clipPath><clipPath id="U"><path d="m1.752 0 2.34 3.708 2.376-3.708h1.692l-3.336 5.052v3.348h-1.488v-3.312l-3.336-5.088z"/></clipPath><clipPath id="V"><path d="m1.752 0 2.34 3.708 2.376-3.708h1.692l-3.336 5.052v3.348h-1.488v-3.312l-3.336-5.088z"/></clipPath><clipPath id="W"><path d="m3.216 0c1.644 0 2.772 1.008 2.772 2.508v.024c0 1.32-.696 2.04-2.184 3.252l-1.728 1.44h3.996v1.296h-6.072v-1.164l2.892-2.46c1.152-.984 1.572-1.512 1.572-2.268 0-.828-.588-1.308-1.356-1.308s-1.296.42-1.932 1.26l-1.056-.828c.804-1.116 1.596-1.752 3.096-1.752z"/></clipPath><clipPath id="X"><path d="m1.596 0 5.25 6.776v-6.776h1.694v9.8h-1.442l-5.404-6.972v6.972h-1.694v-9.8z"/></clipPath><clipPath id="Y"><path d="m3.43 0c1.106 0 1.932.294 2.45.826.546.532.798 1.316.798 2.282v4.382h-1.652v-.924c-.504.602-1.274 1.078-2.408 1.078-1.386 0-2.618-.798-2.618-2.282v-.028c0-1.596 1.246-2.38 3.052-2.38.826 0 1.414.126 1.988.308v-.182c0-1.05-.644-1.61-1.834-1.61-.826 0-1.442.182-2.114.462l-.448-1.33c.812-.364 1.61-.602 2.786-.602zm-.042 4.032c-1.092 0-1.736.462-1.736 1.232v.028c0 .714.63 1.12 1.442 1.12 1.12 0 1.974-.644 1.974-1.582v-.504c-.434-.168-1.008-.294-1.68-.294z"/></clipPath><clipPath id="Z"><path d="m8.652 0c1.61 0 2.59 1.022 2.59 2.828v4.718h-1.694v-4.2c0-1.176-.546-1.806-1.498-1.806-.924 0-1.582.644-1.582 1.834v4.172h-1.694v-4.214c0-1.148-.56-1.792-1.498-1.792s-1.582.7-1.582 1.834v4.172h-1.694v-7.392h1.694v1.12c.476-.658 1.12-1.274 2.254-1.274 1.064 0 1.82.518 2.212 1.302.588-.784 1.372-1.302 2.492-1.302z"/></clipPath><clipPath id="aa"><path d="m3.612 0c2.352 0 3.542 1.848 3.542 3.976 0 .154-.014.308-.028.476h-5.432c.182 1.204 1.036 1.876 2.128 1.876.826 0 1.414-.308 2.002-.882l.994.882c-.7.84-1.666 1.386-3.024 1.386-2.142 0-3.794-1.554-3.794-3.836v-.028c0-2.114 1.498-3.85 3.612-3.85zm-.014 1.386c-1.036 0-1.764.798-1.918 1.946h3.794c-.112-1.092-.756-1.946-1.876-1.946z"/></clipPath><clipPath id="ab"><path d="m1.904 0 2.954 7.532 2.94-7.532h1.862l-4.06 9.87h-1.526l-4.074-9.87z"/></clipPath><clipPath id="ac"><path d="m3.43 0c1.106 0 1.932.294 2.45.826.546.532.798 1.316.798 2.282v4.382h-1.652v-.924c-.504.602-1.274 1.078-2.408 1.078-1.386 0-2.618-.798-2.618-2.282v-.028c0-1.596 1.246-2.38 3.052-2.38.826 0 1.414.126 1.988.308v-.182c0-1.05-.644-1.61-1.834-1.61-.826 0-1.442.182-2.114.462l-.448-1.33c.812-.364 1.61-.602 2.786-.602zm-.042 4.032c-1.092 0-1.736.462-1.736 1.232v.028c0 .714.63 1.12 1.442 1.12 1.12 0 1.974-.644 1.974-1.582v-.504c-.434-.168-1.008-.294-1.68-.294z"/></clipPath><clipPath id="ad"><path d="m1.694 0v10.22h-1.694v-10.22z"/></clipPath><clipPath id="ae"><path d="m1.764 2.744v7.392h-1.694v-7.392zm.056-2.744v1.61h-1.82v-1.61z"/></clipPath><clipPath id="af"><path d="m7.644 0v10.22h-1.694v-1.232c-.546.77-1.316 1.386-2.52 1.386-1.736 0-3.43-1.386-3.43-3.836v-.028c0-2.45 1.666-3.836 3.43-3.836 1.218 0 1.988.602 2.52 1.302v-3.976zm-3.808 4.144c-1.162 0-2.128.896-2.128 2.366v.028c0 1.428.98 2.366 2.128 2.366 1.134 0 2.142-.952 2.142-2.366v-.028c0-1.428-1.008-2.366-2.142-2.366z"/></clipPath><clipPath id="ag"><path d="m2.632 0v2.03h1.988v1.456h-1.988v3.626c0 .658.336.924.91.924.378 0 .714-.084 1.05-.252v1.386c-.42.238-.882.378-1.526.378-1.246 0-2.128-.546-2.128-2.17v-3.892h-.938v-1.456h.938v-2.03z"/></clipPath><clipPath id="ah"><path d="m3.948 0c2.268 0 3.934 1.722 3.934 3.836v.028c0 2.1-1.68 3.85-3.962 3.85-2.254 0-3.92-1.722-3.92-3.822v-.028c0-2.114 1.68-3.864 3.948-3.864zm-.028 1.484c-1.358 0-2.226 1.064-2.226 2.352v.028c0 1.288.938 2.366 2.254 2.366 1.372 0 2.24-1.064 2.24-2.338v-.028c0-1.302-.938-2.38-2.268-2.38z"/></clipPath><clipPath id="ai"><path d="m8.52336449 0 8.52336451 17.1238017h-17.046729z"/></clipPath><clipPath id="aj"><path d="m8.52336449 0 8.52336451 17.1238017h-17.046729z"/></clipPath><clipPath id="ak"><path d="m8.52336449 0 8.52336451 17.1238017h-17.046729z"/></clipPath><clipPath id="al"><path d="m8.52336449 0 8.52336451 17.1238017h-17.046729z"/></clipPath><clipPath id="am"><path d="m3.216 0c1.644 0 2.772 1.008 2.772 2.508v.024c0 1.32-.696 2.04-2.184 3.252l-1.728 1.44h3.996v1.296h-6.072v-1.164l2.892-2.46c1.152-.984 1.572-1.512 1.572-2.268 0-.828-.588-1.308-1.356-1.308s-1.296.42-1.932 1.26l-1.056-.828c.804-1.116 1.596-1.752 3.096-1.752z"/></clipPath><clipPath id="an"><path d="m64.2165068 0c.1677739 0 .3323311.0137722.4926028.04024774l5.7474428-.000084-3.2535337 15.15581146c-.0224461.2370501-.0724758.4660665-.1468444.6838044l-.0080902.0303841c-.410917 1.1622524-1.5234761 1.9994679-2.8315773 1.9994679l-57.3995068-.0006316-6.817.0011637 3.218-14.9861637.00359949-.10027279c.09124643-1.57480725 1.39722643-2.82372721 2.99490731-2.82372721z"/></clipPath><clipPath id="ao"><path d="m7.416 0c1.38 0 2.22.876 2.22 2.424v4.044h-1.452v-3.6c0-1.008-.468-1.548-1.284-1.548-.792 0-1.356.552-1.356 1.572v3.576h-1.452v-3.612c0-.984-.48-1.536-1.284-1.536s-1.356.6-1.356 1.572v3.576h-1.452v-6.336h1.452v.96c.408-.564.96-1.092 1.932-1.092.912 0 1.56.444 1.896 1.116.504-.672 1.176-1.116 2.136-1.116z"/></clipPath><clipPath id="ap"><path d="m3.096 0c2.016 0 3.036 1.584 3.036 3.408 0 .132-.012.264-.024.408h-4.656c.156 1.032.888 1.608 1.824 1.608.708 0 1.212-.264 1.716-.756l.852.756c-.6.72-1.428 1.188-2.592 1.188-1.836 0-3.252-1.332-3.252-3.288v-.024c0-1.812 1.284-3.3 3.096-3.3zm-.012 1.188c-.888 0-1.512.684-1.644 1.668h3.252c-.096-.936-.648-1.668-1.608-1.668z"/></clipPath><clipPath id="aq"><path d="m6.552 0v8.76h-1.452v-1.056c-.468.66-1.128 1.188-2.16 1.188-1.488 0-2.94-1.188-2.94-3.288v-.024c0-2.1 1.428-3.288 2.94-3.288 1.044 0 1.704.516 2.16 1.116v-3.408zm-3.264 3.552c-.996 0-1.824.768-1.824 2.028v.024c0 1.224.84 2.028 1.824 2.028.972 0 1.836-.816 1.836-2.028v-.024c0-1.224-.864-2.028-1.836-2.028z"/></clipPath><clipPath id="ar"><path d="m1.512 2.352v6.336h-1.452v-6.336zm.048-2.352v1.38h-1.56v-1.38z"/></clipPath><clipPath id="as"><path d="m3.3 0c1.188 0 1.932.444 2.532 1.092l-.912.972c-.444-.468-.912-.792-1.632-.792-1.056 0-1.836.912-1.836 2.016v.024c0 1.128.78 2.028 1.896 2.028.684 0 1.188-.312 1.644-.78l.876.864c-.624.696-1.356 1.188-2.592 1.188-1.884 0-3.276-1.476-3.276-3.276v-.024c0-1.8 1.392-3.312 3.3-3.312z"/></clipPath><clipPath id="at"><path d="m2.94 0c.948 0 1.656.252 2.1.708.468.456.684 1.128.684 1.956v3.756h-1.416v-.792c-.432.516-1.092.924-2.064.924-1.188 0-2.244-.684-2.244-1.956v-.024c0-1.368 1.068-2.04 2.616-2.04.708 0 1.212.108 1.704.264v-.156c0-.9-.552-1.38-1.572-1.38-.708 0-1.236.156-1.812.396l-.384-1.14c.696-.312 1.38-.516 2.388-.516zm-.036 3.456c-.936 0-1.488.396-1.488 1.056v.024c0 .612.54.96 1.236.96.96 0 1.692-.552 1.692-1.356v-.432c-.372-.144-.864-.252-1.44-.252z"/></clipPath><clipPath id="au"><path d="m3.50303521.00117296.19296479.00132628v1.536h-.084c-1.272 0-2.16.828-2.16 2.508v2.412h-1.452v-6.336h1.452v1.428c.396-.948 1.128-1.596 2.244-1.548z"/></clipPath><clipPath id="av"><path d="m3.096 0c2.016 0 3.036 1.584 3.036 3.408 0 .132-.012.264-.024.408h-4.656c.156 1.032.888 1.608 1.824 1.608.708 0 1.212-.264 1.716-.756l.852.756c-.6.72-1.428 1.188-2.592 1.188-1.836 0-3.252-1.332-3.252-3.288v-.024c0-1.812 1.284-3.3 3.096-3.3zm-.012 1.188c-.888 0-1.512.684-1.644 1.668h3.252c-.096-.936-.648-1.668-1.608-1.668z"/></clipPath><clipPath id="aw"><path d="m5.832 0v1.308h-3.756l-.132 1.968c.396-.144.768-.24 1.332-.24 1.632 0 2.928.864 2.928 2.64v.024c0 1.716-1.26 2.844-3.12 2.844-1.284 0-2.292-.516-3.084-1.284l.912-1.068c.672.624 1.38 1.008 2.16 1.008 1.008 0 1.668-.576 1.668-1.452v-.024c0-.852-.72-1.392-1.74-1.392-.6 0-1.116.168-1.548.372l-.888-.588.24-4.116z"/></clipPath><clipPath id="ax"><path d="m3.6 0c1.092 0 1.836.348 2.568.936l-.792 1.14c-.588-.456-1.08-.732-1.824-.732-1.464 0-1.992 1.524-2.016 2.676.492-.516 1.116-.852 2.016-.852 1.62 0 2.928.96 2.928 2.64v.024c0 1.668-1.356 2.856-3.12 2.856-1.032 0-1.776-.324-2.34-.888-.636-.636-1.02-1.512-1.02-3.204v-.024c0-2.568 1.224-4.572 3.6-4.572zm-.312 4.404c-1.044 0-1.704.672-1.704 1.476v.024c0 .852.696 1.5 1.74 1.5s1.68-.648 1.68-1.512v-.024c0-.84-.672-1.464-1.716-1.464z"/></clipPath><clipPath id="ay"><path d="m5.904 0v1.116l-3.78 7.284h-1.668l3.768-7.104h-4.224v-1.296z"/></clipPath><clipPath id="az"><path d="m3.204 0c1.68 0 2.916.972 2.916 2.268v.024c0 .936-.516 1.5-1.224 1.872.924.42 1.512 1.02 1.512 2.016v.024c0 1.5-1.368 2.436-3.204 2.436s-3.204-.96-3.204-2.412v-.024c0-1.008.564-1.644 1.512-2.04-.708-.372-1.224-.936-1.224-1.872v-.024c0-1.284 1.236-2.268 2.916-2.268zm0 4.848c-.996 0-1.752.504-1.752 1.272v.024c0 .684.648 1.26 1.752 1.26s1.764-.564 1.764-1.26v-.024c0-.768-.768-1.272-1.764-1.272zm0-3.612c-.9 0-1.5.528-1.5 1.164v.024c0 .732.636 1.248 1.5 1.248s1.5-.516 1.5-1.236v-.024c0-.648-.6-1.176-1.5-1.176z"/></clipPath><clipPath id="aA"><path d="m3.132 0c1.056 0 1.74.3 2.34.888.612.624 1.008 1.548 1.008 3.204v.024c0 2.7-1.332 4.572-3.6 4.572-1.164 0-1.98-.42-2.688-1.008l.804-1.128c.636.528 1.2.792 1.92.792 1.488 0 2.028-1.536 2.04-2.652-.468.564-1.116.9-1.98.9-1.788 0-2.976-1.044-2.976-2.664v-.024c0-1.644 1.272-2.904 3.132-2.904zm.012 1.272c-1.044 0-1.668.696-1.668 1.56v.024c0 .876.672 1.5 1.716 1.5 1.068 0 1.704-.696 1.704-1.512v-.024c0-.876-.684-1.548-1.752-1.548z"/></clipPath><g clip-path="url(#a)"><g clip-path="url(#b)" transform="translate(87)"><path d="m0 0h170v114h-170z" fill="#aaebae"/></g><g clip-path="url(#c)" transform="translate(8.022076 18.261947)"><path d="m0 0h9.632v9.8h-9.632z" fill="#242934"/></g><g clip-path="url(#d)" transform="translate(19.572076 20.515947)"><path d="m0 0h7.154v7.714h-7.154z" fill="#242934"/></g><g clip-path="url(#e)" transform="translate(28.056076 17.841947)"><path d="m0 0h7.644v10.374h-7.644z" fill="#242934"/></g><g clip-path="url(#f)" transform="translate(37.856076 17.925947)"><path d="m0 0h1.82v10.136h-1.82z" fill="#242934"/></g><g clip-path="url(#g)" transform="translate(41.426076 20.515947)"><path d="m0 0h6.846v7.714h-6.846z" fill="#242934"/></g><g clip-path="url(#h)" transform="translate(49.336076 20.571947)"><path d="m0 0h6.678v7.644h-6.678z" fill="#242934"/></g><g clip-path="url(#i)" transform="translate(58.044076 20.527031)"><path d="m0 0h4.312v7.53491578h-4.312z" fill="#242934"/></g><g clip-path="url(#j)" transform="translate(63.168076 20.515947)"><path d="m0 0h7.154v7.714h-7.154z" fill="#242934"/></g><g clip-path="url(#k)" transform="translate(17.738076 35.515947)"><path d="m0 0h6.636v7.546h-6.636z" fill="#242934"/></g><g clip-path="url(#l)" transform="translate(26.334076 35.669947)"><path d="m0 0h6.65v7.546h-6.65z" fill="#242934"/></g><g clip-path="url(#m)" transform="translate(35.098076 35.515947)"><path d="m0 0h11.242v7.546h-11.242z" fill="#242934"/></g><g clip-path="url(#n)" transform="translate(48.398076 32.841947)"><path d="m0 0h7.644v10.374h-7.644z" fill="#242934"/></g><g clip-path="url(#o)" transform="translate(57.386076 35.515947)"><path d="m0 0h7.154v7.714h-7.154z" fill="#242934"/></g><g clip-path="url(#p)" transform="translate(66.248076 35.527031)"><path d="m0 0h4.312v7.53491578h-4.312z" fill="#242934"/></g><g transform="translate(46.651232 56.739823)"><g clip-path="url(#q)"><path d="m0 0h1.722v9.8h-1.722z" fill="#242934"/></g><g clip-path="url(#r)" transform="translate(4.34)"><path d="m0 0h8.33v9.8h-8.33z" fill="#242934"/></g><g clip-path="url(#s)" transform="translate(14.462)"><path d="m0 0h8.54v9.8h-8.54z" fill="#242934"/></g></g><g clip-path="url(#t)" transform="translate(106.931469 32.026726)"><path d="m0 0h3.288v8.46h-3.288z" fill="#242934"/></g><g clip-path="url(#u)" transform="translate(113.959469 31.966726)"><path d="m0 0h6.072v8.52h-6.072z" fill="#242934"/></g><g clip-path="url(#v)" transform="translate(123.243469 32.086726)"><path d="m0 0h6.156v8.544h-6.156z" fill="#242934"/></g><g clip-path="url(#w)" transform="translate(132.575469 32.026726)"><path d="m0 0h7.128v8.46h-7.128z" fill="#242934"/></g><g transform="translate(129.004212 57.139823)"><g clip-path="url(#x)"><path d="m0 0h5.52v8.52h-5.52z" fill="#242934"/></g><g clip-path="url(#y)" transform="translate(6.96 1.98)"><path d="m0 0h5.724v6.552h-5.724z" fill="#242934"/></g><g clip-path="url(#z)" transform="translate(13.584 2.064)"><path d="m0 0h6.504v8.292h-6.504z" fill="#242934"/></g></g><g transform="translate(129.004212 72.139823)"><g clip-path="url(#A)"><path d="m0 0h5.52v8.52h-5.52z" fill="#242934"/></g><g clip-path="url(#B)" transform="translate(6.96 1.98)"><path d="m0 0h5.724v6.552h-5.724z" fill="#242934"/></g><g clip-path="url(#C)" transform="translate(14.424 1.932)"><path d="m0 0h5.688v6.468h-5.688z" fill="#242934"/></g><g clip-path="url(#D)" transform="translate(21.516 1.932)"><path d="m0 0h6.132v6.612h-6.132z" fill="#242934"/></g></g><g clip-path="url(#E)" transform="translate(169.460212 71.995823)"><path d="m0 0h7.68v8.688h-7.68z" fill="#242934"/></g><g clip-path="url(#F)" transform="translate(178.544212 71.851823)"><path d="m0 0h1.56v8.688h-1.56z" fill="#242934"/></g><g clip-path="url(#G)" transform="translate(181.448212 72.463823)"><path d="m0 0h3.96v8.184h-3.96z" fill="#242934"/></g><g clip-path="url(#F)" transform="translate(186.908212 71.851823)"><path d="m0 0h1.56v8.688h-1.56z" fill="#242934"/></g><g clip-path="url(#H)" transform="translate(190.028212 74.203823)"><path d="m0 0h5.508v6.336h-5.508z" fill="#242934"/></g><g clip-path="url(#I)" transform="translate(196.508212 74.071823)"><path d="m0 0h6.132v6.612h-6.132z" fill="#242934"/></g><g clip-path="url(#J)" transform="translate(204.104212 74.071823)"><path d="m0 0h5.688v6.468h-5.688z" fill="#242934"/></g><g clip-path="url(#K)" transform="translate(169.460212 56.995823)"><path d="m0 0h7.68v8.688h-7.68z" fill="#242934"/></g><g clip-path="url(#L)" transform="translate(178.544212 56.851823)"><path d="m0 0h1.56v8.688h-1.56z" fill="#242934"/></g><g clip-path="url(#M)" transform="translate(181.448212 57.463823)"><path d="m0 0h3.96v8.184h-3.96z" fill="#242934"/></g><g clip-path="url(#L)" transform="translate(186.908212 56.851823)"><path d="m0 0h1.56v8.688h-1.56z" fill="#242934"/></g><g clip-path="url(#H)" transform="translate(190.028212 59.203823)"><path d="m0 0h5.508v6.336h-5.508z" fill="#242934"/></g><g clip-path="url(#N)" transform="translate(196.508212 59.071823)"><path d="m0 0h6.132v6.612h-6.132z" fill="#242934"/></g><g clip-path="url(#O)" transform="translate(204.104212 59.071823)"><path d="m0 0h5.688v6.468h-5.688z" fill="#242934"/></g><g clip-path="url(#P)" transform="translate(172.664071 94.617699)"><path d="m0 0h8.256v8.4h-8.256z" fill="#242934"/></g><g clip-path="url(#Q)" transform="translate(183.080071 94.617699)"><path d="m0 0h8.256v8.4h-8.256z" fill="#242934"/></g><g clip-path="url(#R)" transform="translate(192.116071 93.441699)"><path d="m0 0h6.684v11.112h-6.684z" fill="#242934"/></g><g clip-path="url(#S)" transform="translate(198.884071 94.617699)"><path d="m0 0h8.16v8.4h-8.16z" fill="#242934"/></g><g clip-path="url(#T)" transform="translate(207.308071 94.617699)"><path d="m0 0h8.16v8.4h-8.16z" fill="#242934"/></g><g clip-path="url(#U)" transform="translate(215.732071 94.617699)"><path d="m0 0h8.16v8.4h-8.16z" fill="#242934"/></g><g clip-path="url(#V)" transform="translate(224.156071 94.617699)"><path d="m0 0h8.16v8.4h-8.16z" fill="#242934"/></g><g clip-path="url(#t)" transform="translate(106.931469 57.079823)"><path d="m0 0h3.288v8.46h-3.288z" fill="#242934"/></g><g clip-path="url(#W)" transform="translate(107.207469 72.019823)"><path d="m0 0h6.072v8.52h-6.072z" fill="#242934"/></g><g transform="translate(274.428142 56.739823)"><g clip-path="url(#X)"><path d="m0 0h8.54v9.8h-8.54z" fill="#242934"/></g><g clip-path="url(#Y)" transform="translate(10.374 2.31)"><path d="m0 0h6.678v7.644h-6.678z" fill="#242934"/></g><g clip-path="url(#Z)" transform="translate(19.082 2.254)"><path d="m0 0h11.242v7.546h-11.242z" fill="#242934"/></g><g clip-path="url(#aa)" transform="translate(31.976 2.254)"><path d="m0 0h7.154v7.714h-7.154z" fill="#242934"/></g></g><g clip-path="url(#ab)" transform="translate(273.588142 95.288496)"><path d="m0 0h9.66v9.87h-9.66z" fill="#242934"/></g><g clip-path="url(#ac)" transform="translate(283.262142 97.598496)"><path d="m0 0h6.678v7.644h-6.678z" fill="#242934"/></g><g clip-path="url(#ad)" transform="translate(292.068142 94.868496)"><path d="m0 0h1.694v10.22h-1.694z" fill="#242934"/></g><g clip-path="url(#ae)" transform="translate(296.002142 94.952496)"><path d="m0 0h1.82v10.136h-1.82z" fill="#242934"/></g><g clip-path="url(#af)" transform="translate(299.600142 94.868496)"><path d="m0 0h7.644v10.374h-7.644z" fill="#242934"/></g><g clip-path="url(#ag)" transform="translate(312.984142 95.666496)"><path d="m0 0h4.62v9.548h-4.62z" fill="#242934"/></g><g clip-path="url(#ah)" transform="translate(318.710142 97.542496)"><path d="m0 0h7.882v7.714h-7.882z" fill="#242934"/></g><g clip-path="url(#ai)" transform="matrix(0 1 -1 0 95.743271 28.766355)"><path d="m0 0h17.046729v17.1238017h-17.046729z" fill="#b81236"/></g><g clip-path="url(#aj)" transform="matrix(0 -1 1 0 248.485043 70.317757)"><path d="m0 0h17.046729v17.1238017h-17.046729z" fill="#b81236"/></g><g clip-path="url(#ak)" transform="matrix(0 -1 1 0 248.485043 108.672897)"><path d="m0 0h17.046729v17.1238017h-17.046729z" fill="#b81236"/></g><g clip-path="url(#al)" transform="matrix(0 1 -1 0 95.651779 53.271028)"><path d="m0 0h17.046729v17.1238017h-17.046729z" fill="#b81236"/></g><g clip-path="url(#am)" transform="translate(216.99508 31.966726)"><path d="m0 0h6.072v8.52h-6.072z" fill="#242934"/></g><g clip-path="url(#an)" transform="translate(173.279469 7.959836)"><path d="m0 0h70.4565524v17.9101637h-70.4565524z" fill="#076945"/></g><g clip-path="url(#ao)" transform="translate(180.991646 14.098372)"><path d="m0 0h9.636v6.468h-9.636z" fill="#ffca26"/></g><g clip-path="url(#ap)" transform="translate(192.043646 14.098372)"><path d="m0 0h6.132v6.612h-6.132z" fill="#ffca26"/></g><g clip-path="url(#aq)" transform="translate(199.315646 11.806372)"><path d="m0 0h6.552v8.892h-6.552z" fill="#ffca26"/></g><g clip-path="url(#ar)" transform="translate(207.715646 11.878372)"><path d="m0 0h1.56v8.688h-1.56z" fill="#ffca26"/></g><g clip-path="url(#as)" transform="translate(210.775646 14.098372)"><path d="m0 0h5.868v6.612h-5.868z" fill="#ffca26"/></g><g clip-path="url(#at)" transform="translate(217.555646 14.146372)"><path d="m0 0h5.724v6.552h-5.724z" fill="#ffca26"/></g><g clip-path="url(#au)" transform="translate(225.019646 14.107873)"><path d="m0 0h3.696v6.45849924h-3.696z" fill="#ffca26"/></g><g clip-path="url(#av)" transform="translate(229.411646 14.098372)"><path d="m0 0h6.132v6.612h-6.132z" fill="#ffca26"/></g><g clip-path="url(#aw)" transform="translate(156.183469 32.086726)"><path d="m0 0h6.204v8.544h-6.204z" fill="#242934"/></g><g clip-path="url(#ax)" transform="translate(165.779469 31.942726)"><path d="m0 0h6.48v8.688h-6.48z" fill="#242934"/></g><g clip-path="url(#ay)" transform="translate(175.567469 32.086726)"><path d="m0 0h5.904v8.4h-5.904z" fill="#242934"/></g><g clip-path="url(#az)" transform="translate(184.515469 31.966726)"><path d="m0 0h6.408v8.64h-6.408z" fill="#242934"/></g><g clip-path="url(#aA)" transform="translate(194.147469 31.942726)"><path d="m0 0h6.48v8.688h-6.48z" fill="#242934"/></g></g></svg>