<svg height="125" viewBox="0 0 335 125" width="335" xmlns="http://www.w3.org/2000/svg" xmlns:xlink="http://www.w3.org/1999/xlink"><clipPath id="a"><path d="m335 0v125h-335v-125z"/></clipPath><clipPath id="b"><path d="m170 0v114c0 6.075132-4.924868 11-11 11h-148c-6.07513225 0-11-4.924868-11-11v-114z"/></clipPath><clipPath id="c"><path d="m17 0c4.9705627 0 9 4.02943725 9 9 0 3.7058289-2.2397731 6.8885309-5.4394648 8.2682514 8.2058003 1.4458895 14.4394648 8.6108439 14.4394648 17.2317486v.5h-35v-.5c0-8.3824597 5.89360038-15.3883953 13.7631316-17.1001372-3.3713426-1.2994471-5.7631316-4.5703388-5.7631316-8.3998628 0-4.97056275 4.0294373-9 9-9z"/></clipPath><clipPath id="d"><path d="m3.672 0c2.196 0 3.648 1.92 3.648 4.32v.024c0 2.4-1.464 4.344-3.672 4.344s-3.648-1.92-3.648-4.32v-.024c0-2.4 1.464-4.344 3.672-4.344zm-.024 1.332c-1.296 0-2.124 1.32-2.124 2.988v.024c0 1.656.84 3.012 2.148 3.012s2.124-1.344 2.124-2.988v-.024c0-1.656-.852-3.012-2.148-3.012z"/></clipPath><clipPath id="e"><path d="m3.288 0v8.46h-1.464v-6.96l-1.512.42-.312-1.2 2.268-.72z"/></clipPath><clipPath id="f"><path d="m6.684 0-5.424 11.112h-1.26l5.424-11.112z"/></clipPath><clipPath id="g"><path d="m3.672 0c2.196 0 3.648 1.92 3.648 4.32v.024c0 2.4-1.464 4.344-3.672 4.344s-3.648-1.92-3.648-4.32v-.024c0-2.4 1.464-4.344 3.672-4.344zm-.024 1.332c-1.296 0-2.124 1.32-2.124 2.988v.024c0 1.656.84 3.012 2.148 3.012s2.124-1.344 2.124-2.988v-.024c0-1.656-.852-3.012-2.148-3.012z"/></clipPath><clipPath id="h"><path d="m3.288 0v8.46h-1.464v-6.96l-1.512.42-.312-1.2 2.268-.72z"/></clipPath><clipPath id="i"><path d="m6.684 0-5.424 11.112h-1.26l5.424-11.112z"/></clipPath><clipPath id="j"><path d="m3.216 0c1.644 0 2.772 1.008 2.772 2.508v.024c0 1.32-.696 2.04-2.184 3.252l-1.728 1.44h3.996v1.296h-6.072v-1.164l2.892-2.46c1.152-.984 1.572-1.512 1.572-2.268 0-.828-.588-1.308-1.356-1.308s-1.296.42-1.932 1.26l-1.056-.828c.804-1.116 1.596-1.752 3.096-1.752z"/></clipPath><clipPath id="k"><path d="m3.672 0c2.196 0 3.648 1.92 3.648 4.32v.024c0 2.4-1.464 4.344-3.672 4.344s-3.648-1.92-3.648-4.32v-.024c0-2.4 1.464-4.344 3.672-4.344zm-.024 1.332c-1.296 0-2.124 1.32-2.124 2.988v.024c0 1.656.84 3.012 2.148 3.012s2.124-1.344 2.124-2.988v-.024c0-1.656-.852-3.012-2.148-3.012z"/></clipPath><clipPath id="l"><path d="m2.76 0c1.64 0 2.66.93 2.66 2.34v.02c0 1.57-1.26 2.39-2.8 2.39h-1.39v2.25h-1.23v-7zm-.1 1.12h-1.43v2.52h1.43c.93 0 1.51-.52 1.51-1.25v-.02c0-.82-.59-1.25-1.51-1.25z"/></clipPath><clipPath id="m"><path d="m2.45 0c.79 0 1.38.21 1.75.59.39.38.57.94.57 1.63v3.13h-1.18v-.66c-.36.43-.91.77-1.72.77-.99 0-1.87-.57-1.87-1.63v-.02c0-1.14.89-1.7 2.18-1.7.59 0 1.01.09 1.42.22v-.13c0-.75-.46-1.15-1.31-1.15-.59 0-1.03.13-1.51.33l-.32-.95c.58-.26 1.15-.43 1.99-.43zm-.03 2.88c-.78 0-1.24.33-1.24.88v.02c0 .51.45.8 1.03.8.8 0 1.41-.46 1.41-1.13v-.36c-.31-.12-.72-.21-1.2-.21z"/></clipPath><clipPath id="n"><path d="m2.14 0c.66 0 1.38.23 1.94.6l-.48.86c-.51-.31-1.05-.5-1.49-.5-.47 0-.74.22-.74.52v.02c0 .39.57.55 1.19.75.77.24 1.64.59 1.64 1.54v.02c0 1.11-.86 1.66-1.96 1.66-.75 0-1.58-.27-2.24-.79l.54-.82c.58.43 1.19.65 1.73.65.52 0 .82-.22.82-.57v-.02c0-.41-.56-.55-1.18-.74-.78-.22-1.65-.54-1.65-1.55v-.02c0-1 .83-1.61 1.88-1.61z"/></clipPath><clipPath id="o"><path d="m2.14 0c.66 0 1.38.23 1.94.6l-.48.86c-.51-.31-1.05-.5-1.49-.5-.47 0-.74.22-.74.52v.02c0 .39.57.55 1.19.75.77.24 1.64.59 1.64 1.54v.02c0 1.11-.86 1.66-1.96 1.66-.75 0-1.58-.27-2.24-.79l.54-.82c.58.43 1.19.65 1.73.65.52 0 .82-.22.82-.57v-.02c0-.41-.56-.55-1.18-.74-.78-.22-1.65-.54-1.65-1.55v-.02c0-1 .83-1.61 1.88-1.61z"/></clipPath><clipPath id="p"><path d="m3.01 0c1.24 0 2.45.98 2.45 2.74v.02c0 1.75-1.2 2.74-2.45 2.74-.88 0-1.43-.44-1.8-.93v2.42h-1.21v-6.88h1.21v.88c.39-.55.94-.99 1.8-.99zm-.29 1.05c-.82 0-1.54.68-1.54 1.69v.02c0 1.01.72 1.69 1.54 1.69.83 0 1.51-.65 1.51-1.69v-.02c0-1.02-.69-1.69-1.51-1.69z"/></clipPath><clipPath id="q"><path d="m2.82 0c1.62 0 2.81 1.23 2.81 2.74v.02c0 1.5-1.2 2.75-2.83 2.75-1.61 0-2.8-1.23-2.8-2.73v-.02c0-1.51 1.2-2.76 2.82-2.76zm-.02 1.06c-.97 0-1.59.76-1.59 1.68v.02c0 .92.67 1.69 1.61 1.69.98 0 1.6-.76 1.6-1.67v-.02c0-.93-.67-1.7-1.62-1.7z"/></clipPath><clipPath id="r"><path d="m2.90936523.00129901.17063477.00078369v1.28h-.07c-1.06 0-1.8.69-1.8 2.09v2.01h-1.21v-5.28h1.21v1.19c.33-.79.94-1.33 1.87-1.29z"/></clipPath><clipPath id="s"><path d="m1.88 0v1.45h1.42v1.04h-1.42v2.59c0 .47.24.66.65.66.27 0 .51-.06.75-.18v.99c-.3.17-.63.27-1.09.27-.89 0-1.52-.39-1.52-1.55v-2.78h-.67v-1.04h.67v-1.45z"/></clipPath><clipPath id="t"><path d="m4.22 0 3.08 7.05h-1.3l-.71-1.69h-3.31l-.72 1.69h-1.26l3.08-7.05zm-.59 1.47-1.2 2.8h2.41z"/></clipPath><clipPath id="u"><path d="m1.21 0v3c0 .82.41 1.28 1.13 1.28.7 0 1.19-.48 1.19-1.3v-2.98h1.22v5.28h-1.22v-.82c-.34.5-.83.93-1.65.93-1.19 0-1.88-.8-1.88-2.03v-3.36z"/></clipPath><clipPath id="v"><path d="m2.14 0c.66 0 1.38.23 1.94.6l-.48.86c-.51-.31-1.05-.5-1.49-.5-.47 0-.74.22-.74.52v.02c0 .39.57.55 1.19.75.77.24 1.64.59 1.64 1.54v.02c0 1.11-.86 1.66-1.96 1.66-.75 0-1.58-.27-2.24-.79l.54-.82c.58.43 1.19.65 1.73.65.52 0 .82-.22.82-.57v-.02c0-.41-.56-.55-1.18-.74-.78-.22-1.65-.54-1.65-1.55v-.02c0-1 .83-1.61 1.88-1.61z"/></clipPath><clipPath id="w"><path d="m1.88 0v1.45h1.42v1.04h-1.42v2.59c0 .47.24.66.65.66.27 0 .51-.06.75-.18v.99c-.3.17-.63.27-1.09.27-.89 0-1.52-.39-1.52-1.55v-2.78h-.67v-1.04h.67v-1.45z"/></clipPath><clipPath id="x"><path d="m2.90936523.00129901.17063477.00078369v1.28h-.07c-1.06 0-1.8.69-1.8 2.09v2.01h-1.21v-5.28h1.21v1.19c.33-.79.94-1.33 1.87-1.29z"/></clipPath><clipPath id="y"><path d="m2.45 0c.79 0 1.38.21 1.75.59.39.38.57.94.57 1.63v3.13h-1.18v-.66c-.36.43-.91.77-1.72.77-.99 0-1.87-.57-1.87-1.63v-.02c0-1.14.89-1.7 2.18-1.7.59 0 1.01.09 1.42.22v-.13c0-.75-.46-1.15-1.31-1.15-.59 0-1.03.13-1.51.33l-.32-.95c.58-.26 1.15-.43 1.99-.43zm-.03 2.88c-.78 0-1.24.33-1.24.88v.02c0 .51.45.8 1.03.8.8 0 1.41-.46 1.41-1.13v-.36c-.31-.12-.72-.21-1.2-.21z"/></clipPath><clipPath id="z"><path d="m1.21 0v7.3h-1.21v-7.3z"/></clipPath><clipPath id="A"><path d="m1.26 1.96v5.28h-1.21v-5.28zm.04-1.96v1.15h-1.3v-1.15z"/></clipPath><clipPath id="B"><path d="m2.45 0c.79 0 1.38.21 1.75.59.39.38.57.94.57 1.63v3.13h-1.18v-.66c-.36.43-.91.77-1.72.77-.99 0-1.87-.57-1.87-1.63v-.02c0-1.14.89-1.7 2.18-1.7.59 0 1.01.09 1.42.22v-.13c0-.75-.46-1.15-1.31-1.15-.59 0-1.03.13-1.51.33l-.32-.95c.58-.26 1.15-.43 1.99-.43zm-.03 2.88c-.78 0-1.24.33-1.24.88v.02c0 .51.45.8 1.03.8.8 0 1.41-.46 1.41-1.13v-.36c-.31-.12-.72-.21-1.2-.21z"/></clipPath><clipPath id="C"><path d="m3.312 0c1.968 0 3.192 1.116 3.192 2.808v.024c0 1.884-1.512 2.868-3.36 2.868h-1.668v2.7h-1.476v-8.4zm-.12 1.344h-1.716v3.024h1.716c1.116 0 1.812-.624 1.812-1.5v-.024c0-.984-.708-1.5-1.812-1.5z"/></clipPath><clipPath id="D"><path d="m5.064 0 3.696 8.46h-1.56l-.852-2.028h-3.972l-.864 2.028h-1.512l3.696-8.46zm-.708 1.764-1.44 3.36h2.892z"/></clipPath><clipPath id="E"><path d="m3.288 0v8.46h-1.464v-6.96l-1.512.42-.312-1.2 2.268-.72z"/></clipPath><clipPath id="F"><path d="m3.216 0c1.644 0 2.772 1.008 2.772 2.508v.024c0 1.32-.696 2.04-2.184 3.252l-1.728 1.44h3.996v1.296h-6.072v-1.164l2.892-2.46c1.152-.984 1.572-1.512 1.572-2.268 0-.828-.588-1.308-1.356-1.308s-1.296.42-1.932 1.26l-1.056-.828c.804-1.116 1.596-1.752 3.096-1.752z"/></clipPath><clipPath id="G"><path d="m6.024 0v1.104l-2.34 2.4c1.272.156 2.472.804 2.472 2.352v.024c0 1.548-1.188 2.664-2.94 2.664-1.464 0-2.508-.612-3.216-1.476l1.032-.96c.6.708 1.272 1.104 2.208 1.104.828 0 1.452-.504 1.452-1.272v-.024c0-.828-.756-1.296-1.932-1.296h-.684l-.24-.924 2.268-2.412h-3.636v-1.284z"/></clipPath><clipPath id="H"><path d="m5.928 0v5.364h1.2v1.212h-1.2v1.884h-1.416v-1.884h-4.236l-.276-1.056 4.668-5.52zm-1.416 2.04-2.76 3.324h2.76z"/></clipPath><clipPath id="I"><path d="m5.832 0v1.308h-3.756l-.132 1.968c.396-.144.768-.24 1.332-.24 1.632 0 2.928.864 2.928 2.64v.024c0 1.716-1.26 2.844-3.12 2.844-1.284 0-2.292-.516-3.084-1.284l.912-1.068c.672.624 1.38 1.008 2.16 1.008 1.008 0 1.668-.576 1.668-1.452v-.024c0-.852-.72-1.392-1.74-1.392-.6 0-1.116.168-1.548.372l-.888-.588.24-4.116z"/></clipPath><clipPath id="J"><path d="m3.6 0c1.092 0 1.836.348 2.568.936l-.792 1.14c-.588-.456-1.08-.732-1.824-.732-1.464 0-1.992 1.524-2.016 2.676.492-.516 1.116-.852 2.016-.852 1.62 0 2.928.96 2.928 2.64v.024c0 1.668-1.356 2.856-3.12 2.856-1.032 0-1.776-.324-2.34-.888-.636-.636-1.02-1.512-1.02-3.204v-.024c0-2.568 1.224-4.572 3.6-4.572zm-.312 4.404c-1.044 0-1.704.672-1.704 1.476v.024c0 .852.696 1.5 1.74 1.5s1.68-.648 1.68-1.512v-.024c0-.84-.672-1.464-1.716-1.464z"/></clipPath><clipPath id="K"><path d="m5.904 0v1.116l-3.78 7.284h-1.668l3.768-7.104h-4.224v-1.296z"/></clipPath><clipPath id="L"><path d="m4.332 0c1.548 0 2.484.54 3.288 1.308l-.948 1.092c-.672-.624-1.392-1.044-2.352-1.044-1.596 0-2.772 1.32-2.772 2.964v.024c0 1.644 1.164 2.976 2.772 2.976 1.032 0 1.692-.408 2.412-1.08l.948.96c-.876.912-1.836 1.488-3.408 1.488-2.448 0-4.272-1.908-4.272-4.32v-.024c0-2.388 1.788-4.344 4.332-4.344z"/></clipPath><clipPath id="M"><path d="m1.512 2.352v6.336h-1.452v-6.336zm.048-2.352v1.38h-1.56v-1.38z"/></clipPath><clipPath id="N"><path d="m2.256 0v1.74h1.704v1.248h-1.704v3.108c0 .564.288.792.78.792.324 0 .612-.072.9-.216v1.188c-.36.204-.756.324-1.308.324-1.068 0-1.824-.468-1.824-1.86v-3.336h-.804v-1.248h.804v-1.74z"/></clipPath><clipPath id="O"><path d="m5.508 0v.996l-3.66 4.152h3.66v1.188h-5.508v-.996l3.66-4.152h-3.528v-1.188z"/></clipPath><clipPath id="P"><path d="m3.096 0c2.016 0 3.036 1.584 3.036 3.408 0 .132-.012.264-.024.408h-4.656c.156 1.032.888 1.608 1.824 1.608.708 0 1.212-.264 1.716-.756l.852.756c-.6.72-1.428 1.188-2.592 1.188-1.836 0-3.252-1.332-3.252-3.288v-.024c0-1.812 1.284-3.3 3.096-3.3zm-.012 1.188c-.888 0-1.512.684-1.644 1.668h3.252c-.096-.936-.648-1.668-1.608-1.668z"/></clipPath><clipPath id="Q"><path d="m3.432 0c1.428 0 2.256.96 2.256 2.424v4.044h-1.452v-3.6c0-.984-.492-1.548-1.356-1.548-.84 0-1.428.588-1.428 1.572v3.576h-1.452v-6.336h1.452v.972c.408-.588.996-1.104 1.98-1.104z"/></clipPath><clipPath id="R"><path d="m5.52 0v5.544c0 .996-.3 1.74-.792 2.232s-1.2.744-2.04.744c-1.296 0-2.136-.6-2.688-1.356l.972-1.008c.492.636.984.996 1.692.996.792 0 1.332-.528 1.332-1.656v-5.496z"/></clipPath><clipPath id="S"><path d="m2.94 0c.948 0 1.656.252 2.1.708.468.456.684 1.128.684 1.956v3.756h-1.416v-.792c-.432.516-1.092.924-2.064.924-1.188 0-2.244-.684-2.244-1.956v-.024c0-1.368 1.068-2.04 2.616-2.04.708 0 1.212.108 1.704.264v-.156c0-.9-.552-1.38-1.572-1.38-.708 0-1.236.156-1.812.396l-.384-1.14c.696-.312 1.38-.516 2.388-.516zm-.036 3.456c-.936 0-1.488.396-1.488 1.056v.024c0 .612.54.96 1.236.96.96 0 1.692-.552 1.692-1.356v-.432c-.372-.144-.864-.252-1.44-.252z"/></clipPath><clipPath id="T"><path d="m1.56 0 1.788 4.704 1.644-4.704h1.512l-2.52 6.516c-.504 1.296-1.068 1.776-2.088 1.776-.6 0-1.056-.144-1.5-.384l.492-1.08c.264.144.552.24.852.24.408 0 .66-.18.9-.72l-2.64-6.348z"/></clipPath><clipPath id="U"><path d="m3.132 0c2.64 0 4.464 1.812 4.464 4.176v.024c0 2.364-1.824 4.2-4.464 4.2h-3.132v-8.4zm0 1.344h-1.656v5.712h1.656c1.764 0 2.916-1.188 2.916-2.832v-.024c0-1.644-1.152-2.856-2.916-2.856z"/></clipPath><clipPath id="V"><path d="m3.384 0c1.944 0 3.372 1.476 3.372 3.288v.024c0 1.8-1.44 3.3-3.396 3.3-1.932 0-3.36-1.476-3.36-3.276v-.024c0-1.812 1.44-3.312 3.384-3.312zm-.024 1.272c-1.164 0-1.908.912-1.908 2.016v.024c0 1.104.804 2.028 1.932 2.028 1.176 0 1.92-.912 1.92-2.004v-.024c0-1.116-.804-2.04-1.944-2.04z"/></clipPath><clipPath id="W"><path d="m3.3 0c1.188 0 1.932.444 2.532 1.092l-.912.972c-.444-.468-.912-.792-1.632-.792-1.056 0-1.836.912-1.836 2.016v.024c0 1.128.78 2.028 1.896 2.028.684 0 1.188-.312 1.644-.78l.876.864c-.624.696-1.356 1.188-2.592 1.188-1.884 0-3.276-1.476-3.276-3.276v-.024c0-1.8 1.392-3.312 3.3-3.312z"/></clipPath><clipPath id="X"><path d="m1.452 0v3.6c0 .984.492 1.536 1.356 1.536.84 0 1.428-.576 1.428-1.56v-3.576h1.464v6.336h-1.464v-.984c-.408.6-.996 1.116-1.98 1.116-1.428 0-2.256-.96-2.256-2.436v-4.032z"/></clipPath><clipPath id="Y"><path d="m7.416 0c1.38 0 2.22.876 2.22 2.424v4.044h-1.452v-3.6c0-1.008-.468-1.548-1.284-1.548-.792 0-1.356.552-1.356 1.572v3.576h-1.452v-3.612c0-.984-.48-1.536-1.284-1.536s-1.356.6-1.356 1.572v3.576h-1.452v-6.336h1.452v.96c.408-.564.96-1.092 1.932-1.092.912 0 1.56.444 1.896 1.116.504-.672 1.176-1.116 2.136-1.116z"/></clipPath><clipPath id="Z"><path d="m3.096 0c2.016 0 3.036 1.584 3.036 3.408 0 .132-.012.264-.024.408h-4.656c.156 1.032.888 1.608 1.824 1.608.708 0 1.212-.264 1.716-.756l.852.756c-.6.72-1.428 1.188-2.592 1.188-1.836 0-3.252-1.332-3.252-3.288v-.024c0-1.812 1.284-3.3 3.096-3.3zm-.012 1.188c-.888 0-1.512.684-1.644 1.668h3.252c-.096-.936-.648-1.668-1.608-1.668z"/></clipPath><clipPath id="aa"><path d="m3.432 0c1.428 0 2.256.96 2.256 2.424v4.044h-1.452v-3.6c0-.984-.492-1.548-1.356-1.548-.84 0-1.428.588-1.428 1.572v3.576h-1.452v-6.336h1.452v.972c.408-.588.996-1.104 1.98-1.104z"/></clipPath><clipPath id="ab"><path d="m2.256 0v1.74h1.704v1.248h-1.704v3.108c0 .564.288.792.78.792.324 0 .612-.072.9-.216v1.188c-.36.204-.756.324-1.308.324-1.068 0-1.824-.468-1.824-1.86v-3.336h-.804v-1.248h.804v-1.74z"/></clipPath><clipPath id="ac"><path d="m3.432 0c1.428 0 2.256.96 2.256 2.424v4.044h-1.452v-3.6c0-.984-.492-1.548-1.356-1.548-.84 0-1.428.588-1.428 1.572v3.576h-1.452v-6.336h1.452v.972c.408-.588.996-1.104 1.98-1.104z"/></clipPath><clipPath id="ad"><path d="m1.452 0v3.6c0 .984.492 1.536 1.356 1.536.84 0 1.428-.576 1.428-1.56v-3.576h1.464v6.336h-1.464v-.984c-.408.6-.996 1.116-1.98 1.116-1.428 0-2.256-.96-2.256-2.436v-4.032z"/></clipPath><clipPath id="ae"><path d="m7.416 0c1.38 0 2.22.876 2.22 2.424v4.044h-1.452v-3.6c0-1.008-.468-1.548-1.284-1.548-.792 0-1.356.552-1.356 1.572v3.576h-1.452v-3.612c0-.984-.48-1.536-1.284-1.536s-1.356.6-1.356 1.572v3.576h-1.452v-6.336h1.452v.96c.408-.564.96-1.092 1.932-1.092.912 0 1.56.444 1.896 1.116.504-.672 1.176-1.116 2.136-1.116z"/></clipPath><clipPath id="af"><path d="m1.452 0v3.48c.468-.66 1.128-1.188 2.16-1.188 1.488 0 2.94 1.176 2.94 3.288v.024c0 2.1-1.44 3.288-2.94 3.288-1.056 0-1.716-.528-2.16-1.116v.984h-1.452v-8.76zm1.812 3.552c-.984 0-1.848.816-1.848 2.028v.024c0 1.212.864 2.028 1.848 2.028.996 0 1.812-.78 1.812-2.028v-.024c0-1.224-.828-2.028-1.812-2.028z"/></clipPath><clipPath id="ag"><path d="m3.096 0c2.016 0 3.036 1.584 3.036 3.408 0 .132-.012.264-.024.408h-4.656c.156 1.032.888 1.608 1.824 1.608.708 0 1.212-.264 1.716-.756l.852.756c-.6.72-1.428 1.188-2.592 1.188-1.836 0-3.252-1.332-3.252-3.288v-.024c0-1.812 1.284-3.3 3.096-3.3zm-.012 1.188c-.888 0-1.512.684-1.644 1.668h3.252c-.096-.936-.648-1.668-1.608-1.668z"/></clipPath><clipPath id="ah"><path d="m3.50303521.00117296.19296479.00132628v1.536h-.084c-1.272 0-2.16.828-2.16 2.508v2.412h-1.452v-6.336h1.452v1.428c.396-.948 1.128-1.596 2.244-1.548z"/></clipPath><clipPath id="ai"><path d="m6.252 0v1.344h-4.776v2.292h4.236v1.344h-4.236v3.42h-1.476v-8.4z"/></clipPath><clipPath id="aj"><path d="m2.94 0c.948 0 1.656.252 2.1.708.468.456.684 1.128.684 1.956v3.756h-1.416v-.792c-.432.516-1.092.924-2.064.924-1.188 0-2.244-.684-2.244-1.956v-.024c0-1.368 1.068-2.04 2.616-2.04.708 0 1.212.108 1.704.264v-.156c0-.9-.552-1.38-1.572-1.38-.708 0-1.236.156-1.812.396l-.384-1.14c.696-.312 1.38-.516 2.388-.516zm-.036 3.456c-.936 0-1.488.396-1.488 1.056v.024c0 .612.54.96 1.236.96.96 0 1.692-.552 1.692-1.356v-.432c-.372-.144-.864-.252-1.44-.252z"/></clipPath><clipPath id="ak"><path d="m7.416 0c1.38 0 2.22.876 2.22 2.424v4.044h-1.452v-3.6c0-1.008-.468-1.548-1.284-1.548-.792 0-1.356.552-1.356 1.572v3.576h-1.452v-3.612c0-.984-.48-1.536-1.284-1.536s-1.356.6-1.356 1.572v3.576h-1.452v-6.336h1.452v.96c.408-.564.96-1.092 1.932-1.092.912 0 1.56.444 1.896 1.116.504-.672 1.176-1.116 2.136-1.116z"/></clipPath><clipPath id="al"><path d="m1.512 2.352v6.336h-1.452v-6.336zm.048-2.352v1.38h-1.56v-1.38z"/></clipPath><clipPath id="am"><path d="m1.452 0v8.76h-1.452v-8.76z"/></clipPath><clipPath id="an"><path d="m1.56 0 1.788 4.704 1.644-4.704h1.512l-2.52 6.516c-.504 1.296-1.068 1.776-2.088 1.776-.6 0-1.056-.144-1.5-.384l.492-1.08c.264.144.552.24.852.24.408 0 .66-.18.9-.72l-2.64-6.348z"/></clipPath><clipPath id="ao"><path d="m3.432 0c1.428 0 2.256.96 2.256 2.424v4.044h-1.452v-3.6c0-.984-.492-1.548-1.356-1.548-.84 0-1.428.588-1.428 1.572v3.576h-1.452v-6.336h1.452v.972c.408-.588.996-1.104 1.98-1.104z"/></clipPath><clipPath id="ap"><path d="m2.94 0c.948 0 1.656.252 2.1.708.468.456.684 1.128.684 1.956v3.756h-1.416v-.792c-.432.516-1.092.924-2.064.924-1.188 0-2.244-.684-2.244-1.956v-.024c0-1.368 1.068-2.04 2.616-2.04.708 0 1.212.108 1.704.264v-.156c0-.9-.552-1.38-1.572-1.38-.708 0-1.236.156-1.812.396l-.384-1.14c.696-.312 1.38-.516 2.388-.516zm-.036 3.456c-.936 0-1.488.396-1.488 1.056v.024c0 .612.54.96 1.236.96.96 0 1.692-.552 1.692-1.356v-.432c-.372-.144-.864-.252-1.44-.252z"/></clipPath><clipPath id="aq"><path d="m7.416 0c1.38 0 2.22.876 2.22 2.424v4.044h-1.452v-3.6c0-1.008-.468-1.548-1.284-1.548-.792 0-1.356.552-1.356 1.572v3.576h-1.452v-3.612c0-.984-.48-1.536-1.284-1.536s-1.356.6-1.356 1.572v3.576h-1.452v-6.336h1.452v.96c.408-.564.96-1.092 1.932-1.092.912 0 1.56.444 1.896 1.116.504-.672 1.176-1.116 2.136-1.116z"/></clipPath><clipPath id="ar"><path d="m3.096 0c2.016 0 3.036 1.584 3.036 3.408 0 .132-.012.264-.024.408h-4.656c.156 1.032.888 1.608 1.824 1.608.708 0 1.212-.264 1.716-.756l.852.756c-.6.72-1.428 1.188-2.592 1.188-1.836 0-3.252-1.332-3.252-3.288v-.024c0-1.812 1.284-3.3 3.096-3.3zm-.012 1.188c-.888 0-1.512.684-1.644 1.668h3.252c-.096-.936-.648-1.668-1.608-1.668z"/></clipPath><clipPath id="as"><path d="m6 0 6 12h-12z"/></clipPath><clipPath id="at"><path d="m4.332 0c1.464 0 2.364.408 3.228 1.14l-.936 1.116c-.648-.552-1.284-.9-2.352-.9-1.548 0-2.724 1.356-2.724 2.964v.024c0 1.728 1.14 3 2.856 3 .792 0 1.512-.252 2.028-.636v-1.572h-2.148v-1.284h3.576v3.528c-.828.708-2.016 1.308-3.504 1.308-2.628 0-4.356-1.872-4.356-4.32v-.024c0-2.352 1.8-4.344 4.332-4.344z"/></clipPath><clipPath id="au"><path d="m1.512 2.352v6.336h-1.452v-6.336zm.048-2.352v1.38h-1.56v-1.38z"/></clipPath><clipPath id="av"><path d="m1.56 0 1.704 4.656 1.716-4.656h1.524l-2.592 6.384h-1.308l-2.604-6.384z"/></clipPath><clipPath id="aw"><path d="m3.096 0c2.016 0 3.036 1.584 3.036 3.408 0 .132-.012.264-.024.408h-4.656c.156 1.032.888 1.608 1.824 1.608.708 0 1.212-.264 1.716-.756l.852.756c-.6.72-1.428 1.188-2.592 1.188-1.836 0-3.252-1.332-3.252-3.288v-.024c0-1.812 1.284-3.3 3.096-3.3zm-.012 1.188c-.888 0-1.512.684-1.644 1.668h3.252c-.096-.936-.648-1.668-1.608-1.668z"/></clipPath><clipPath id="ax"><path d="m3.432 0c1.428 0 2.256.96 2.256 2.424v4.044h-1.452v-3.6c0-.984-.492-1.548-1.356-1.548-.84 0-1.428.588-1.428 1.572v3.576h-1.452v-6.336h1.452v.972c.408-.588.996-1.104 1.98-1.104z"/></clipPath><clipPath id="ay"><path d="m3.432 0c1.428 0 2.256.96 2.256 2.424v4.044h-1.452v-3.6c0-.984-.492-1.548-1.356-1.548-.84 0-1.428.588-1.428 1.572v3.576h-1.452v-6.336h1.452v.972c.408-.588.996-1.104 1.98-1.104z"/></clipPath><clipPath id="az"><path d="m2.94 0c.948 0 1.656.252 2.1.708.468.456.684 1.128.684 1.956v3.756h-1.416v-.792c-.432.516-1.092.924-2.064.924-1.188 0-2.244-.684-2.244-1.956v-.024c0-1.368 1.068-2.04 2.616-2.04.708 0 1.212.108 1.704.264v-.156c0-.9-.552-1.38-1.572-1.38-.708 0-1.236.156-1.812.396l-.384-1.14c.696-.312 1.38-.516 2.388-.516zm-.036 3.456c-.936 0-1.488.396-1.488 1.056v.024c0 .612.54.96 1.236.96.96 0 1.692-.552 1.692-1.356v-.432c-.372-.144-.864-.252-1.44-.252z"/></clipPath><clipPath id="aA"><path d="m7.416 0c1.38 0 2.22.876 2.22 2.424v4.044h-1.452v-3.6c0-1.008-.468-1.548-1.284-1.548-.792 0-1.356.552-1.356 1.572v3.576h-1.452v-3.612c0-.984-.48-1.536-1.284-1.536s-1.356.6-1.356 1.572v3.576h-1.452v-6.336h1.452v.96c.408-.564.96-1.092 1.932-1.092.912 0 1.56.444 1.896 1.116.504-.672 1.176-1.116 2.136-1.116z"/></clipPath><clipPath id="aB"><path d="m3.096 0c2.016 0 3.036 1.584 3.036 3.408 0 .132-.012.264-.024.408h-4.656c.156 1.032.888 1.608 1.824 1.608.708 0 1.212-.264 1.716-.756l.852.756c-.6.72-1.428 1.188-2.592 1.188-1.836 0-3.252-1.332-3.252-3.288v-.024c0-1.812 1.284-3.3 3.096-3.3zm-.012 1.188c-.888 0-1.512.684-1.644 1.668h3.252c-.096-.936-.648-1.668-1.608-1.668z"/></clipPath><clipPath id="aC"><path d="m2.568 0c.792 0 1.656.276 2.328.72l-.576 1.032c-.612-.372-1.26-.6-1.788-.6-.564 0-.888.264-.888.624v.024c0 .468.684.66 1.428.9.924.288 1.968.708 1.968 1.848v.024c0 1.332-1.032 1.992-2.352 1.992-.9 0-1.896-.324-2.688-.948l.648-.984c.696.516 1.428.78 2.076.78.624 0 .984-.264.984-.684v-.024c0-.492-.672-.66-1.416-.888-.936-.264-1.98-.648-1.98-1.86v-.024c0-1.2.996-1.932 2.256-1.932z"/></clipPath><clipPath id="aD"><path d="m3.132 0c2.64 0 4.464 1.812 4.464 4.176v.024c0 2.364-1.824 4.2-4.464 4.2h-3.132v-8.4zm0 1.344h-1.656v5.712h1.656c1.764 0 2.916-1.188 2.916-2.832v-.024c0-1.644-1.152-2.856-2.916-2.856z"/></clipPath><clipPath id="aE"><path d="m2.94 0c.948 0 1.656.252 2.1.708.468.456.684 1.128.684 1.956v3.756h-1.416v-.792c-.432.516-1.092.924-2.064.924-1.188 0-2.244-.684-2.244-1.956v-.024c0-1.368 1.068-2.04 2.616-2.04.708 0 1.212.108 1.704.264v-.156c0-.9-.552-1.38-1.572-1.38-.708 0-1.236.156-1.812.396l-.384-1.14c.696-.312 1.38-.516 2.388-.516zm-.036 3.456c-.936 0-1.488.396-1.488 1.056v.024c0 .612.54.96 1.236.96.96 0 1.692-.552 1.692-1.356v-.432c-.372-.144-.864-.252-1.44-.252z"/></clipPath><clipPath id="aF"><path d="m2.256 0v1.74h1.704v1.248h-1.704v3.108c0 .564.288.792.78.792.324 0 .612-.072.9-.216v1.188c-.36.204-.756.324-1.308.324-1.068 0-1.824-.468-1.824-1.86v-3.336h-.804v-1.248h.804v-1.74z"/></clipPath><clipPath id="aG"><path d="m3.096 0c2.016 0 3.036 1.584 3.036 3.408 0 .132-.012.264-.024.408h-4.656c.156 1.032.888 1.608 1.824 1.608.708 0 1.212-.264 1.716-.756l.852.756c-.6.72-1.428 1.188-2.592 1.188-1.836 0-3.252-1.332-3.252-3.288v-.024c0-1.812 1.284-3.3 3.096-3.3zm-.012 1.188c-.888 0-1.512.684-1.644 1.668h3.252c-.096-.936-.648-1.668-1.608-1.668z"/></clipPath><clipPath id="aH"><path d="m3.384 0c1.944 0 3.372 1.476 3.372 3.288v.024c0 1.8-1.44 3.3-3.396 3.3-1.932 0-3.36-1.476-3.36-3.276v-.024c0-1.812 1.44-3.312 3.384-3.312zm-.024 1.272c-1.164 0-1.908.912-1.908 2.016v.024c0 1.104.804 2.028 1.932 2.028 1.176 0 1.92-.912 1.92-2.004v-.024c0-1.116-.804-2.04-1.944-2.04z"/></clipPath><clipPath id="aI"><path d="m2.748 0c.504 0 .852.072 1.176.168v1.224c-.288-.096-.54-.156-.852-.156-.552 0-.84.3-.84.96v.348h1.68v1.2h-1.656v5.088h-1.452v-5.088h-.804v-1.212h.804v-.468c0-.696.18-1.224.516-1.56s.804-.504 1.428-.504z"/></clipPath><clipPath id="aJ"><path d="m1.452 0v3.48c.468-.66 1.128-1.188 2.16-1.188 1.488 0 2.94 1.176 2.94 3.288v.024c0 2.1-1.44 3.288-2.94 3.288-1.056 0-1.716-.528-2.16-1.116v.984h-1.452v-8.76zm1.812 3.552c-.984 0-1.848.816-1.848 2.028v.024c0 1.212.864 2.028 1.848 2.028.996 0 1.812-.78 1.812-2.028v-.024c0-1.224-.828-2.028-1.812-2.028z"/></clipPath><clipPath id="aK"><path d="m1.512 2.352v6.336h-1.452v-6.336zm.048-2.352v1.38h-1.56v-1.38z"/></clipPath><clipPath id="aL"><path d="m3.50303521.00117296.19296479.00132628v1.536h-.084c-1.272 0-2.16.828-2.16 2.508v2.412h-1.452v-6.336h1.452v1.428c.396-.948 1.128-1.596 2.244-1.548z"/></clipPath><clipPath id="aM"><path d="m2.256 0v1.74h1.704v1.248h-1.704v3.108c0 .564.288.792.78.792.324 0 .612-.072.9-.216v1.188c-.36.204-.756.324-1.308.324-1.068 0-1.824-.468-1.824-1.86v-3.336h-.804v-1.248h.804v-1.74z"/></clipPath><clipPath id="aN"><path d="m1.452 0v3.396c.408-.588.996-1.104 1.98-1.104 1.428 0 2.256.96 2.256 2.424v4.044h-1.452v-3.6c0-.984-.492-1.548-1.356-1.548-.84 0-1.428.588-1.428 1.572v3.576h-1.452v-8.76z"/></clipPath><g clip-path="url(#a)"><g clip-path="url(#b)" transform="translate(89)"><path d="m0 0h170v125h-170z" fill="#d7dcd7"/></g><g clip-path="url(#c)" transform="translate(100.388646 46.563319)"><path d="m0 0h35v35h-35z" fill="#fff"/></g><g clip-path="url(#d)" transform="translate(154.714568 85.587004)"><path d="m0 0h7.32v8.688h-7.32z" fill="#242934"/></g><g clip-path="url(#e)" transform="translate(162.470568 85.671004)"><path d="m0 0h3.288v8.46h-3.288z" fill="#242934"/></g><g clip-path="url(#f)" transform="translate(166.110568 84.555004)"><path d="m0 0h6.684v11.112h-6.684z" fill="#242934"/></g><g clip-path="url(#g)" transform="translate(172.426568 85.587004)"><path d="m0 0h7.32v8.688h-7.32z" fill="#242934"/></g><g clip-path="url(#h)" transform="translate(180.182568 85.671004)"><path d="m0 0h3.288v8.46h-3.288z" fill="#242934"/></g><g clip-path="url(#i)" transform="translate(183.822568 84.555004)"><path d="m0 0h6.684v11.112h-6.684z" fill="#242934"/></g><g clip-path="url(#j)" transform="translate(190.222568 85.611004)"><path d="m0 0h6.072v8.52h-6.072z" fill="#242934"/></g><g clip-path="url(#d)" transform="translate(197.174568 85.587004)"><path d="m0 0h7.32v8.688h-7.32z" fill="#242934"/></g><g clip-path="url(#k)" transform="translate(205.362568 85.587004)"><path d="m0 0h7.32v8.688h-7.32z" fill="#242934"/></g><g clip-path="url(#d)" transform="translate(213.550568 85.587004)"><path d="m0 0h7.32v8.688h-7.32z" fill="#242934"/></g><g transform="translate(95.948035 15)"><g clip-path="url(#l)"><path d="m0 0h5.42v7h-5.42z" fill="#242934"/></g><g clip-path="url(#m)" transform="translate(6.09 1.65)"><path d="m0 0h4.77v5.46h-4.77z" fill="#242934"/></g><g clip-path="url(#n)" transform="translate(11.88 1.63)"><path d="m0 0h4.2v5.47h-4.2z" fill="#242934"/></g><g clip-path="url(#o)" transform="translate(16.79 1.63)"><path d="m0 0h4.2v5.47h-4.2z" fill="#242934"/></g><g clip-path="url(#p)" transform="translate(22.23 1.61)"><path d="m0 0h5.46v6.99h-5.46z" fill="#242934"/></g><g clip-path="url(#q)" transform="translate(28.65 1.61)"><path d="m0 0h5.63v5.51h-5.63z" fill="#242934"/></g><g clip-path="url(#r)" transform="translate(35.51 1.617917)"><path d="m0 0h3.08v5.3820827h-3.08z" fill="#242934"/></g><g clip-path="url(#s)" transform="translate(39.22 .27)"><path d="m0 0h3.3v6.82h-3.3z" fill="#242934"/></g></g><g clip-path="url(#t)" transform="translate(152.348035 14.95)"><path d="m0 0h7.3v7.05h-7.3z" fill="#242934"/></g><g clip-path="url(#u)" transform="translate(160.548035 16.72)"><path d="m0 0h4.75v5.39h-4.75z" fill="#242934"/></g><g clip-path="url(#v)" transform="translate(166.378035 16.63)"><path d="m0 0h4.2v5.47h-4.2z" fill="#242934"/></g><g clip-path="url(#w)" transform="translate(171.298035 15.27)"><path d="m0 0h3.3v6.82h-3.3z" fill="#242934"/></g><g clip-path="url(#x)" transform="translate(175.828035 16.617917)"><path d="m0 0h3.08v5.3820827h-3.08z" fill="#242934"/></g><g clip-path="url(#y)" transform="translate(179.358035 16.65)"><path d="m0 0h4.77v5.46h-4.77z" fill="#242934"/></g><g clip-path="url(#z)" transform="translate(185.648035 14.7)"><path d="m0 0h1.21v7.3h-1.21z" fill="#242934"/></g><g clip-path="url(#A)" transform="translate(188.458035 14.76)"><path d="m0 0h1.3v7.24h-1.3z" fill="#242934"/></g><g clip-path="url(#B)" transform="translate(190.948035 16.65)"><path d="m0 0h4.77v5.46h-4.77z" fill="#242934"/></g><g clip-path="url(#C)" transform="translate(185.909694 29.154585)"><path d="m0 0h6.504v8.4h-6.504z" fill="#242934"/></g><g clip-path="url(#D)" transform="translate(191.865694 29.094585)"><path d="m0 0h8.76v8.46h-8.76z" fill="#242934"/></g><g clip-path="url(#E)" transform="translate(200.797694 29.094585)"><path d="m0 0h3.288v8.46h-3.288z" fill="#242934"/></g><g clip-path="url(#F)" transform="translate(205.325694 29.034585)"><path d="m0 0h6.072v8.52h-6.072z" fill="#242934"/></g><g clip-path="url(#G)" transform="translate(212.109694 29.154585)"><path d="m0 0h6.156v8.544h-6.156z" fill="#242934"/></g><g clip-path="url(#H)" transform="translate(218.941694 29.094585)"><path d="m0 0h7.128v8.46h-7.128z" fill="#242934"/></g><g clip-path="url(#I)" transform="translate(226.757694 29.154585)"><path d="m0 0h6.204v8.544h-6.204z" fill="#242934"/></g><g clip-path="url(#J)" transform="translate(233.853694 29.010585)"><path d="m0 0h6.48v8.688h-6.48z" fill="#242934"/></g><g clip-path="url(#K)" transform="translate(241.141694 29.154585)"><path d="m0 0h5.904v8.4h-5.904z" fill="#242934"/></g><g clip-path="url(#L)" transform="translate(154.725467 49.010585)"><path d="m0 0h7.68v8.688h-7.68z" fill="#242934"/></g><g clip-path="url(#M)" transform="translate(163.309467 48.866585)"><path d="m0 0h1.56v8.688h-1.56z" fill="#242934"/></g><g clip-path="url(#N)" transform="translate(165.713467 49.478585)"><path d="m0 0h3.96v8.184h-3.96z" fill="#242934"/></g><g clip-path="url(#M)" transform="translate(170.673467 48.866585)"><path d="m0 0h1.56v8.688h-1.56z" fill="#242934"/></g><g clip-path="url(#O)" transform="translate(173.293467 51.218585)"><path d="m0 0h5.508v6.336h-5.508z" fill="#242934"/></g><g clip-path="url(#P)" transform="translate(179.273467 51.086585)"><path d="m0 0h6.132v6.612h-6.132z" fill="#242934"/></g><g clip-path="url(#Q)" transform="translate(186.369467 51.086585)"><path d="m0 0h5.688v6.468h-5.688z" fill="#242934"/></g><g transform="translate(154.269467 63.154585)"><g clip-path="url(#R)"><path d="m0 0h5.52v8.52h-5.52z" fill="#242934"/></g><g clip-path="url(#S)" transform="translate(6.46 1.98)"><path d="m0 0h5.724v6.552h-5.724z" fill="#242934"/></g><g clip-path="url(#T)" transform="translate(12.584 2.064)"><path d="m0 0h6.504v8.292h-6.504z" fill="#242934"/></g></g><g clip-path="url(#U)" transform="translate(275.08 22.6)"><path d="m0 0h7.596v8.4h-7.596z" fill="#242934"/></g><g clip-path="url(#V)" transform="translate(283.448 24.532)"><path d="m0 0h6.756v6.612h-6.756z" fill="#242934"/></g><g clip-path="url(#W)" transform="translate(290.832 24.532)"><path d="m0 0h5.868v6.612h-5.868z" fill="#242934"/></g><g clip-path="url(#X)" transform="translate(297.46 24.664)"><path d="m0 0h5.7v6.468h-5.7z" fill="#242934"/></g><g clip-path="url(#Y)" transform="translate(304.472 24.532)"><path d="m0 0h9.636v6.468h-9.636z" fill="#242934"/></g><g clip-path="url(#Z)" transform="translate(315.024 24.532)"><path d="m0 0h6.132v6.612h-6.132z" fill="#242934"/></g><g clip-path="url(#aa)" transform="translate(322.12 24.532)"><path d="m0 0h5.688v6.468h-5.688z" fill="#242934"/></g><g clip-path="url(#ab)" transform="translate(328.556 22.924)"><path d="m0 0h3.96v8.184h-3.96z" fill="#242934"/></g><g clip-path="url(#ac)" transform="translate(274.912 36.532)"><path d="m0 0h5.688v6.468h-5.688z" fill="#242934"/></g><g clip-path="url(#ad)" transform="translate(281.78 36.664)"><path d="m0 0h5.7v6.468h-5.7z" fill="#242934"/></g><g clip-path="url(#ae)" transform="translate(288.792 36.532)"><path d="m0 0h9.636v6.468h-9.636z" fill="#242934"/></g><g clip-path="url(#af)" transform="translate(299.692 34.24)"><path d="m0 0h6.552v8.892h-6.552z" fill="#242934"/></g><g clip-path="url(#ag)" transform="translate(306.896 36.532)"><path d="m0 0h6.132v6.612h-6.132z" fill="#242934"/></g><g clip-path="url(#ah)" transform="translate(313.992 36.541501)"><path d="m0 0h3.696v6.45849924h-3.696z" fill="#242934"/></g><g clip-path="url(#ai)" transform="translate(3.08 48.6)"><path d="m0 0h6.252v8.4h-6.252z" fill="#242934"/></g><g clip-path="url(#aj)" transform="translate(9.564 50.58)"><path d="m0 0h5.724v6.552h-5.724z" fill="#242934"/></g><g clip-path="url(#ak)" transform="translate(16.528 50.532)"><path d="m0 0h9.636v6.468h-9.636z" fill="#242934"/></g><g clip-path="url(#al)" transform="translate(27.452 48.312)"><path d="m0 0h1.56v8.688h-1.56z" fill="#242934"/></g><g clip-path="url(#am)" transform="translate(30.444 48.24)"><path d="m0 0h1.452v8.76h-1.452z" fill="#242934"/></g><g clip-path="url(#an)" transform="translate(32.692 50.664)"><path d="m0 0h6.504v8.292h-6.504z" fill="#242934"/></g><g clip-path="url(#ao)" transform="translate(43.044 50.532)"><path d="m0 0h5.688v6.468h-5.688z" fill="#242934"/></g><g clip-path="url(#ap)" transform="translate(49.564 50.58)"><path d="m0 0h5.724v6.552h-5.724z" fill="#242934"/></g><g clip-path="url(#aq)" transform="translate(56.528 50.532)"><path d="m0 0h9.636v6.468h-9.636z" fill="#242934"/></g><g clip-path="url(#ar)" transform="translate(67.08 50.532)"><path d="m0 0h6.132v6.612h-6.132z" fill="#242934"/></g><g clip-path="url(#as)" transform="matrix(0 1 -1 0 152 47)"><path d="m0 0h12v12h-12z" fill="#b81236"/></g><g clip-path="url(#as)" transform="matrix(0 1 -1 0 152 62)"><path d="m0 0h12v12h-12z" fill="#b81236"/></g><g clip-path="url(#as)" transform="matrix(0 1 -1 0 152 84)"><path d="m0 0h12v12h-12z" fill="#b81236"/></g><path d="m64-4 9 4.5-9 4.5v-4h-64v-1h64z" fill="#b81137" transform="translate(77 53)"/><path d="m64-4 9 4.5-9 4.5v-4h-64v-1h64z" fill="#b81137" transform="translate(77 67)"/><path d="m64-4 9 4.5-9 4.5v-4h-64v-1h64z" fill="#b81137" transform="translate(77 89)"/><g fill="none" stroke="#969696" stroke-linecap="square" stroke-miterlimit="10"><path d="m0 .5h10" transform="translate(92.5 10)"/><path d="m0 .5h10" transform="translate(107.5 10)"/><path d="m0 .5h10" transform="translate(138.5 10)"/><path d="m0 .5h10" transform="translate(123.5 10)"/><path d="m0 .5h10" transform="translate(169.5 10)"/><path d="m0 .5h10" transform="translate(154.5 10)"/><path d="m0 .5h10" transform="translate(246.5 10)"/><path d="m0 .5h10" transform="translate(199.5 10)"/><path d="m0 .5h10" transform="translate(184.5 10)"/><path d="m0 .5h10" transform="translate(215.5 10)"/><path d="m0 .5h10" transform="translate(230.5 10)"/></g><g clip-path="url(#as)" transform="matrix(0 -1 1 0 253 39)"><path d="m0 0h12v12h-12z" fill="#b81236"/></g><g clip-path="url(#at)" transform="translate(2.708 63.456)"><path d="m0 0h7.86v8.688h-7.86z" fill="#242934"/></g><g clip-path="url(#au)" transform="translate(11.844 63.312)"><path d="m0 0h1.56v8.688h-1.56z" fill="#242934"/></g><g clip-path="url(#av)" transform="translate(14.152 65.664)"><path d="m0 0h6.504v6.384h-6.504z" fill="#242934"/></g><g clip-path="url(#aw)" transform="translate(20.684 65.532)"><path d="m0 0h6.132v6.612h-6.132z" fill="#242934"/></g><g clip-path="url(#ax)" transform="translate(27.78 65.532)"><path d="m0 0h5.688v6.468h-5.688z" fill="#242934"/></g><g clip-path="url(#ay)" transform="translate(37.82 65.532)"><path d="m0 0h5.688v6.468h-5.688z" fill="#242934"/></g><g clip-path="url(#az)" transform="translate(44.34 65.58)"><path d="m0 0h5.724v6.552h-5.724z" fill="#242934"/></g><g clip-path="url(#aA)" transform="translate(51.304 65.532)"><path d="m0 0h9.636v6.468h-9.636z" fill="#242934"/></g><g clip-path="url(#aB)" transform="translate(61.856 65.532)"><path d="m0 0h6.132v6.612h-6.132z" fill="#242934"/></g><g clip-path="url(#aC)" transform="translate(68.436 65.556)"><path d="m0 0h5.04v6.564h-5.04z" fill="#242934"/></g><g clip-path="url(#aD)" transform="translate(3.08 85.6)"><path d="m0 0h7.596v8.4h-7.596z" fill="#242934"/></g><g clip-path="url(#aE)" transform="translate(11.376 87.58)"><path d="m0 0h5.724v6.552h-5.724z" fill="#242934"/></g><g clip-path="url(#aF)" transform="translate(17.776 85.924)"><path d="m0 0h3.96v8.184h-3.96z" fill="#242934"/></g><g clip-path="url(#aG)" transform="translate(22.184 87.532)"><path d="m0 0h6.132v6.612h-6.132z" fill="#242934"/></g><g clip-path="url(#aH)" transform="translate(32.032 87.532)"><path d="m0 0h6.756v6.612h-6.756z" fill="#242934"/></g><g clip-path="url(#aI)" transform="translate(39.284 85.168)"><path d="m0 0h3.924v8.832h-3.924z" fill="#242934"/></g><g clip-path="url(#aJ)" transform="translate(46.876 85.24)"><path d="m0 0h6.552v8.892h-6.552z" fill="#242934"/></g><g clip-path="url(#aK)" transform="translate(54.452 85.312)"><path d="m0 0h1.56v8.688h-1.56z" fill="#242934"/></g><g clip-path="url(#aL)" transform="translate(57.36 87.541501)"><path d="m0 0h3.696v6.45849924h-3.696z" fill="#242934"/></g><g clip-path="url(#aM)" transform="translate(61.312 85.924)"><path d="m0 0h3.96v8.184h-3.96z" fill="#242934"/></g><g clip-path="url(#aN)" transform="translate(66.248 85.24)"><path d="m0 0h5.688v8.76h-5.688z" fill="#242934"/></g></g></svg>