<svg width="335" height="114" xmlns="http://www.w3.org/2000/svg" aria-labelledby="uniqueTitleID uniqueDescID"><defs><clipPath id="a"><path d="M335 0v114H0V0h335z"/></clipPath><clipPath id="b"><path d="M159 0c6.075 0 11 4.925 11 11v92c0 6.075-4.925 11-11 11H11c-6.075 0-11-4.925-11-11V11C0 4.925 4.925 0 11 0h148z"/></clipPath><clipPath id="c"><path d="M170 0v81c0 6.075-4.925 11-11 11H11C4.925 92 0 87.075 0 81V0h170z"/></clipPath><clipPath id="d"><path d="M1.596 0l5.25 6.776V0H8.54v9.8H7.098L1.694 2.828V9.8H0V0h1.596z"/></clipPath><clipPath id="e"><path d="M3.43 0c1.106 0 1.932.294 2.45.826.546.532.798 1.316.798 2.282V7.49H5.026v-.924c-.504.602-1.274 1.078-2.408 1.078C1.232 7.644 0 6.846 0 5.362v-.028c0-1.596 1.246-2.38 3.052-2.38.826 0 1.414.126 1.988.308V3.08c0-1.05-.644-1.61-1.834-1.61-.826 0-1.442.182-2.114.462L.644.602C1.456.238 2.254 0 3.43 0zm-.042 4.032c-1.092 0-1.736.462-1.736 1.232v.028c0 .714.63 1.12 1.442 1.12 1.12 0 1.974-.644 1.974-1.582v-.504a4.696 4.696 0 0 0-1.68-.294z"/></clipPath><clipPath id="f"><path d="M8.652 0c1.61 0 2.59 1.022 2.59 2.828v4.718H9.548v-4.2c0-1.176-.546-1.806-1.498-1.806-.924 0-1.582.644-1.582 1.834v4.172H4.774V3.332c0-1.148-.56-1.792-1.498-1.792s-1.582.7-1.582 1.834v4.172H0V.154h1.694v1.12C2.17.616 2.814 0 3.948 0c1.064 0 1.82.518 2.212 1.302C6.748.518 7.532 0 8.652 0z"/></clipPath><clipPath id="g"><path d="M3.612 0c2.352 0 3.542 1.848 3.542 3.976 0 .154-.014.308-.028.476H1.694c.182 1.204 1.036 1.876 2.128 1.876.826 0 1.414-.308 2.002-.882l.994.882c-.7.84-1.666 1.386-3.024 1.386C1.652 7.714 0 6.16 0 3.878V3.85C0 1.736 1.498 0 3.612 0zm-.014 1.386c-1.036 0-1.764.798-1.918 1.946h3.794c-.112-1.092-.756-1.946-1.876-1.946z"/></clipPath><clipPath id="h"><path d="M1.722 0v8.232h5.152V9.8H0V0h1.722z"/></clipPath><clipPath id="i"><path d="M1.764 2.744v7.392H.07V2.744h1.694zM1.82 0v1.61H0V0h1.82z"/></clipPath><clipPath id="j"><path d="M3.85 0c1.386 0 2.254.518 2.954 1.274L5.74 2.408c-.518-.546-1.064-.924-1.904-.924-1.232 0-2.142 1.064-2.142 2.352v.028c0 1.316.91 2.366 2.212 2.366.798 0 1.386-.364 1.918-.91l1.022 1.008c-.728.812-1.582 1.386-3.024 1.386C1.624 7.714 0 5.992 0 3.892v-.028C0 1.764 1.624 0 3.85 0z"/></clipPath><clipPath id="k"><path d="M3.612 0c2.352 0 3.542 1.848 3.542 3.976 0 .154-.014.308-.028.476H1.694c.182 1.204 1.036 1.876 2.128 1.876.826 0 1.414-.308 2.002-.882l.994.882c-.7.84-1.666 1.386-3.024 1.386C1.652 7.714 0 6.16 0 3.878V3.85C0 1.736 1.498 0 3.612 0zm-.014 1.386c-1.036 0-1.764.798-1.918 1.946h3.794c-.112-1.092-.756-1.946-1.876-1.946z"/></clipPath><clipPath id="l"><path d="M4.004 0C5.67 0 6.636 1.12 6.636 2.828v4.718H4.942v-4.2c0-1.148-.574-1.806-1.582-1.806-.98 0-1.666.686-1.666 1.834v4.172H0V.154h1.694v1.134C2.17.602 2.856 0 4.004 0z"/></clipPath><clipPath id="m"><path d="M3.85 0c1.386 0 2.254.518 2.954 1.274L5.74 2.408c-.518-.546-1.064-.924-1.904-.924-1.232 0-2.142 1.064-2.142 2.352v.028c0 1.316.91 2.366 2.212 2.366.798 0 1.386-.364 1.918-.91l1.022 1.008c-.728.812-1.582 1.386-3.024 1.386C1.624 7.714 0 5.992 0 3.892v-.028C0 1.764 1.624 0 3.85 0z"/></clipPath><clipPath id="n"><path d="M3.612 0c2.352 0 3.542 1.848 3.542 3.976 0 .154-.014.308-.028.476H1.694c.182 1.204 1.036 1.876 2.128 1.876.826 0 1.414-.308 2.002-.882l.994.882c-.7.84-1.666 1.386-3.024 1.386C1.652 7.714 0 6.16 0 3.878V3.85C0 1.736 1.498 0 3.612 0zm-.014 1.386c-1.036 0-1.764.798-1.918 1.946h3.794c-.112-1.092-.756-1.946-1.876-1.946z"/></clipPath><clipPath id="o"><path d="M4.004 0C5.67 0 6.636 1.12 6.636 2.828v4.718H4.942v-4.2c0-1.148-.574-1.806-1.582-1.806-.98 0-1.666.686-1.666 1.834v4.172H0V.154h1.694v1.134C2.17.602 2.856 0 4.004 0z"/></clipPath><clipPath id="p"><path d="M1.694 0v4.2c0 1.148.574 1.792 1.582 1.792.98 0 1.666-.672 1.666-1.82V0H6.65v7.392H4.942V6.244c-.476.7-1.162 1.302-2.31 1.302C.966 7.546 0 6.426 0 4.704V0h1.694z"/></clipPath><clipPath id="q"><path d="M8.652 0c1.61 0 2.59 1.022 2.59 2.828v4.718H9.548v-4.2c0-1.176-.546-1.806-1.498-1.806-.924 0-1.582.644-1.582 1.834v4.172H4.774V3.332c0-1.148-.56-1.792-1.498-1.792s-1.582.7-1.582 1.834v4.172H0V.154h1.694v1.12C2.17.616 2.814 0 3.948 0c1.064 0 1.82.518 2.212 1.302C6.748.518 7.532 0 8.652 0z"/></clipPath><clipPath id="r"><path d="M1.694 0v4.06c.546-.77 1.316-1.386 2.52-1.386 1.736 0 3.43 1.372 3.43 3.836v.028c0 2.45-1.68 3.836-3.43 3.836-1.232 0-2.002-.616-2.52-1.302v1.148H0V0h1.694zm2.114 4.144c-1.148 0-2.156.952-2.156 2.366v.028c0 1.414 1.008 2.366 2.156 2.366 1.162 0 2.114-.91 2.114-2.366V6.51c0-1.428-.966-2.366-2.114-2.366z"/></clipPath><clipPath id="s"><path d="M3.612 0c2.352 0 3.542 1.848 3.542 3.976 0 .154-.014.308-.028.476H1.694c.182 1.204 1.036 1.876 2.128 1.876.826 0 1.414-.308 2.002-.882l.994.882c-.7.84-1.666 1.386-3.024 1.386C1.652 7.714 0 6.16 0 3.878V3.85C0 1.736 1.498 0 3.612 0zm-.014 1.386c-1.036 0-1.764.798-1.918 1.946h3.794c-.112-1.092-.756-1.946-1.876-1.946z"/></clipPath><clipPath id="t"><path d="M4.11 0l.202.003v1.792h-.098c-1.484 0-2.52.966-2.52 2.926v2.814H0V.143h1.694v1.666C2.156.703 3.01-.053 4.312.003z"/></clipPath><clipPath id="u"><path d="M3.654 0c3.08 0 5.208 2.114 5.208 4.872V4.9c0 2.758-2.128 4.9-5.208 4.9H0V0zm0 1.568H1.722v6.664h1.932c2.058 0 3.402-1.386 3.402-3.304V4.9c0-1.918-1.344-3.332-3.402-3.332z"/></clipPath><clipPath id="v"><path d="M3.43 0c1.106 0 1.932.294 2.45.826.546.532.798 1.316.798 2.282V7.49H5.026v-.924c-.504.602-1.274 1.078-2.408 1.078C1.232 7.644 0 6.846 0 5.362v-.028c0-1.596 1.246-2.38 3.052-2.38.826 0 1.414.126 1.988.308V3.08c0-1.05-.644-1.61-1.834-1.61-.826 0-1.442.182-2.114.462L.644.602C1.456.238 2.254 0 3.43 0zm-.042 4.032c-1.092 0-1.736.462-1.736 1.232v.028c0 .714.63 1.12 1.442 1.12 1.12 0 1.974-.644 1.974-1.582v-.504a4.696 4.696 0 0 0-1.68-.294z"/></clipPath><clipPath id="w"><path d="M2.632 0v2.03H4.62v1.456H2.632v3.626c0 .658.336.924.91.924.378 0 .714-.084 1.05-.252V9.17c-.42.238-.882.378-1.526.378-1.246 0-2.128-.546-2.128-2.17V3.486H0V2.03h.938V0h1.694z"/></clipPath><clipPath id="x"><path d="M3.612 0c2.352 0 3.542 1.848 3.542 3.976 0 .154-.014.308-.028.476H1.694c.182 1.204 1.036 1.876 2.128 1.876.826 0 1.414-.308 2.002-.882l.994.882c-.7.84-1.666 1.386-3.024 1.386C1.652 7.714 0 6.16 0 3.878V3.85C0 1.736 1.498 0 3.612 0zm-.014 1.386c-1.036 0-1.764.798-1.918 1.946h3.794c-.112-1.092-.756-1.946-1.876-1.946z"/></clipPath><clipPath id="y"><path d="M3.948 0c2.268 0 3.934 1.722 3.934 3.836v.028c0 2.1-1.68 3.85-3.962 3.85C1.666 7.714 0 5.992 0 3.892v-.028C0 1.75 1.68 0 3.948 0zM3.92 1.484c-1.358 0-2.226 1.064-2.226 2.352v.028c0 1.288.938 2.366 2.254 2.366 1.372 0 2.24-1.064 2.24-2.338v-.028c0-1.302-.938-2.38-2.268-2.38z"/></clipPath><clipPath id="z"><path d="M3.206 0c.588 0 .994.084 1.372.196v1.428c-.336-.112-.63-.182-.994-.182-.644 0-.98.35-.98 1.12v.406h1.96v1.4H2.632v5.936H.938V4.368H0V2.954h.938v-.546c0-.812.21-1.428.602-1.82C1.932.196 2.478 0 3.206 0z"/></clipPath><clipPath id="A"><path d="M1.694 0v4.06c.546-.77 1.316-1.386 2.52-1.386 1.736 0 3.43 1.372 3.43 3.836v.028c0 2.45-1.68 3.836-3.43 3.836-1.232 0-2.002-.616-2.52-1.302v1.148H0V0h1.694zm2.114 4.144c-1.148 0-2.156.952-2.156 2.366v.028c0 1.414 1.008 2.366 2.156 2.366 1.162 0 2.114-.91 2.114-2.366V6.51c0-1.428-.966-2.366-2.114-2.366z"/></clipPath><clipPath id="B"><path d="M1.764 2.744v7.392H.07V2.744h1.694zM1.82 0v1.61H0V0h1.82z"/></clipPath><clipPath id="C"><path d="M4.11 0l.202.003v1.792h-.098c-1.484 0-2.52.966-2.52 2.926v2.814H0V.143h1.694v1.666C2.156.703 3.01-.053 4.312.003z"/></clipPath><clipPath id="D"><path d="M2.632 0v2.03H4.62v1.456H2.632v3.626c0 .658.336.924.91.924.378 0 .714-.084 1.05-.252V9.17c-.42.238-.882.378-1.526.378-1.246 0-2.128-.546-2.128-2.17V3.486H0V2.03h.938V0h1.694z"/></clipPath><clipPath id="E"><path d="M1.694 0v3.962c.476-.686 1.162-1.288 2.31-1.288 1.666 0 2.632 1.12 2.632 2.828v4.718H4.942v-4.2c0-1.148-.574-1.806-1.582-1.806-.98 0-1.666.686-1.666 1.834v4.172H0V0h1.694z"/></clipPath><clipPath id="F"><path d="M3.672 0C5.868 0 7.32 1.92 7.32 4.32v.024c0 2.4-1.464 4.344-3.672 4.344S0 6.768 0 4.368v-.024C0 1.944 1.464 0 3.672 0zm-.024 1.332c-1.296 0-2.124 1.32-2.124 2.988v.024c0 1.656.84 3.012 2.148 3.012 1.308 0 2.124-1.344 2.124-2.988v-.024c0-1.656-.852-3.012-2.148-3.012z"/></clipPath><clipPath id="G"><path d="M3.288 0v8.46H1.824V1.5l-1.512.42L0 .72 2.268 0h1.02z"/></clipPath><clipPath id="H"><path d="M6.684 0L1.26 11.112H0L5.424 0h1.26z"/></clipPath><clipPath id="I"><path d="M3.672 0C5.868 0 7.32 1.92 7.32 4.32v.024c0 2.4-1.464 4.344-3.672 4.344S0 6.768 0 4.368v-.024C0 1.944 1.464 0 3.672 0zm-.024 1.332c-1.296 0-2.124 1.32-2.124 2.988v.024c0 1.656.84 3.012 2.148 3.012 1.308 0 2.124-1.344 2.124-2.988v-.024c0-1.656-.852-3.012-2.148-3.012z"/></clipPath><clipPath id="J"><path d="M3.288 0v8.46H1.824V1.5l-1.512.42L0 .72 2.268 0h1.02z"/></clipPath><clipPath id="K"><path d="M6.684 0L1.26 11.112H0L5.424 0h1.26z"/></clipPath><clipPath id="L"><path d="M3.216 0C4.86 0 5.988 1.008 5.988 2.508v.024c0 1.32-.696 2.04-2.184 3.252l-1.728 1.44h3.996V8.52H0V7.356l2.892-2.46c1.152-.984 1.572-1.512 1.572-2.268 0-.828-.588-1.308-1.356-1.308-.768 0-1.296.42-1.932 1.26L.12 1.752C.924.636 1.716 0 3.216 0z"/></clipPath><clipPath id="M"><path d="M3.672 0C5.868 0 7.32 1.92 7.32 4.32v.024c0 2.4-1.464 4.344-3.672 4.344S0 6.768 0 4.368v-.024C0 1.944 1.464 0 3.672 0zm-.024 1.332c-1.296 0-2.124 1.32-2.124 2.988v.024c0 1.656.84 3.012 2.148 3.012 1.308 0 2.124-1.344 2.124-2.988v-.024c0-1.656-.852-3.012-2.148-3.012z"/></clipPath><clipPath id="N"><path d="M3.672 0C5.868 0 7.32 1.92 7.32 4.32v.024c0 2.4-1.464 4.344-3.672 4.344S0 6.768 0 4.368v-.024C0 1.944 1.464 0 3.672 0zm-.024 1.332c-1.296 0-2.124 1.32-2.124 2.988v.024c0 1.656.84 3.012 2.148 3.012 1.308 0 2.124-1.344 2.124-2.988v-.024c0-1.656-.852-3.012-2.148-3.012z"/></clipPath><clipPath id="O"><path d="M5.52 0v5.544c0 .996-.3 1.74-.792 2.232-.492.492-1.2.744-2.04.744C1.392 8.52.552 7.92 0 7.164l.972-1.008c.492.636.984.996 1.692.996.792 0 1.332-.528 1.332-1.656V0H5.52z"/></clipPath><clipPath id="P"><path d="M2.94 0c.948 0 1.656.252 2.1.708.468.456.684 1.128.684 1.956V6.42H4.308v-.792c-.432.516-1.092.924-2.064.924C1.056 6.552 0 5.868 0 4.596v-.024c0-1.368 1.068-2.04 2.616-2.04.708 0 1.212.108 1.704.264V2.64c0-.9-.552-1.38-1.572-1.38-.708 0-1.236.156-1.812.396L.552.516A5.406 5.406 0 0 1 2.94 0zm-.036 3.456c-.936 0-1.488.396-1.488 1.056v.024c0 .612.54.96 1.236.96.96 0 1.692-.552 1.692-1.356v-.432a4.025 4.025 0 0 0-1.44-.252z"/></clipPath><clipPath id="Q"><path d="M1.56 0l1.788 4.704L4.992 0h1.512l-2.52 6.516C3.48 7.812 2.916 8.292 1.896 8.292c-.6 0-1.056-.144-1.5-.384l.492-1.08c.264.144.552.24.852.24.408 0 .66-.18.9-.72L0 0h1.56z"/></clipPath><clipPath id="R"><path d="M4.332 0C5.88 0 6.816.54 7.62 1.308L6.672 2.4C6 1.776 5.28 1.356 4.32 1.356c-1.596 0-2.772 1.32-2.772 2.964v.024c0 1.644 1.164 2.976 2.772 2.976 1.032 0 1.692-.408 2.412-1.08l.948.96c-.876.912-1.836 1.488-3.408 1.488C1.824 8.688 0 6.78 0 4.368v-.024C0 1.956 1.788 0 4.332 0z"/></clipPath><clipPath id="S"><path d="M1.512 2.352v6.336H.06V2.352h1.452zM1.56 0v1.38H0V0h1.56z"/></clipPath><clipPath id="T"><path d="M2.256 0v1.74H3.96v1.248H2.256v3.108c0 .564.288.792.78.792.324 0 .612-.072.9-.216V7.86c-.36.204-.756.324-1.308.324-1.068 0-1.824-.468-1.824-1.86V2.988H0V1.74h.804V0h1.452z"/></clipPath><clipPath id="U"><path d="M5.508 0v.996l-3.66 4.152h3.66v1.188H0V5.34l3.66-4.152H.132V0h5.376z"/></clipPath><clipPath id="V"><path d="M3.096 0c2.016 0 3.036 1.584 3.036 3.408 0 .132-.012.264-.024.408H1.452c.156 1.032.888 1.608 1.824 1.608.708 0 1.212-.264 1.716-.756l.852.756c-.6.72-1.428 1.188-2.592 1.188C1.416 6.612 0 5.28 0 3.324V3.3C0 1.488 1.284 0 3.096 0zm-.012 1.188c-.888 0-1.512.684-1.644 1.668h3.252c-.096-.936-.648-1.668-1.608-1.668z"/></clipPath><clipPath id="W"><path d="M3.432 0C4.86 0 5.688.96 5.688 2.424v4.044H4.236v-3.6c0-.984-.492-1.548-1.356-1.548-.84 0-1.428.588-1.428 1.572v3.576H0V.132h1.452v.972C1.86.516 2.448 0 3.432 0z"/></clipPath><clipPath id="X"><path d="M3.288 0v8.46H1.824V1.5l-1.512.42L0 .72 2.268 0h1.02z"/></clipPath><clipPath id="Y"><path d="M3.216 0C4.86 0 5.988 1.008 5.988 2.508v.024c0 1.32-.696 2.04-2.184 3.252l-1.728 1.44h3.996V8.52H0V7.356l2.892-2.46c1.152-.984 1.572-1.512 1.572-2.268 0-.828-.588-1.308-1.356-1.308-.768 0-1.296.42-1.932 1.26L.12 1.752C.924.636 1.716 0 3.216 0z"/></clipPath><clipPath id="Z"><path d="M6.024 0v1.104l-2.34 2.4c1.272.156 2.472.804 2.472 2.352v.024c0 1.548-1.188 2.664-2.94 2.664C1.752 8.544.708 7.932 0 7.068l1.032-.96c.6.708 1.272 1.104 2.208 1.104.828 0 1.452-.504 1.452-1.272v-.024c0-.828-.756-1.296-1.932-1.296h-.684l-.24-.924 2.268-2.412H.468V0h5.556z"/></clipPath><clipPath id="aa"><path d="M5.928 0v5.364h1.2v1.212h-1.2V8.46H4.512V6.576H.276L0 5.52 4.668 0h1.26zM4.512 2.04l-2.76 3.324h2.76V2.04z"/></clipPath><clipPath id="ab"><path d="M5.832 0v1.308H2.076l-.132 1.968c.396-.144.768-.24 1.332-.24 1.632 0 2.928.864 2.928 2.64V5.7c0 1.716-1.26 2.844-3.12 2.844C1.8 8.544.792 8.028 0 7.26l.912-1.068c.672.624 1.38 1.008 2.16 1.008 1.008 0 1.668-.576 1.668-1.452v-.024c0-.852-.72-1.392-1.74-1.392-.6 0-1.116.168-1.548.372l-.888-.588L.804 0h5.028z"/></clipPath><clipPath id="ac"><path d="M3.6 0c1.092 0 1.836.348 2.568.936l-.792 1.14c-.588-.456-1.08-.732-1.824-.732-1.464 0-1.992 1.524-2.016 2.676.492-.516 1.116-.852 2.016-.852 1.62 0 2.928.96 2.928 2.64v.024c0 1.668-1.356 2.856-3.12 2.856-1.032 0-1.776-.324-2.34-.888C.384 7.164 0 6.288 0 4.596v-.024C0 2.004 1.224 0 3.6 0zm-.312 4.404c-1.044 0-1.704.672-1.704 1.476v.024c0 .852.696 1.5 1.74 1.5s1.68-.648 1.68-1.512v-.024c0-.84-.672-1.464-1.716-1.464z"/></clipPath><clipPath id="ad"><path d="M5.904 0v1.116L2.124 8.4H.456l3.768-7.104H0V0h5.904z"/></clipPath><clipPath id="ae"><path d="M3.204 0C4.884 0 6.12.972 6.12 2.268v.024c0 .936-.516 1.5-1.224 1.872.924.42 1.512 1.02 1.512 2.016v.024c0 1.5-1.368 2.436-3.204 2.436S0 7.68 0 6.228v-.024c0-1.008.564-1.644 1.512-2.04C.804 3.792.288 3.228.288 2.292v-.024C.288.984 1.524 0 3.204 0zm0 4.848c-.996 0-1.752.504-1.752 1.272v.024c0 .684.648 1.26 1.752 1.26s1.764-.564 1.764-1.26V6.12c0-.768-.768-1.272-1.764-1.272zm0-3.612c-.9 0-1.5.528-1.5 1.164v.024c0 .732.636 1.248 1.5 1.248s1.5-.516 1.5-1.236v-.024c0-.648-.6-1.176-1.5-1.176z"/></clipPath><clipPath id="af"><path d="M3.132 0c1.056 0 1.74.3 2.34.888.612.624 1.008 1.548 1.008 3.204v.024c0 2.7-1.332 4.572-3.6 4.572-1.164 0-1.98-.42-2.688-1.008l.804-1.128c.636.528 1.2.792 1.92.792 1.488 0 2.028-1.536 2.04-2.652-.468.564-1.116.9-1.98.9C1.188 5.592 0 4.548 0 2.928v-.024C0 1.26 1.272 0 3.132 0zm.012 1.272c-1.044 0-1.668.696-1.668 1.56v.024c0 .876.672 1.5 1.716 1.5 1.068 0 1.704-.696 1.704-1.512V2.82c0-.876-.684-1.548-1.752-1.548z"/></clipPath><clipPath id="ag"><path d="M3.672 0C5.868 0 7.32 1.92 7.32 4.32v.024c0 2.4-1.464 4.344-3.672 4.344S0 6.768 0 4.368v-.024C0 1.944 1.464 0 3.672 0zm-.024 1.332c-1.296 0-2.124 1.32-2.124 2.988v.024c0 1.656.84 3.012 2.148 3.012 1.308 0 2.124-1.344 2.124-2.988v-.024c0-1.656-.852-3.012-2.148-3.012z"/></clipPath><clipPath id="ah"><path d="M8 0l8 16H0L8 0z"/></clipPath><clipPath id="ai"><path d="M44 0v50H0V0h44z"/></clipPath><clipPath id="aj"><path d="M16.5 0a8.5 8.5 0 0 1 3.115 16.41C26.711 18.05 32 24.408 32 32v1H0v-1c0-7.83 5.624-14.346 13.053-15.73A8.5 8.5 0 0 1 16.5 0z"/></clipPath><clipPath id="ak"><path d="M1.632 0l2.532 6.456L6.684 0H8.28L4.8 8.46H3.492L0 0h1.632z"/></clipPath><clipPath id="al"><path d="M1.512 2.352v6.336H.06V2.352h1.452zM1.56 0v1.38H0V0h1.56z"/></clipPath><clipPath id="am"><path d="M3.3 0c1.188 0 1.932.444 2.532 1.092l-.912.972c-.444-.468-.912-.792-1.632-.792-1.056 0-1.836.912-1.836 2.016v.024c0 1.128.78 2.028 1.896 2.028.684 0 1.188-.312 1.644-.78l.876.864c-.624.696-1.356 1.188-2.592 1.188C1.392 6.612 0 5.136 0 3.336v-.024C0 1.512 1.392 0 3.3 0z"/></clipPath><clipPath id="an"><path d="M2.256 0v1.74H3.96v1.248H2.256v3.108c0 .564.288.792.78.792.324 0 .612-.072.9-.216V7.86c-.36.204-.756.324-1.308.324-1.068 0-1.824-.468-1.824-1.86V2.988H0V1.74h.804V0h1.452z"/></clipPath><clipPath id="ao"><path d="M3.384 0c1.944 0 3.372 1.476 3.372 3.288v.024c0 1.8-1.44 3.3-3.396 3.3C1.428 6.612 0 5.136 0 3.336v-.024C0 1.5 1.44 0 3.384 0zM3.36 1.272c-1.164 0-1.908.912-1.908 2.016v.024c0 1.104.804 2.028 1.932 2.028 1.176 0 1.92-.912 1.92-2.004v-.024c0-1.116-.804-2.04-1.944-2.04z"/></clipPath><clipPath id="ap"><path d="M3.503.001l.193.001v1.536h-.084c-1.272 0-2.16.828-2.16 2.508v2.412H0V.122h1.452V1.55C1.848.602 2.58-.046 3.696.002z"/></clipPath><clipPath id="aq"><path d="M2.94 0c.948 0 1.656.252 2.1.708.468.456.684 1.128.684 1.956V6.42H4.308v-.792c-.432.516-1.092.924-2.064.924C1.056 6.552 0 5.868 0 4.596v-.024c0-1.368 1.068-2.04 2.616-2.04.708 0 1.212.108 1.704.264V2.64c0-.9-.552-1.38-1.572-1.38-.708 0-1.236.156-1.812.396L.552.516A5.406 5.406 0 0 1 2.94 0zm-.036 3.456c-.936 0-1.488.396-1.488 1.056v.024c0 .612.54.96 1.236.96.96 0 1.692-.552 1.692-1.356v-.432a4.025 4.025 0 0 0-1.44-.252z"/></clipPath></defs><g clip-path="url(#a)"><g clip-path="url(#b)" transform="translate(82)"><path fill="#00428A" d="M0 0h170v114H0V0z"/></g><g clip-path="url(#c)" transform="translate(82 22)"><path fill="#DEF0BA" d="M0 0h170v92H0V0z"/></g><g clip-path="url(#d)" transform="translate(23.26 28.2)"><path fill="#242934" d="M0 0h8.54v9.8H0V0z"/></g><g clip-path="url(#e)" transform="translate(33.634 30.51)"><path fill="#242934" d="M0 0h6.678v7.644H0V0z"/></g><g clip-path="url(#f)" transform="translate(42.342 30.454)"><path fill="#242934" d="M0 0h11.242v7.546H0V0z"/></g><g clip-path="url(#g)" transform="translate(55.236 30.454)"><path fill="#242934" d="M0 0h7.154v7.714H0V0z"/></g><g clip-path="url(#h)" transform="translate(271.26 21.2)"><path fill="#242934" d="M0 0h6.874v9.8H0V0z"/></g><g clip-path="url(#i)" transform="translate(279.758 20.864)"><path fill="#242934" d="M0 0h1.82v10.136H0V0z"/></g><g clip-path="url(#j)" transform="translate(283.328 23.454)"><path fill="#242934" d="M0 0h6.846v7.714H0V0z"/></g><g clip-path="url(#k)" transform="translate(291.112 23.454)"><path fill="#242934" d="M0 0h7.154v7.714H0V0z"/></g><g clip-path="url(#l)" transform="translate(299.974 23.454)"><path fill="#242934" d="M0 0h6.636v7.546H0V0z"/></g><g clip-path="url(#m)" transform="translate(308.248 23.454)"><path fill="#242934" d="M0 0h6.846v7.714H0V0z"/></g><g clip-path="url(#n)" transform="translate(316.032 23.454)"><path fill="#242934" d="M0 0h7.154v7.714H0V0z"/></g><g clip-path="url(#o)" transform="translate(271.064 37.454)"><path fill="#242934" d="M0 0h6.636v7.546H0V0z"/></g><g clip-path="url(#p)" transform="translate(279.66 37.608)"><path fill="#242934" d="M0 0h6.65v7.546H0V0z"/></g><g clip-path="url(#q)" transform="translate(288.424 37.454)"><path fill="#242934" d="M0 0h11.242v7.546H0V0z"/></g><g clip-path="url(#r)" transform="translate(301.724 34.78)"><path fill="#242934" d="M0 0h7.644v10.374H0V0z"/></g><g clip-path="url(#s)" transform="translate(310.712 37.454)"><path fill="#242934" d="M0 0h7.154v7.714H0V0z"/></g><g clip-path="url(#t)" transform="translate(319.574 37.465)"><path fill="#242934" d="M0 0h4.312v7.535H0V0z"/></g><g><g clip-path="url(#u)" transform="translate(13.502 59.2)"><path fill="#242934" d="M0 0h8.862v9.8H0V0z"/></g><g clip-path="url(#v)" transform="translate(23.764 61.51)"><path fill="#242934" d="M0 0h6.678v7.644H0V0z"/></g><g clip-path="url(#w)" transform="translate(31.814 59.578)"><path fill="#242934" d="M0 0h4.62v9.548H0V0z"/></g><g clip-path="url(#x)" transform="translate(37.54 61.454)"><path fill="#242934" d="M0 0h7.154v7.714H0V0z"/></g><g clip-path="url(#y)" transform="translate(50.196 61.454)"><path fill="#242934" d="M0 0h7.882v7.714H0V0z"/></g><g clip-path="url(#z)" transform="translate(59.24 58.696)"><path fill="#242934" d="M0 0h4.578v10.304H0V0z"/></g><g clip-path="url(#A)" transform="translate(31.45 72.78)"><path fill="#242934" d="M0 0h7.644v10.374H0V0z"/></g><g clip-path="url(#B)" transform="translate(40.872 72.864)"><path fill="#242934" d="M0 0h1.82v10.136H0V0z"/></g><g clip-path="url(#C)" transform="translate(44.848 75.465)"><path fill="#242934" d="M0 0h4.312v7.535H0V0z"/></g><g clip-path="url(#D)" transform="translate(50.042 73.578)"><path fill="#242934" d="M0 0h4.62v9.548H0V0z"/></g><g clip-path="url(#E)" transform="translate(56.384 72.78)"><path fill="#242934" d="M0 0h6.636v10.22H0V0z"/></g></g><g><g clip-path="url(#F)" transform="translate(123.684 64.456)"><path fill="#242934" d="M0 0h7.32v8.688H0V0z"/></g><g clip-path="url(#G)" transform="translate(131.94 64.54)"><path fill="#242934" d="M0 0h3.288v8.46H0V0z"/></g><g clip-path="url(#H)" transform="translate(136.08 63.424)"><path fill="#242934" d="M0 0h6.684v11.112H0V0z"/></g><g clip-path="url(#I)" transform="translate(142.896 64.456)"><path fill="#242934" d="M0 0h7.32v8.688H0V0z"/></g><g clip-path="url(#J)" transform="translate(151.152 64.54)"><path fill="#242934" d="M0 0h3.288v8.46H0V0z"/></g><g clip-path="url(#K)" transform="translate(155.292 63.424)"><path fill="#242934" d="M0 0h6.684v11.112H0V0z"/></g><g clip-path="url(#L)" transform="translate(162.192 64.48)"><path fill="#242934" d="M0 0h6.072v8.52H0V0z"/></g><g clip-path="url(#M)" transform="translate(169.644 64.456)"><path fill="#242934" d="M0 0h7.32v8.688H0V0z"/></g><g clip-path="url(#N)" transform="translate(178.332 64.456)"><path fill="#242934" d="M0 0h7.32v8.688H0V0z"/></g><g clip-path="url(#M)" transform="translate(187.02 64.456)"><path fill="#242934" d="M0 0h7.32v8.688H0V0z"/></g></g><g><g clip-path="url(#O)" transform="translate(92.252 29.6)"><path fill="#242934" d="M0 0h5.52v8.52H0V0z"/></g><g clip-path="url(#P)" transform="translate(99.212 31.58)"><path fill="#242934" d="M0 0h5.724v6.552H0V0z"/></g><g clip-path="url(#Q)" transform="translate(105.836 31.664)"><path fill="#242934" d="M0 0h6.504v8.292H0V0z"/></g><g clip-path="url(#R)" transform="translate(116.984 29.456)"><path fill="#242934" d="M0 0h7.68v8.688H0V0z"/></g><g clip-path="url(#S)" transform="translate(126.068 29.312)"><path fill="#242934" d="M0 0h1.56v8.688H0V0z"/></g><g clip-path="url(#T)" transform="translate(128.972 29.924)"><path fill="#242934" d="M0 0h3.96v8.184H0V0z"/></g><g clip-path="url(#S)" transform="translate(134.432 29.312)"><path fill="#242934" d="M0 0h1.56v8.688H0V0z"/></g><g clip-path="url(#U)" transform="translate(137.552 31.664)"><path fill="#242934" d="M0 0h5.508v6.336H0V0z"/></g><g clip-path="url(#V)" transform="translate(144.032 31.532)"><path fill="#242934" d="M0 0h6.132v6.612H0V0z"/></g><g clip-path="url(#W)" transform="translate(151.628 31.532)"><path fill="#242934" d="M0 0h5.688v6.468H0V0z"/></g></g><g><g clip-path="url(#X)" transform="translate(167.312 29.54)"><path fill="#242934" d="M0 0h3.288v8.46H0V0z"/></g><g clip-path="url(#Y)" transform="translate(172.34 29.48)"><path fill="#242934" d="M0 0h6.072v8.52H0V0z"/></g><g clip-path="url(#Z)" transform="translate(179.624 29.6)"><path fill="#242934" d="M0 0h6.156v8.544H0V0z"/></g><g clip-path="url(#aa)" transform="translate(186.956 29.54)"><path fill="#242934" d="M0 0h7.128v8.46H0V0z"/></g><g clip-path="url(#ab)" transform="translate(195.272 29.6)"><path fill="#242934" d="M0 0h6.204v8.544H0V0z"/></g><g clip-path="url(#ac)" transform="translate(202.868 29.456)"><path fill="#242934" d="M0 0h6.48v8.688H0V0z"/></g><g clip-path="url(#ad)" transform="translate(210.656 29.6)"><path fill="#242934" d="M0 0h5.904v8.4H0V0z"/></g><g clip-path="url(#ae)" transform="translate(217.604 29.48)"><path fill="#242934" d="M0 0h6.408v8.64H0V0z"/></g><g clip-path="url(#af)" transform="translate(225.236 29.456)"><path fill="#242934" d="M0 0h6.48v8.688H0V0z"/></g><g clip-path="url(#ag)" transform="translate(233.084 29.456)"><path fill="#242934" d="M0 0h7.32v8.688H0V0z"/></g></g><g><g clip-path="url(#ah)" transform="rotate(90 31 57)"><path fill="#B81236" d="M0 0h16v16H0V0z"/></g></g><g><g clip-path="url(#ah)" transform="rotate(90 13.5 74.5)"><path fill="#B81236" d="M0 0h16v16H0V0z"/></g></g><g><g clip-path="url(#ah)" transform="rotate(-90 144 -102)"><path fill="#B81236" d="M0 0h16v16H0V0z"/></g></g><g><g clip-path="url(#ai)" transform="translate(198 45)"><path fill="#F6F6F6" d="M0 0h44v50H0V0z"/></g></g><g><g clip-path="url(#aj)" transform="translate(204 54)"><path fill="#8C909B" d="M0 0h32v33H0V0z"/></g></g><g><g clip-path="url(#ak)" transform="translate(144.36 6.6)"><path fill="#FFF" d="M0 0h8.28v8.46H0V0z"/></g><g clip-path="url(#al)" transform="translate(153.696 6.312)"><path fill="#FFF" d="M0 0h1.56v8.688H0V0z"/></g><g clip-path="url(#am)" transform="translate(156.756 8.532)"><path fill="#FFF" d="M0 0h5.868v6.612H0V0z"/></g><g clip-path="url(#an)" transform="translate(163.452 6.924)"><path fill="#FFF" d="M0 0h3.96v8.184H0V0z"/></g><g clip-path="url(#ao)" transform="translate(168.36 8.532)"><path fill="#FFF" d="M0 0h6.756v6.612H0V0z"/></g><g clip-path="url(#ap)" transform="translate(176.592 8.542)"><path fill="#FFF" d="M0 0h3.696v6.458H0V0z"/></g><g clip-path="url(#al)" transform="translate(181.572 6.312)"><path fill="#FFF" d="M0 0h1.56v8.688H0V0z"/></g><g clip-path="url(#aq)" transform="translate(184.56 8.58)"><path fill="#FFF" d="M0 0h5.724v6.552H0V0z"/></g></g></g></svg>